<?xml version="1.0" encoding="utf-8"?>
<!-- Generator: Adobe Illustrator 27.6.1, SVG Export Plug-In . SVG Version: 6.00 Build 0)  -->
<svg version="1.1" id="Layer_1" xmlns="http://www.w3.org/2000/svg" xmlns:xlink="http://www.w3.org/1999/xlink" x="0px" y="0px"
	 viewBox="0 0 300 100" style="enable-background:new 0 0 300 100;" xml:space="preserve">
<style type="text/css">
	.st0{fill:#1C3564;}
	.st1{fill:#A87D4B;}
	.st2{fill:#FFFFFF;}
	.st3{fill:none;}
	.st4{fill-rule:evenodd;clip-rule:evenodd;fill:#FFFFFF;}
</style>
<g>
	<g>
		<g>
			<path class="st0" d="M103.8,18.9H62.6c0,3.3-2.7,6-6,6v31.3c0,7.9,4.4,15.3,11.4,19l15.3,7.9l0,0l0,0l15.3-7.9
				c7-3.8,11.4-11.1,11.4-19V24.9C106.6,24.9,103.8,22.2,103.8,18.9z"/>
		</g>
		<g>
			<g>
				<g>
					<path class="st0" d="M50,81.8c0,0,0.5-1.3,3.4-0.2c2,0.9,3.8,3.7,6.2,5.4l-1.5,2.1c-0.9,1.2-2.4,1.8-4,1.5
						c-0.6-0.1-1.4-0.4-2.1-0.9c-3.1-1.9-10.4-6.6-10.4-6.6s-3.6-2.9-6.3-0.8c1.7-0.7,2.7-0.3,2.7-0.3l-2.2,5.6c0,0-4-2.5-1.9-5.6
						c2-2,6-5.7,8.1-7.7c1.1-1.1,2.7-1.6,4.3-1.4c1.8,0.2,4.4,1,7.2,3.1l-1.1,1.3l-4.5-2.5l4.2,2.8l-1,1.2l-4.2-2.6l3.9,3l-1.1,1.3
						l-4.4-2.8l4.1,3.3c0,0-0.7,1.2,0,2.2l-5.4-3.5l11.5,9.2l-12.8-7.6c0,0,10.2,7.2,11.5,7.8c1.2,0.6,2,0.3,2.4-0.3l-6-4.9
						C50.5,83.8,49.5,82.8,50,81.8z"/>
				</g>
			</g>
			<g>
				<g>
					<g>
						<path class="st0" d="M116.5,81.8c0,0-0.6-1.3-3.4-0.2c-2,0.9-3.8,3.7-6.2,5.4l1.6,2.1c0.9,1.2,2.4,1.8,3.9,1.5
							c0.6-0.1,1.4-0.4,2.1-0.9c3.1-1.9,10.4-6.6,10.4-6.6s3.6-2.9,6.3-0.8c-1.5-0.8-3.1-0.2-3.1-0.2l2.5,5.5c0,0,4.1-2.5,1.9-5.6
							c-2-2-6-5.7-8.1-7.7c-1.1-1.1-2.7-1.6-4.3-1.4c-1.8,0.2-4.4,1-7.2,3.1l1.1,1.3l4.5-2.5l-4.2,2.8l1,1.2l4.2-2.6l-3.9,3l1.1,1.3
							l4.4-2.8l-4.1,3.3c0,0,0.7,1.2,0.1,2.2l5.4-3.5L111,88.8l12.8-7.6c0,0-10.2,7.2-11.5,7.8c-1.2,0.6-2,0.3-2.4-0.3l6-4.9
							C116,83.8,116.9,82.8,116.5,81.8z"/>
					</g>
				</g>
				<g>
					<path class="st0" d="M109.4,73.1c-0.5-0.3-2.5-0.5-4.8,1.2c-9.7,8.8-17.6,11.2-21.4,11.7c-0.2,0-0.5-0.1-0.8-0.1
						c-4-0.7-11.5-3.3-20.5-11.5c-2.3-1.7-4.3-1.5-4.8-1.2c-0.5,0.3-6.7,7.6-6.7,7.6s2.3-1.3,5.2,1.3c2.5,2.1,11.1,12,26.9,13
						c0.3,0,1.4,0,1.6,0c15.1-1,24.4-10.8,26.9-13c3-2.6,5.2-1.3,5.2-1.3S109.9,73.4,109.4,73.1z"/>
				</g>
			</g>
		</g>
		<g>
			<g>
				<g>
					<path class="st1" d="M55.6,70.7c0,0,0.6-1.8,0.6-3.2c0-1.9-1-3.4-1-3.4s-1.3,1.7-1.1,3.3C54.3,68.9,55.6,70.7,55.6,70.7z"/>
				</g>
				<g>
					<path class="st1" d="M48.5,67.3c0,0,2.1-0.1,3.7,0.6c1.9,0.8,2.9,3.1,2.9,3.1s-2.8-0.1-4.2-0.9C49.5,69.2,48.5,67.3,48.5,67.3z
						"/>
				</g>
			</g>
			<g>
				<g>
					<path class="st1" d="M53,66.5c0,0,0.7-1.4,1.2-2.3c0.8-1.5,0.1-4.5,0.1-4.5s-2,1.6-2.2,3.3C52,64.6,53,66.5,53,66.5z"/>
				</g>
				<g>
					<path class="st1" d="M46.5,61.8c0,0,1.5,0,2.9,0.8c2.1,1.2,2.9,4.1,2.9,4.1s-2.6-0.5-3.9-1.6C47.2,63.9,46.5,61.8,46.5,61.8z"
						/>
				</g>
			</g>
			<g>
				<g>
					<path class="st1" d="M51.5,62c0,0,1.1-1.3,1.8-2c1.2-1.3,0.7-4.3,0.7-4.3s-2,1.2-2.5,2.7C50.9,60,51.5,62,51.5,62z"/>
				</g>
				<g>
					<path class="st1" d="M46,56.2c0,0,2.1,0.6,3.2,1.8c1.4,1.5,1.6,3.9,1.6,3.9s-2.6-0.9-3.6-2.2C46.2,58.4,46,56.2,46,56.2z"/>
				</g>
			</g>
			<g>
				<g>
					<path class="st1" d="M50.8,57c0,0,1.6-0.9,2.3-1.6c1.2-1.2,0.9-3.9,0.9-3.9s-2.1,1-2.7,2.4C50.7,55.3,50.8,57,50.8,57z"/>
				</g>
				<g>
					<path class="st1" d="M46.5,51.2c0,0,1.8,1,2.5,1.8c1.3,1.6,1.1,4.1,1.1,4.1s-2.2-1.1-3-2.5C46.4,53.3,46.5,51.2,46.5,51.2z"/>
				</g>
			</g>
			<g>
				<path class="st1" d="M50.8,52.7c0,0,1.7-1.1,2.4-2c1.2-1.5,0.6-3.5,0.6-3.5s-1.8,0.7-2.4,2.4C50.9,50.9,50.8,52.7,50.8,52.7z"/>
			</g>
			<g>
				<path class="st1" d="M47.5,46.7c0,0,1.2,0.8,1.8,2c1,1.8,0.7,4.4,0.7,4.4s-1.8-1.6-2.3-3C47.1,48.6,47.5,46.7,47.5,46.7z"/>
			</g>
			<g>
				<g>
					<path class="st1" d="M51.3,42.9c0,0,0.5,1.5,0.6,2.7c0.2,2.3-1.4,3.5-1.4,3.5s-1.2-1.7-0.7-3.6C50.1,44.3,51.3,42.9,51.3,42.9z
						"/>
				</g>
			</g>
		</g>
		<g>
			<g>
				<g>
					<path class="st1" d="M110.9,70.7c0,0-0.6-1.8-0.6-3.2c0-1.9,1-3.4,1-3.4s1.3,1.7,1.1,3.3C112.2,68.9,110.9,70.7,110.9,70.7z"/>
				</g>
				<g>
					<path class="st1" d="M118,67.3c0,0-2.1-0.1-3.7,0.6c-1.9,0.8-2.9,3.1-2.9,3.1s2.8-0.1,4.2-0.9C117,69.2,118,67.3,118,67.3z"/>
				</g>
			</g>
			<g>
				<g>
					<path class="st1" d="M113.5,66.5c0,0-0.7-1.4-1.2-2.3c-0.8-1.5-0.1-4.5-0.1-4.5s2,1.6,2.2,3.3
						C114.5,64.6,113.5,66.5,113.5,66.5z"/>
				</g>
				<g>
					<path class="st1" d="M120,61.8c0,0-1.6,0-2.9,0.8c-2.1,1.2-2.9,4.1-2.9,4.1s2.6-0.5,3.9-1.6C119.3,63.9,120,61.8,120,61.8z"/>
				</g>
			</g>
			<g>
				<g>
					<path class="st1" d="M115.1,62c0,0-1.1-1.3-1.8-2c-1.2-1.3-0.7-4.3-0.7-4.3s2,1.2,2.5,2.7C115.6,60,115.1,62,115.1,62z"/>
				</g>
				<g>
					<path class="st1" d="M120.5,56.2c0,0-2.1,0.6-3.2,1.8c-1.4,1.5-1.6,3.9-1.6,3.9s2.6-0.9,3.6-2.2
						C120.3,58.4,120.5,56.2,120.5,56.2z"/>
				</g>
			</g>
			<g>
				<g>
					<path class="st1" d="M115.8,57c0,0-1.6-0.9-2.3-1.6c-1.2-1.2-0.9-3.9-0.9-3.9s2.1,1,2.7,2.4C115.8,55.3,115.8,57,115.8,57z"/>
				</g>
				<g>
					<path class="st1" d="M120,51.2c0,0-1.8,1-2.5,1.8c-1.3,1.6-1.1,4.1-1.1,4.1s2.2-1.1,3-2.5C120.1,53.3,120,51.2,120,51.2z"/>
				</g>
			</g>
			<g>
				<path class="st1" d="M115.7,52.7c0,0-1.7-1.1-2.4-2c-1.2-1.5-0.6-3.5-0.6-3.5s1.8,0.7,2.4,2.4C115.6,50.9,115.7,52.7,115.7,52.7
					z"/>
			</g>
			<g>
				<path class="st1" d="M119,46.7c0,0-1.2,0.8-1.8,2c-1,1.8-0.7,4.4-0.7,4.4s1.8-1.6,2.3-3C119.4,48.6,119,46.7,119,46.7z"/>
			</g>
			<g>
				<g>
					<path class="st1" d="M115.2,42.9c0,0-0.5,1.5-0.6,2.7c-0.2,2.3,1.4,3.5,1.4,3.5s1.2-1.7,0.7-3.6
						C116.4,44.3,115.2,42.9,115.2,42.9z"/>
				</g>
			</g>
		</g>
		<g>
			<path class="st2" d="M104.5,34.5c0,0.5-0.5,0.9-1.3,0.9c-0.1,0-0.3,0-0.4,0c0,0.6-0.1,0.7-0.3,1.3c-0.2,0.6-0.4,0.8-0.7,1.4
				c-0.2,0.4-0.3,1.1-0.3,1.5c0,0.4,0,0.7,0,1.1c0,0.2,0,0.4,0.1,0.6c0,0.2,0,0.2-0.2,0.3c-0.5,0.2-1,0.2-1.6,0.2
				c-0.1,0-0.1,0-0.1,0c-0.2,0-0.2-0.1-0.2-0.3c0.2-0.5,0.3-1.1,0.3-1.7c0-0.2,0-0.4,0-0.6c0-0.2-0.4-0.2-0.5,0
				c0,0.1-0.1,0.2-0.1,0.3c0,0.4-0.1,0.9-0.1,1.3c0,0.2-0.1,0.4-0.1,0.6c-0.1,0.2-0.2,0.2-0.3,0.2c-0.4,0-0.8,0-1.2-0.1
				c-0.2,0-0.3-0.1-0.2-0.3c0.1-0.3,0.2-0.6,0.2-0.9c0-0.6,0.1-1.3,0.1-1.9c0.4-0.1,0.9-0.1,1.3,0.1c-0.1-0.2-0.3-0.3-0.6-0.4
				c-0.2,0-0.5,0-0.7,0s-0.4,0.1-0.7,0.2c0.1-0.3,0.1-0.7,0-1c-0.2,0.4-0.3,0.9-0.3,1.3c0,0.6,0.1,1.2,0.1,1.8c0,0.3,0.1,0.7,0.1,1
				c0,0.2-0.1,0.3-0.3,0.3c-0.4,0-0.9,0-1.3,0c-0.3,0-0.3,0-0.3-0.3c0-0.9-0.2-1.8-0.5-2.7c-0.1-0.2-0.3-0.5-0.5-0.4
				c-0.3,0.2-0.5,0.5-0.4,0.9c0.1,0.2,0.3,0.6,0.3,0.8c0.1,0.2,0,0.3-0.2,0.5c-0.5,0.3-0.8,0.4-1.4,0.4c-0.1,0-0.1,0-0.2-0.1
				c-0.1-0.2-0.2-0.5-0.3-0.7c-0.1-0.3-0.3-0.6-0.4-0.9c-0.2-0.4-0.1-0.8,0.2-1.1c0.3-0.5,0.7-0.9,1-1.4c0,0,0.1-0.1,0.2-0.2
				c0.4,0.2,0.7,0.5,1.1,0.7c0,0,0,0,0,0c0,0-0.1-0.1-0.1-0.2c-0.2-0.2-0.4-0.5-0.7-0.6c-0.4-0.3-0.8-0.7-1-1.2
				c-0.4-1-1.3-0.4-2.4-1.1c-1.1-0.7-0.9-1.3-1.8-1.6c0.1-0.1,0.2-0.2,0.3-0.2c0.1,0,0.1-0.1,0.1-0.1c0.1-0.1,0.1-0.2,0-0.3
				c-0.9-0.6-1.3-1.4-1.3-2.4c0-0.8,0.4-1.4,0.9-1.9c0.2-0.1,0.3-0.3,0.5-0.4c0.2-0.1,0.2-0.3,0.3-0.4c0-0.2,0-0.2-0.1-0.3
				c-0.1-0.1-0.3,0-0.5,0c-0.1,0-0.2,0-0.3-0.1c-0.1-0.1,0-0.2,0.1-0.3c0.4-0.4,1.3-0.3,1.5,0c0.6,0.8-0.6,1.9-0.9,2.7
				c-0.2,0.4,0,0.9,0.4,0.9c0.4,0,0.8,0,1.2-0.2c0.5-0.2,0.9-0.3,1.4-0.2c0.8,0,1.4,0.4,1.8,1c0.1,0.1,0.2,0.2,0.2,0.4
				c0.1,0.1,0.2,0.1,0.3,0.1c0.3-0.1,0.7-0.2,1.1-0.3c0.3,0,0.6,0,0.8,0c0.2,0,0.4,0.2,0.6,0.4c0.1,0.1,0.1,0.2,0.2,0.2
				c-0.1,0.1-0.2,0.1-0.3,0.2c-0.3,0.2-0.4,0.5-0.4,0.9c0.1,0.5-0.1,0.9-0.5,1.2c-0.4,0.3-0.8,0.5-1.3,0.7c-0.1,0-0.1,0-0.2,0.1
				c0,0,0,0,0,0c0.4-0.1,0.8-0.2,1.3-0.4c0.7-0.3,1.1-0.9,0.9-1.7c0-0.2,0-0.4,0.2-0.6c0.3-0.3,0.6-0.5,1-0.5c0.6,0,1.3,0,1.9,0.2
				c1.1,0.3,1.9,0.9,2.6,1.9c0.3,0.4,0.5,0.8,0.8,1.2c0.1,0.1,0.2,0.2,0.3,0.3c0.2,0.1,0.8,0.2,0.9,0c0.2-0.2,0.2-0.5,0-0.5
				c-0.1,0-0.2,0.2-0.3,0.1c-0.1,0-0.1-0.1-0.1-0.2c0-0.1,0.2-0.2,0.3-0.2C104.2,33.7,104.5,34,104.5,34.5z"/>
		</g>
		<g>
			<path class="st2" d="M59.7,80.1l2.3-1.8l0.7,0.5l-3.2,2.3l-0.7-0.5l1.1-3.8l0.7,0.5L59.7,80.1z"/>
			<path class="st2" d="M61.4,82.7l-0.6-0.5l1.8-2.2l0.6,0.5L61.4,82.7z M63,79.5c0.1-0.1,0.2-0.1,0.3-0.1c0.1,0,0.2,0,0.3,0.1
				c0.1,0.1,0.2,0.2,0.2,0.3s0,0.2-0.1,0.3c-0.1,0.1-0.2,0.1-0.3,0.1c-0.1,0-0.2,0-0.3-0.1C63,80,63,79.9,62.9,79.8
				C62.9,79.7,62.9,79.6,63,79.5z"/>
			<path class="st2" d="M62.9,82.1c0.3-0.3,0.5-0.6,0.9-0.7c0.3-0.1,0.6,0,0.9,0.2c0.2,0.2,0.3,0.4,0.4,0.7l0.8-1.1l0.6,0.4L64,84.7
				l-0.5-0.4l0.2-0.3c-0.3,0.1-0.5,0-0.8-0.2c-0.3-0.2-0.4-0.5-0.4-0.8C62.5,82.8,62.6,82.4,62.9,82.1z M63.5,82.5
				c-0.2,0.2-0.2,0.4-0.2,0.6s0,0.3,0.2,0.4c0.2,0.1,0.4,0.2,0.6,0.1l0.7-0.9c0-0.2,0-0.4-0.2-0.5C64.1,81.9,63.8,82.1,63.5,82.5z"
				/>
			<path class="st2" d="M66.2,84.9l1.4-1.2l0.7,0.4l-2.7,2l-0.1,0.1c-0.3,0.2-0.7,0.2-1,0c-0.1-0.1-0.2-0.1-0.2-0.2l0.3-0.5l0.1,0.1
				c0.1,0.1,0.2,0.1,0.3,0.1s0.2,0,0.3-0.1l0.2-0.1l0.8-2.9l0.7,0.4L66.2,84.9z"/>
			<path class="st2" d="M68.6,87.7c0-0.1,0-0.2,0.1-0.2c-0.3,0.1-0.5,0-0.8-0.1c-0.2-0.1-0.4-0.3-0.5-0.6c-0.1-0.2-0.1-0.4,0.1-0.7
				c0.2-0.2,0.4-0.4,0.6-0.4c0.3,0,0.6,0.1,0.9,0.3l0.3,0.2l0.1-0.1c0.1-0.1,0.1-0.2,0.1-0.3c0-0.1-0.1-0.2-0.2-0.3
				c-0.1-0.1-0.2-0.1-0.3-0.1c-0.1,0-0.2,0.1-0.2,0.2l-0.6-0.4c0.1-0.1,0.2-0.2,0.4-0.3s0.3-0.1,0.5-0.1s0.4,0.1,0.6,0.2
				c0.3,0.2,0.5,0.4,0.6,0.6c0.1,0.2,0,0.5-0.1,0.8l-0.6,1c-0.1,0.2-0.2,0.4-0.2,0.6l0,0L68.6,87.7z M68.3,86.9
				c0.1,0.1,0.2,0.1,0.3,0.1c0.1,0,0.2,0,0.3-0.1l0.2-0.4l-0.2-0.1c-0.3-0.2-0.6-0.2-0.7,0l0,0c-0.1,0.1-0.1,0.2,0,0.2
				S68.2,86.8,68.3,86.9z M70.7,85.1l-1.6-1l0.2-0.4l1.6,1L70.7,85.1z"/>
			<path class="st2" d="M74.3,86.4l0.7,0.3l-1.1,2.4c-0.1,0.2-0.2,0.4-0.4,0.5c-0.2,0.1-0.4,0.2-0.6,0.2c-0.2,0-0.4,0-0.7-0.1
				c-0.4-0.2-0.6-0.4-0.7-0.7c-0.1-0.3-0.1-0.6,0.1-0.9l0.7,0.3c-0.1,0.2-0.1,0.3-0.1,0.4c0,0.1,0.1,0.2,0.3,0.3
				c0.1,0.1,0.3,0.1,0.4,0c0.1-0.1,0.2-0.2,0.3-0.3L74.3,86.4z"/>
			<path class="st2" d="M76,88.1l-0.1,0.3c0.3-0.2,0.6-0.2,0.9-0.1c0.3,0.1,0.5,0.2,0.6,0.4s0.1,0.5,0,0.8l-0.5,1.7l-0.7-0.2
				l0.5-1.7c0.1-0.2,0.1-0.3,0-0.4c-0.1-0.1-0.1-0.2-0.3-0.2c-0.2-0.1-0.4,0-0.5,0.1l-0.6,1.9l-0.7-0.2l0.8-2.7L76,88.1z M77.7,87.4
				c-0.1,0.2-0.2,0.3-0.3,0.4c-0.2,0.1-0.3,0.1-0.4,0.1c-0.1,0-0.1,0-0.2-0.1s-0.1-0.1-0.2-0.2s-0.1-0.1-0.2-0.1c0,0-0.1,0-0.1-0.1
				c-0.1,0-0.1,0-0.2,0s-0.1,0.1-0.1,0.2l-0.4-0.2c0.1-0.2,0.2-0.3,0.3-0.4s0.3-0.1,0.4-0.1c0.1,0,0.1,0,0.1,0.1s0.1,0.1,0.2,0.2
				c0.1,0.1,0.1,0.1,0.2,0.2c0,0,0.1,0,0.1,0.1c0.1,0,0.1,0,0.2,0c0.1,0,0.1-0.1,0.1-0.2L77.7,87.4z"/>
			<path class="st2" d="M79.5,91.8c0-0.1,0-0.2,0-0.3c-0.2,0.2-0.5,0.2-0.7,0.2c-0.3,0-0.5-0.2-0.6-0.3c-0.2-0.2-0.2-0.4-0.2-0.6
				c0.1-0.3,0.2-0.5,0.4-0.6s0.6-0.2,1-0.1l0.3,0.1l0-0.2c0-0.1,0-0.2-0.1-0.3s-0.2-0.1-0.3-0.2c-0.1,0-0.2,0-0.3,0
				c-0.1,0.1-0.1,0.1-0.1,0.2l-0.7-0.1c0-0.2,0.1-0.3,0.2-0.4c0.1-0.1,0.3-0.2,0.5-0.2s0.4-0.1,0.6,0c0.3,0.1,0.6,0.2,0.8,0.4
				s0.2,0.5,0.2,0.8l-0.2,1.2c0,0.3,0,0.5,0,0.6l0,0L79.5,91.8z M80.4,88.5l-1.9-0.3l0.1-0.4l1.9,0.3L80.4,88.5z M78.9,91.2
				c0.1,0,0.2,0,0.3,0s0.2-0.1,0.2-0.2l0.1-0.5l-0.3,0c-0.4-0.1-0.6,0-0.7,0.3l0,0c0,0.1,0,0.2,0.1,0.2
				C78.7,91.1,78.8,91.1,78.9,91.2z"/>
			<path class="st2" d="M81.9,89.2l0,0.3c0.2-0.2,0.5-0.4,0.8-0.3c0.3,0,0.5,0.1,0.7,0.3s0.2,0.4,0.2,0.8l0,1.8l-0.7,0l0-1.8
				c0-0.2,0-0.3-0.1-0.3c-0.1-0.1-0.2-0.1-0.3-0.1c-0.2,0-0.4,0.1-0.5,0.3l-0.1,2l-0.7,0l0.1-2.8L81.9,89.2z"/>
			<path class="st2" d="M86.2,91.8c0-0.1-0.1-0.1-0.1-0.2c-0.2,0.2-0.4,0.3-0.7,0.4c-0.3,0-0.5,0-0.7-0.2c-0.2-0.1-0.3-0.3-0.3-0.6
				c0-0.3,0.1-0.5,0.2-0.7s0.5-0.3,0.9-0.3l0.3,0l0-0.2c0-0.1-0.1-0.2-0.1-0.3s-0.2-0.1-0.3-0.1c-0.1,0-0.2,0.1-0.3,0.1
				s-0.1,0.2-0.1,0.3L84.4,90c0-0.2,0-0.3,0.1-0.5s0.2-0.3,0.4-0.4c0.2-0.1,0.4-0.2,0.6-0.2c0.3,0,0.6,0,0.8,0.2
				c0.2,0.2,0.3,0.4,0.4,0.7l0.1,1.2c0,0.3,0.1,0.5,0.2,0.6v0L86.2,91.8z M85.6,91.3c0.1,0,0.2-0.1,0.3-0.1c0.1-0.1,0.2-0.1,0.2-0.2
				L86,90.5l-0.3,0c-0.4,0-0.6,0.2-0.6,0.4v0c0,0.1,0.1,0.2,0.1,0.2C85.3,91.3,85.4,91.3,85.6,91.3z"/>
			<path class="st2" d="M87.9,88.7L88,89c0.1-0.3,0.3-0.5,0.7-0.6c0.3-0.1,0.6,0,0.8,0.2c0.1-0.3,0.3-0.5,0.7-0.6
				c0.3-0.1,0.5-0.1,0.7,0.1s0.3,0.4,0.4,0.7l0.5,1.7l-0.7,0.2l-0.5-1.7c0-0.2-0.1-0.3-0.2-0.3c-0.1-0.1-0.2-0.1-0.3,0
				c-0.2,0.1-0.3,0.2-0.4,0.4l0.5,1.8l-0.7,0.2l-0.5-1.7c0-0.2-0.1-0.3-0.2-0.3c-0.1-0.1-0.2-0.1-0.3,0c-0.2,0.1-0.3,0.2-0.4,0.4
				l0.5,1.9L88,91.6l-0.8-2.7L87.9,88.7z"/>
			<path class="st2" d="M94.5,87.8l0.6,1.2l-0.7,0.4L92.6,86l1.3-0.7c0.2-0.1,0.5-0.2,0.7-0.2c0.2,0,0.4,0,0.6,0.2s0.3,0.3,0.5,0.5
				c0.2,0.3,0.2,0.6,0.1,0.9c-0.1,0.3-0.4,0.6-0.8,0.8L94.5,87.8z M94.2,87.2l0.6-0.3c0.2-0.1,0.3-0.2,0.3-0.3
				c0.1-0.1,0-0.3-0.1-0.4s-0.2-0.3-0.4-0.3c-0.2-0.1-0.3,0-0.5,0.1l-0.6,0.3L94.2,87.2z"/>
			<path class="st2" d="M97.9,84.9c-0.1,0-0.2,0.1-0.2,0.1c-0.2,0.2-0.3,0.3-0.3,0.5l1,1.6l-0.6,0.4l-1.5-2.4l0.6-0.4L97,85
				c0-0.3,0.1-0.5,0.3-0.7c0.1,0,0.1-0.1,0.2-0.1L97.9,84.9z"/>
			<path class="st2" d="M100.8,85.4c-0.1,0-0.1-0.1-0.2-0.2c0,0.3-0.2,0.5-0.4,0.6c-0.2,0.2-0.5,0.2-0.7,0.2s-0.4-0.1-0.6-0.3
				c-0.2-0.2-0.2-0.5-0.1-0.8c0.1-0.2,0.3-0.5,0.7-0.7l0.3-0.2L99.6,84c-0.1-0.1-0.2-0.2-0.3-0.2s-0.2,0-0.3,0.1
				c-0.1,0.1-0.2,0.2-0.2,0.2c0,0.1,0,0.2,0.1,0.3l-0.6,0.4c-0.1-0.1-0.1-0.3-0.1-0.4c0-0.2,0.1-0.3,0.2-0.5
				c0.1-0.2,0.2-0.3,0.4-0.4c0.3-0.2,0.6-0.3,0.8-0.2s0.5,0.2,0.7,0.4l0.7,1c0.2,0.2,0.3,0.4,0.4,0.4l0,0L100.8,85.4z M100,85.4
				c0.1-0.1,0.2-0.1,0.2-0.2c0.1-0.1,0.1-0.2,0.1-0.3l-0.3-0.4l-0.2,0.2c-0.3,0.2-0.4,0.4-0.3,0.7l0,0c0.1,0.1,0.1,0.1,0.2,0.1
				C99.8,85.5,99.9,85.4,100,85.4z"/>
			<path class="st2" d="M99.9,81.8c-0.1-0.1-0.1-0.2-0.1-0.3s0.1-0.2,0.2-0.3c0.1-0.1,0.2-0.1,0.3-0.1c0.1,0,0.2,0.1,0.2,0.2
				c0.1,0.1,0.1,0.2,0.1,0.3s-0.1,0.2-0.2,0.3c-0.1,0.1-0.2,0.1-0.3,0.1C100.1,81.9,100,81.9,99.9,81.8z M101,81.9l1.7,2.4
				c0.2,0.2,0.3,0.5,0.2,0.7s-0.2,0.4-0.4,0.6c-0.1,0.1-0.2,0.1-0.3,0.2l-0.3-0.5c0.1,0,0.2-0.1,0.2-0.1c0.2-0.1,0.2-0.3,0.1-0.5
				l-1.7-2.4L101,81.9z"/>
			<path class="st2" d="M102.6,79.2c0.1,0.2,0.2,0.3,0.2,0.5s-0.1,0.3-0.2,0.4c-0.1,0-0.1,0.1-0.2,0.1s-0.1,0-0.2,0.1
				s-0.2,0-0.2,0.1c0,0-0.1,0-0.1,0.1c-0.1,0-0.1,0.1-0.1,0.2c0,0.1,0,0.1,0.1,0.2l-0.4,0.2c-0.1-0.2-0.2-0.3-0.2-0.5
				c0-0.2,0.1-0.3,0.2-0.4c0,0,0.1-0.1,0.1-0.1c0,0,0.1,0,0.2-0.1s0.2-0.1,0.2-0.1c0,0,0.1,0,0.1-0.1c0.1,0,0.1-0.1,0.1-0.2
				c0-0.1,0-0.1-0.1-0.2L102.6,79.2z M102.1,81l0.2,0.2c0-0.3,0.1-0.6,0.4-0.8c0.2-0.2,0.5-0.2,0.7-0.2s0.4,0.2,0.7,0.5l1.1,1.4
				l-0.6,0.5l-1.1-1.4c-0.1-0.1-0.2-0.2-0.3-0.2c-0.1,0-0.2,0-0.3,0.1c-0.2,0.1-0.2,0.3-0.2,0.5l1.2,1.6l-0.6,0.5l-1.7-2.2L102.1,81
				z"/>
			<path class="st2" d="M107.1,80.6c-0.1,0-0.1-0.1-0.2-0.2c0,0.3-0.2,0.5-0.4,0.7c-0.2,0.2-0.4,0.2-0.7,0.2c-0.2,0-0.4-0.1-0.6-0.3
				c-0.2-0.2-0.2-0.5-0.1-0.7c0.1-0.3,0.3-0.5,0.6-0.8l0.3-0.2l-0.1-0.1c-0.1-0.1-0.2-0.2-0.3-0.2c-0.1,0-0.2,0-0.3,0.1
				c-0.1,0.1-0.2,0.2-0.2,0.2c0,0.1,0,0.2,0.1,0.3l-0.6,0.4c-0.1-0.1-0.1-0.3-0.1-0.4s0.1-0.3,0.2-0.5c0.1-0.2,0.2-0.3,0.4-0.4
				c0.3-0.2,0.6-0.3,0.8-0.3c0.3,0,0.5,0.2,0.7,0.4l0.7,1c0.2,0.2,0.3,0.4,0.4,0.4l0,0L107.1,80.6z M106.3,80.5
				c0.1-0.1,0.2-0.1,0.2-0.2c0.1-0.1,0.1-0.2,0.1-0.3l-0.3-0.4l-0.2,0.2c-0.3,0.2-0.4,0.4-0.3,0.7l0,0c0.1,0.1,0.1,0.1,0.2,0.1
				C106.1,80.6,106.2,80.6,106.3,80.5z"/>
		</g>
		<path class="st2" d="M75.2,64.4c-0.4,0.2-2.1,1.4-4.3,1.1c-2.3-0.3-3.7-1.6-4.6-3c0-0.1-0.1-0.1-0.1-0.2c1.1,0.5,1.9-0.2,3-1
			c-1.2-0.2-1.5-1.4-1.5-1.4c1.6,0.6,2.8-0.3,2.8-0.3c-4.5,0.7-4.3-2.5-4.3-2.5c1.5,1.6,3.3,1.1,3.3,1.1c-5-1.3-3.8-5.3-3.8-5.3
			c0.2,2.4,3.4,3.3,3.4,3.3c-5.6-4.2-1.7-8.1-1.7-8.1c-1.5,4.6,4.5,7.8,6.1,9.1c2,1.5,2,3,2.1,3c0.6,0.2,1.3-1,0.5-2l0,0l0,0
			c-0.1-0.2-0.3-0.4-0.5-0.5c-0.5-0.4-1.1-0.8-1.7-1.2c-0.6-0.4-1.2-0.8-1.7-1.3c-0.4-0.4-0.8-1-0.9-1.6c-0.2-1,0.3-2,1.2-2.4
			c0.9-0.5,1.8-0.3,2.6,0.3c0.5,0.4,0.9,0.8,1,1.5c0.1,0.3,0,0.6-0.1,0.8c-0.1,0.1-0.2,0.2-0.4,0.3c-0.1,0.1-0.2,0.1-0.2,0.3
			c0,0.3,0.1,0.7,0.2,1c0,0,0,0.1,0,0.1c-0.2,0-0.3-0.1-0.4-0.2C75.1,55,75,54.8,75,54.5c0-0.1,0-0.2-0.1-0.4c0,0,0-0.1-0.1-0.1
			c-0.2-0.3-0.3-0.6-0.3-1c0-0.5-0.1-0.8-0.5-1.1c-0.6-0.4-1.5-0.1-1.7,0.7c-0.2,0.6-0.1,1.1,0.3,1.6c0.4,0.5,0.9,0.8,1.4,1.1
			c0.6,0.4,1.3,0.8,1.9,1.3c0.5,0.3,0.9,0.7,1.2,1.2c0.5,0.7,0.7,1.5,0.6,2.3C77.6,61.9,76.4,63.6,75.2,64.4z"/>
		<g>
			<path class="st1" d="M82.9,10.7c0.2,0,0.5,0,0.7,0L82.9,5l-0.7,5.8C82.4,10.7,82.7,10.7,82.9,10.7z"/>
			<path class="st1" d="M81.4,10.9c0.2,0,0.3-0.1,0.5-0.1l-1.3-2.8l0.3,3C81.1,11,81.3,11,81.4,10.9z"/>
			<path class="st1" d="M80.1,11.5c0.2-0.1,0.4-0.2,0.6-0.3l-3.5-4.7l2.3,5.3C79.7,11.7,79.9,11.6,80.1,11.5z"/>
			<path class="st1" d="M78.9,12.4c0.1-0.1,0.2-0.2,0.4-0.3l-2.5-1.8l1.8,2.5C78.7,12.6,78.8,12.5,78.9,12.4z"/>
			<path class="st1" d="M78,13.6c0.1-0.2,0.2-0.4,0.4-0.6L73,10.7l4.7,3.5C77.8,14,77.9,13.8,78,13.6z"/>
			<path class="st1" d="M77.4,14.9c0-0.2,0.1-0.3,0.2-0.5l-3-0.3l2.8,1.3C77.3,15.3,77.4,15.1,77.4,14.9z"/>
			<path class="st1" d="M88.4,14.9c0,0.2,0.1,0.3,0.1,0.5l2.8-1.3l-3,0.3C88.3,14.6,88.4,14.8,88.4,14.9z"/>
			<path class="st1" d="M87.8,13.6c0.1,0.2,0.2,0.4,0.3,0.6l4.7-3.5L87.5,13C87.6,13.2,87.7,13.4,87.8,13.6z"/>
			<path class="st1" d="M86.9,12.4c0.1,0.1,0.2,0.2,0.3,0.4l1.8-2.5L86.5,12C86.7,12.1,86.8,12.3,86.9,12.4z"/>
			<path class="st1" d="M85.8,11.5c0.2,0.1,0.4,0.2,0.6,0.4l2.3-5.3l-3.5,4.7C85.3,11.3,85.6,11.4,85.8,11.5z"/>
			<path class="st1" d="M84.4,10.9c0.2,0,0.3,0.1,0.5,0.1l0.3-3l-1.3,2.8C84.1,10.8,84.2,10.9,84.4,10.9z"/>
		</g>
		<path class="st1" d="M88.6,15.8c0,0.2,0,0.4,0,0.6s0,0.4,0,0.6h15.3v-1.3L88.6,15.8L88.6,15.8z"/>
		<path class="st1" d="M77.2,16.4c0-0.2,0-0.4,0-0.6H62.6V17h14.7C77.2,16.8,77.2,16.6,77.2,16.4z"/>
		<path class="st3" d="M96.7,70c-0.7,0.4-1.4,0.8-2.8,0.8s-2.1-0.4-2.8-0.8c-0.6-0.4-1.2-0.7-2.5-0.7c-1.2,0-1.8,0.3-2.5,0.7
			c-0.7,0.4-1.4,0.8-2.8,0.8s-2.1-0.4-2.8-0.8c-0.6-0.4-1.2-0.7-2.5-0.7c-1.2,0-1.8,0.3-2.5,0.7c-0.7,0.4-1.4,0.8-2.8,0.8
			s-2.1-0.4-2.8-0.8c-0.6-0.4-1.2-0.7-2.5-0.7c-0.7,0-1.2,0.1-1.7,0.3c0.9,0.8,1.9,1.4,3,2l3,1.6c0.3,0.1,0.6,0.1,1,0.1
			c1.2,0,1.8-0.3,2.5-0.7c0.7-0.4,1.4-0.8,2.8-0.8s2.1,0.4,2.8,0.8c0.6,0.4,1.2,0.7,2.5,0.7c1.2,0,1.8-0.3,2.5-0.7
			c0.7-0.4,1.4-0.8,2.8-0.8s2.1,0.4,2.8,0.8c0.6,0.4,1.2,0.7,2.5,0.7c0.3,0,0.5,0,0.8-0.1l3.1-1.7c1.1-0.6,2.1-1.3,3-2.1
			c-0.4-0.1-0.9-0.2-1.6-0.2C97.9,69.2,97.3,69.6,96.7,70z"/>
		<path class="st3" d="M88.6,72.3c-1.2,0-1.8,0.3-2.5,0.7c-0.7,0.4-1.4,0.8-2.8,0.8s-2.1-0.4-2.8-0.8c-0.6-0.4-1.2-0.7-2.5-0.7
			c-1.2,0-1.8,0.3-2.5,0.7c-0.6,0.4-1.3,0.7-2.5,0.8l2.9,1.6c0.5-0.2,1.2-0.4,2.1-0.4c1.4,0,2.1,0.4,2.8,0.8
			c0.6,0.4,1.2,0.7,2.5,0.7c1.2,0,1.8-0.3,2.5-0.7c0.7-0.4,1.4-0.8,2.8-0.8c0.9,0,1.5,0.2,2,0.4l2.8-1.5c-1.1-0.1-1.8-0.4-2.4-0.8
			C90.4,72.7,89.8,72.3,88.6,72.3z"/>
		<path class="st3" d="M86.1,76.3c-0.7,0.4-1.4,0.8-2.8,0.8s-2.1-0.4-2.8-0.8c-0.6-0.4-1.2-0.7-2.5-0.7c-0.6,0-1.1,0.1-1.4,0.2
			l6.6,3.6l6.7-3.6c-0.3-0.1-0.8-0.2-1.3-0.2C87.3,75.6,86.7,75.9,86.1,76.3z"/>
		<path class="st3" d="M101.1,21.9H83.2h0V46H59.6v10.2c0,5,2.1,9.6,5.7,12.9c0.5-0.2,1.2-0.4,2.1-0.4c1.4,0,2.1,0.4,2.8,0.8
			c0.6,0.4,1.2,0.7,2.5,0.7c1.2,0,1.8-0.3,2.5-0.7c0.7-0.4,1.4-0.8,2.8-0.8s2.1,0.4,2.8,0.8c0.6,0.4,1.2,0.7,2.5,0.7
			c1.2,0,1.8-0.3,2.5-0.7c0.7-0.4,1.4-0.8,2.8-0.8s2.1,0.4,2.8,0.8c0.6,0.4,1.2,0.7,2.5,0.7s1.8-0.3,2.5-0.7
			c0.7-0.4,1.4-0.8,2.8-0.8c0.9,0,1.6,0.2,2,0.4c3.5-3.2,5.6-7.9,5.6-12.8V27.7C104.2,26.7,102,24.6,101.1,21.9z"/>
		<path class="st1" d="M83.2,21.9H65.4c-0.9,2.7-3.1,4.8-5.8,5.7V46h23.6V21.9z"/>
		<path class="st3" d="M86.1,76.3c-0.7,0.4-1.4,0.8-2.8,0.8s-2.1-0.4-2.8-0.8c-0.6-0.4-1.2-0.7-2.5-0.7c-0.6,0-1.1,0.1-1.4,0.2
			l6.6,3.6l6.7-3.6c-0.3-0.1-0.8-0.2-1.3-0.2C87.3,75.6,86.7,75.9,86.1,76.3z"/>
		<path class="st3" d="M88.6,72.3c-1.2,0-1.8,0.3-2.5,0.7c-0.7,0.4-1.4,0.8-2.8,0.8s-2.1-0.4-2.8-0.8c-0.6-0.4-1.2-0.7-2.5-0.7
			c-1.2,0-1.8,0.3-2.5,0.7c-0.6,0.4-1.3,0.7-2.5,0.8l2.9,1.6c0.5-0.2,1.2-0.4,2.1-0.4c1.4,0,2.1,0.4,2.8,0.8
			c0.6,0.4,1.2,0.7,2.5,0.7c1.2,0,1.8-0.3,2.5-0.7c0.7-0.4,1.4-0.8,2.8-0.8c0.9,0,1.5,0.2,2,0.4l2.8-1.5c-1.1-0.1-1.8-0.4-2.4-0.8
			C90.4,72.7,89.8,72.3,88.6,72.3z"/>
		<path class="st3" d="M106.8,46V27.7c-2.7-0.9-4.8-3.1-5.8-5.7H83.2h0H65.4c-0.9,2.7-3.1,4.8-5.8,5.7V46v10.2c0,5,2.1,9.6,5.7,12.9
			c0.5-0.2,1.2-0.4,2.1-0.4c1.4,0,2.1,0.4,2.8,0.8c0.6,0.4,1.2,0.7,2.5,0.7c1.2,0,1.8-0.3,2.5-0.7c0.7-0.4,1.4-0.8,2.8-0.8
			s2.1,0.4,2.8,0.8c0.6,0.4,1.2,0.7,2.4,0.7V46H106.8z"/>
		<path class="st3" d="M71.8,73.2c0.3,0.1,0.6,0.1,1,0.1c1.2,0,1.8-0.3,2.5-0.7c0.7-0.4,1.4-0.8,2.8-0.8s2.1,0.4,2.8,0.8
			c0.6,0.4,1.2,0.7,2.5,0.7c1.2,0,1.8-0.3,2.5-0.7c0.7-0.4,1.4-0.8,2.8-0.8s2.1,0.4,2.8,0.8c0.6,0.4,1.2,0.7,2.5,0.7
			c0.3,0,0.5,0,0.8-0.1l3.1-1.7c1.1-0.6,2.1-1.3,3-2.1c-0.4-0.1-0.9-0.2-1.6-0.2c-1.2,0-1.8,0.3-2.5,0.7c-0.7,0.4-1.4,0.8-2.8,0.8
			s-2.1-0.4-2.8-0.8c-0.6-0.4-1.2-0.7-2.5-0.7c-1.2,0-1.8,0.3-2.5,0.7c-0.7,0.4-1.4,0.8-2.8,0.8s-2.1-0.4-2.8-0.8
			c-0.6-0.4-1.2-0.7-2.5-0.7c-1.2,0-1.8,0.3-2.5,0.7c-0.7,0.4-1.4,0.8-2.8,0.8s-2.1-0.4-2.8-0.8c-0.6-0.4-1.2-0.7-2.5-0.7
			c-0.7,0-1.2,0.1-1.7,0.3c0.9,0.8,1.9,1.4,3,2L71.8,73.2z"/>
		<path class="st1" d="M85.8,69.4c0.7-0.4,1.4-0.8,2.8-0.8s2.1,0.4,2.8,0.8c0.6,0.4,1.2,0.7,2.5,0.7s1.8-0.3,2.5-0.7
			c0.7-0.4,1.4-0.8,2.8-0.8c0.9,0,1.6,0.2,2,0.4c3.5-3.2,5.6-7.9,5.6-12.8V46H83.2v24.1c0,0,0.1,0,0.1,0
			C84.6,70.2,85.2,69.8,85.8,69.4z"/>
		<path class="st1" d="M102.8,69.3C102.8,69.3,102.7,69.3,102.8,69.3C102.7,69.3,102.8,69.3,102.8,69.3z"/>
		<path class="st2" d="M102,20.6H83.2H64.4c-0.7,3-3,5.4-6.1,6.1v29.5c0,6.9,3.8,13.2,9.8,16.4l15.1,8.1l15.1-8.1
			c1.4-0.7,2.6-1.7,3.8-2.7l0,0c0.2-0.2,0.5-0.4,0.7-0.7c0,0,0,0,0,0c0.9-0.9,1.6-1.8,2.3-2.9c0-0.1,0.1-0.1,0.1-0.2
			c0.1-0.2,0.3-0.4,0.4-0.7c0-0.1,0.1-0.2,0.1-0.2c0.2-0.4,0.4-0.8,0.6-1.3c0.1-0.1,0.1-0.2,0.1-0.3c0.1-0.2,0.2-0.4,0.2-0.6
			c0.1-0.2,0.1-0.3,0.2-0.5c0.1-0.2,0.1-0.3,0.2-0.5c0.1-0.2,0.1-0.4,0.2-0.6c0.1-0.2,0.1-0.3,0.1-0.5c0.1-0.3,0.2-0.7,0.2-1
			c0-0.1,0-0.2,0.1-0.3c0.1-0.3,0.1-0.5,0.1-0.8c0-0.1,0-0.3,0.1-0.4c0-0.3,0.1-0.5,0.1-0.8c0-0.1,0-0.2,0-0.4c0-0.4,0-0.8,0-1.2V46
			V26.7C105.1,26,102.7,23.7,102,20.6z M83.2,79.3l-6.6-3.6c0.4-0.1,0.8-0.2,1.4-0.2c1.2,0,1.8,0.3,2.5,0.7c0.7,0.4,1.4,0.8,2.8,0.8
			s2.1-0.4,2.8-0.8c0.6-0.4,1.2-0.7,2.5-0.7c0.6,0,1,0.1,1.3,0.2L83.2,79.3z M90.6,75.4c-0.5-0.2-1.1-0.4-2-0.4
			c-1.4,0-2.1,0.4-2.8,0.8c-0.6,0.4-1.2,0.7-2.5,0.7c-1.2,0-1.8-0.3-2.5-0.7C80.1,75.4,79.4,75,78,75c-1,0-1.6,0.2-2.1,0.4L73,73.9
			c1.2-0.1,1.9-0.4,2.5-0.8c0.6-0.4,1.2-0.7,2.5-0.7s1.8,0.3,2.5,0.7c0.7,0.4,1.4,0.8,2.8,0.8s2.1-0.4,2.8-0.8
			c0.6-0.4,1.2-0.7,2.5-0.7c1.2,0,1.8,0.3,2.5,0.7c0.6,0.3,1.2,0.7,2.4,0.8L90.6,75.4z M97.7,71.6l-3.1,1.7c-0.2,0-0.5,0.1-0.8,0.1
			c-1.2,0-1.8-0.3-2.5-0.7c-0.7-0.4-1.4-0.8-2.8-0.8s-2.1,0.4-2.8,0.8c-0.6,0.4-1.2,0.7-2.5,0.7c-1.2,0-1.8-0.3-2.5-0.7
			c-0.7-0.4-1.4-0.8-2.8-0.8s-2.1,0.4-2.8,0.8c-0.6,0.4-1.2,0.7-2.5,0.7c-0.4,0-0.7,0-1-0.1l-3-1.6c-1.1-0.6-2.1-1.3-3-2
			c0.4-0.2,0.9-0.3,1.7-0.3c1.2,0,1.8,0.3,2.5,0.7c0.7,0.4,1.4,0.8,2.8,0.8s2.1-0.4,2.8-0.8c0.6-0.4,1.2-0.7,2.5-0.7
			c1.2,0,1.8,0.3,2.5,0.7c0.7,0.4,1.4,0.8,2.8,0.8s2.1-0.4,2.8-0.8c0.6-0.4,1.2-0.7,2.5-0.7c1.2,0,1.8,0.3,2.5,0.7
			c0.7,0.4,1.4,0.8,2.8,0.8s2.1-0.4,2.8-0.8c0.6-0.4,1.2-0.7,2.5-0.7c0.7,0,1.2,0.1,1.6,0.2C99.8,70.3,98.8,71,97.7,71.6z
			 M106.8,56.2c0,4.9-2.1,9.6-5.6,12.8c-0.5-0.2-1.1-0.4-2-0.4c-1.4,0-2.1,0.4-2.8,0.8c-0.6,0.4-1.2,0.7-2.5,0.7s-1.8-0.3-2.5-0.7
			c-0.7-0.4-1.4-0.8-2.8-0.8s-2.1,0.4-2.8,0.8c-0.6,0.4-1.2,0.7-2.5,0.7c0,0-0.1,0-0.1,0c-1.2,0-1.8-0.4-2.4-0.7
			c-0.7-0.4-1.4-0.8-2.8-0.8s-2.1,0.4-2.8,0.8c-0.6,0.4-1.2,0.7-2.5,0.7c-1.2,0-1.8-0.3-2.5-0.7c-0.7-0.4-1.4-0.8-2.8-0.8
			c-1,0-1.6,0.2-2.1,0.4c-3.6-3.2-5.7-7.9-5.7-12.9V46V27.7c2.7-0.9,4.8-3.1,5.8-5.7h17.8h0h17.9c0.9,2.7,3.1,4.8,5.8,5.7V46
			L106.8,56.2L106.8,56.2z"/>
		<path class="st1" d="M82.9,12c-2.4,0-4.4,1.9-4.4,4.4c0,0.2,0,0.5,0.1,0.7h8.6c0-0.2,0.1-0.4,0.1-0.7C87.3,14,85.3,12,82.9,12z"/>
		<g>
			<g>
				<path class="st2" d="M93.5,59.1c-1.1-0.9-1.3-2.1-1.3-3.2c0-1.2-0.3-1.5-1.2-2c-0.6-0.3-1.3-0.7-1.9-1c-0.4,1.2-0.6,2.4,0.2,3.5
					c0.4,0.6,0.9,1.1,1.4,1.5l0,0C91.9,58.8,93.5,59.1,93.5,59.1z"/>
			</g>
			<g>
				<g>
					<path class="st2" d="M90.3,58.4c-0.1,0-0.1-0.1-0.2-0.1c-0.6-0.4-1.1-0.5-1.8-0.3c-0.9,0.3-1.7,1-2.4,1.7
						c0.5,0.2,1,0.4,1.5,0.7c0.4,0.2,0.9,0.5,1.3,0.7c0.9,0.4,1.7,0.5,2.6,0c0.5-0.3,1-0.6,1.4-0.9l0,0c0.6-0.3,1.1-0.7,1.2-0.7
						c0,0-0.1,0-0.4,0C92,59.6,90.4,58.5,90.3,58.4z"/>
				</g>
				<g>
					<path class="st2" d="M94.2,59.5C94.2,59.5,94.2,59.5,94.2,59.5L94.2,59.5z"/>
				</g>
			</g>
			<g>
				<path class="st2" d="M96.4,59.1c1.1-0.9,1.3-2.1,1.3-3.2c0-1.2,0.3-1.5,1.2-2c0.6-0.3,1.3-0.7,1.9-1c0.4,1.2,0.6,2.4-0.2,3.5
					c-0.4,0.6-0.9,1.1-1.4,1.5l0,0C98,58.8,96.4,59.1,96.4,59.1z"/>
			</g>
			<g>
				<g>
					<path class="st2" d="M99.6,58.4c0.1,0,0.1-0.1,0.2-0.1c0.6-0.4,1.1-0.5,1.8-0.3c0.9,0.3,1.7,1,2.4,1.7c-0.5,0.2-1,0.4-1.5,0.7
						c-0.4,0.2-0.9,0.5-1.3,0.7c-0.9,0.4-1.7,0.5-2.6,0c-0.5-0.3-1-0.6-1.4-0.9l0,0C96.6,60,96,59.5,96,59.5c0,0,0.1,0,0.4,0
						C97.9,59.6,99.4,58.5,99.6,58.4z"/>
				</g>
				<g>
					<path class="st2" d="M95.7,59.5L95.7,59.5L95.7,59.5z"/>
				</g>
			</g>
			<g>
				<path class="st2" d="M96.3,54.1c-0.4-0.8-0.9-1.5-1.3-2.3l0,0l0,0l0,0l0,0c-0.5,0.8-0.9,1.6-1.3,2.3c-1.3,2.3-0.5,4,1,5.2l0,0
					l0.3,0.3l0,0l0,0l0,0l0,0l0.3-0.3l0,0C96.8,58,97.6,56.3,96.3,54.1z"/>
			</g>
			<g>
				<path class="st2" d="M96.4,60.9c-0.4-0.2-0.8-0.3-1.3-0.5l-0.2-0.1l0,0l0,0l0,0l0,0l-0.2,0.1c-0.4,0.2-0.9,0.3-1.3,0.5
					c-0.6,0.2-1,0.7-1,1.4c0,0.5,0.2,0.9,0.5,1.1c0,0,1.3,1.3,1.9,1.8c0,0,0,0,0,0c0,0,0,0,0,0c0.6-0.6,1.9-1.8,1.9-1.8
					c0.3-0.3,0.5-0.7,0.5-1.1C97.4,61.6,97,61.1,96.4,60.9z"/>
			</g>
		</g>
		<path class="st4" d="M78.9,34.4C78.9,34.4,78.9,34.4,78.9,34.4c0-0.1,0-0.1,0-0.1c0-1-0.2-1.9-0.6-2.8c0,0,0,0,0,0c0,0,0,0,0,0
			c-0.4-1-1-1.9-1.8-2.7c0,0,0,0,0,0c0,0,0,0,0,0c-0.7-0.6-1.5-1.2-2.3-1.6c0,0,0,0,0,0c0,0,0,0,0,0c-1-0.4-2-0.6-3.1-0.6
			c0,0,0,0,0,0c0,0,0,0,0,0c-1,0-2,0.2-2.9,0.6c0,0,0,0-0.1,0c0,0,0,0,0,0c-1,0.4-1.9,1-2.7,1.8c0,0,0,0,0,0c0,0,0,0,0,0
			c-0.7,0.7-1.2,1.5-1.6,2.4l0,0c0,0,0,0,0,0c-0.4,1-0.6,2-0.6,3.1c0,0,0,0,0,0.1c0,0,0,0,0,0c0,0,0,0,0,0.1c0,1,0.2,1.9,0.5,2.8
			c0,0,0,0,0,0c0,0,0,0,0,0c0.4,1,1,1.9,1.8,2.7l0,0c0,0,0,0,0,0c0.7,0.7,1.5,1.2,2.3,1.6c0,0,0,0,0,0h0c1,0.4,2,0.7,3.2,0.7
			c1,0,2-0.2,2.9-0.6c0,0,0,0,0.1,0c0,0,0,0,0,0c1-0.4,1.9-1,2.7-1.8l0,0c0,0,0,0,0,0c0.7-0.7,1.2-1.5,1.6-2.4c0,0,0,0,0,0l0,0
			C78.7,36.6,78.9,35.5,78.9,34.4C78.9,34.5,78.9,34.4,78.9,34.4z M77.9,32.3c0.1,0.5,0.2,0.9,0.3,1.4c-0.3,0-0.6,0.3-0.6,0.6
			l-3.1-0.3l-2.2,0.2c0,0,0,0,0,0l-0.1,0c0,0,0-0.1,0-0.1l2.2-0.7l2.8-1.4C77.4,32.3,77.7,32.4,77.9,32.3z M76.5,29.7
			c0.4,0.4,0.7,0.9,1,1.4c-0.3,0.1-0.4,0.5-0.3,0.7l-3,0.9l-2,1c0,0,0,0,0,0l-0.1,0c0,0-0.1-0.1-0.1-0.1l1.7-1.5l2-2.4
			C76,29.9,76.3,29.9,76.5,29.7z M74.5,28.1c0.4,0.2,0.8,0.5,1.1,0.8c-0.2,0.2-0.2,0.6,0,0.8l-2.4,2l-1.4,1.7c0,0,0,0,0,0l0,0
			c-0.1,0-0.1-0.1-0.2-0.1l0,0l0.1,0l1.1-2l0.9-3C74,28.5,74.3,28.4,74.5,28.1z M71.6,27.2c0.6,0,1.1,0.2,1.7,0.4
			c-0.1,0.3,0,0.5,0.2,0.7L72.1,31l-0.7,2.2l0.1,0l0.1,0c-0.1,0-0.2-0.1-0.3-0.1l0.2-2.3l-0.3-3.1C71.4,27.8,71.6,27.5,71.6,27.2z
			 M68.9,27.5c0.5-0.1,1-0.2,1.5-0.3c0,0.3,0.3,0.5,0.6,0.5l-0.3,3.1l0.2,2.2c0,0,0,0,0,0l0,0.1c-0.1,0-0.1,0-0.2,0l0,0l0.1,0L70,31
			l-1.4-2.8C68.8,28.1,68.9,27.8,68.9,27.5z M67.7,28c0.1,0.3,0.4,0.4,0.7,0.3l0.9,3l1,2l0.1,0l0,0l0,0c-0.1,0-0.2,0.1-0.3,0.2l0,0
			l0,0l0,0l-1.5-1.7l-2.4-2c0.2-0.2,0.2-0.5,0-0.8C66.7,28.6,67.2,28.3,67.7,28z M65.4,29.9c0.2,0.2,0.6,0.2,0.8,0l2,2.4l1.8,1.4
			l0,0l0,0l0,0c-0.1,0.1-0.1,0.2-0.2,0.3l0,0l0,0l-2-1.1l-3-1c0.1-0.3,0-0.6-0.3-0.7C64.8,30.6,65.1,30.2,65.4,29.9z M64.1,32.2
			c0.3,0.1,0.6,0,0.7-0.3l2.8,1.5l2.2,0.7l0-0.1l0,0c0,0.1-0.1,0.2-0.1,0.4v0l0-0.1l-2.3-0.2l-3.1,0.3c-0.1-0.2-0.3-0.4-0.5-0.5
			C63.8,33.3,63.9,32.8,64.1,32.2z M64,36.6c-0.1-0.5-0.2-0.9-0.3-1.4c0.3,0,0.6-0.3,0.6-0.6l3.1,0.3l2.3-0.2l0-0.1v-0.1
			c0,0.1,0,0.2,0.1,0.3l0,0l0,0l0,0l-2.2,0.7l-2.8,1.4C64.6,36.6,64.3,36.5,64,36.6z M65.5,39.2c-0.4-0.4-0.7-0.9-1-1.4
			c0.3-0.1,0.4-0.4,0.3-0.7l3-0.9l2-1l0,0l0,0c0.1,0.1,0.1,0.2,0.2,0.3l0,0l0,0l0,0l-1.7,1.5l-2,2.4C66,39,65.7,39,65.5,39.2z
			 M67.5,40.9c-0.4-0.2-0.8-0.5-1.1-0.8c0.2-0.2,0.2-0.6,0-0.8l2.4-2l1.4-1.8l0,0l0,0l0,0c0.1,0.1,0.1,0.1,0.2,0.2l-1.1,2l-1,3
			C68,40.5,67.7,40.6,67.5,40.9z M70.3,41.7c-0.6,0-1.1-0.2-1.7-0.3c0.1-0.3,0-0.5-0.2-0.7l1.5-2.8l0.7-2.1h0l0-0.1
			c0.1,0,0.2,0,0.2,0h0l0,0h-0.1L70.6,38l0.3,3.1C70.6,41.2,70.4,41.4,70.3,41.7z M73.1,41.4c-0.5,0.1-1,0.2-1.5,0.3
			c0-0.3-0.3-0.5-0.6-0.5l0.3-3.1l-0.2-2.3l-0.1,0h-0.1c0.1,0,0.2,0,0.3,0l0.7,2.2l1.4,2.8C73.2,40.9,73,41.2,73.1,41.4z M74.3,40.9
			c-0.1-0.3-0.4-0.4-0.7-0.3l-0.9-3l-1-2c0,0,0,0,0,0l0,0l0,0c0.1,0,0.1-0.1,0.1-0.1l1.5,1.7l2.4,2c-0.2,0.2-0.2,0.5,0,0.8
			C75.3,40.3,74.8,40.7,74.3,40.9z M76.6,39.1c-0.2-0.2-0.6-0.2-0.8,0l-2-2.4l-1.7-1.4l0,0l0,0l0,0c0,0,0-0.1,0.1-0.1l2,1.1l3,1
			c-0.1,0.3,0,0.6,0.3,0.7C77.2,38.3,76.9,38.7,76.6,39.1z M77.9,36.7c-0.3-0.1-0.6,0-0.7,0.3l-2.8-1.5l-2.1-0.7c0,0,0,0,0,0l-0.1,0
			c0,0,0-0.1,0-0.2l2.3,0.2h0l3.1-0.3c0.1,0.2,0.3,0.4,0.5,0.5C78.2,35.6,78.1,36.2,77.9,36.7z"/>
	</g>
	<g>
		<g>
			<g>
				<path class="st0" d="M201.2,65.4l1.1-1.3c0.8,0.6,1.6,1,2.5,1c0.8,0,1.2-0.3,1.2-0.8v0c0-0.5-0.3-0.7-1.7-1.1
					c-1.7-0.4-2.8-0.9-2.8-2.6v0c0-1.5,1.2-2.6,3-2.6c1.2,0,2.3,0.4,3.2,1.1l-1,1.4c-0.8-0.5-1.5-0.8-2.2-0.8
					c-0.7,0-1.1,0.3-1.1,0.7v0c0,0.6,0.4,0.7,1.8,1.1c1.7,0.5,2.7,1.1,2.7,2.6v0c0,1.7-1.3,2.6-3.1,2.6
					C203.6,66.8,202.3,66.3,201.2,65.4z"/>
				<path class="st0" d="M209,62.4L209,62.4c0-2.4,1.8-4.4,4.4-4.4c1.6,0,2.6,0.5,3.4,1.3l-1.2,1.4c-0.7-0.6-1.3-1-2.2-1
					c-1.4,0-2.5,1.2-2.5,2.7v0c0,1.5,1,2.7,2.5,2.7c1,0,1.6-0.4,2.2-1l1.2,1.2c-0.9,0.9-1.9,1.5-3.5,1.5
					C210.9,66.8,209,64.9,209,62.4z"/>
				<path class="st0" d="M218.1,58.1h1.9v3.4h3.5v-3.4h1.9v8.5h-1.9v-3.4H220v3.4h-1.9V58.1z"/>
				<path class="st0" d="M226.7,62.4L226.7,62.4c0-2.4,1.9-4.4,4.5-4.4c2.6,0,4.5,2,4.5,4.4v0c0,2.4-1.9,4.4-4.5,4.4
					C228.6,66.8,226.7,64.8,226.7,62.4z M233.8,62.4L233.8,62.4c0-1.5-1.1-2.7-2.6-2.7s-2.6,1.2-2.6,2.7v0c0,1.5,1.1,2.7,2.6,2.7
					C232.8,65.1,233.8,63.9,233.8,62.4z"/>
				<path class="st0" d="M236.8,62.4L236.8,62.4c0-2.4,1.9-4.4,4.5-4.4c2.6,0,4.5,2,4.5,4.4v0c0,2.4-1.9,4.4-4.5,4.4
					C238.7,66.8,236.8,64.8,236.8,62.4z M243.9,62.4L243.9,62.4c0-1.5-1.1-2.7-2.6-2.7s-2.6,1.2-2.6,2.7v0c0,1.5,1.1,2.7,2.6,2.7
					C242.9,65.1,243.9,63.9,243.9,62.4z"/>
				<path class="st0" d="M247.3,58.1h1.9v6.8h4.2v1.7h-6.1V58.1z"/>
			</g>
			<g>
				<path class="st0" d="M146,62.4L146,62.4c0-2.4,1.9-4.4,4.5-4.4c1.5,0,2.5,0.4,3.4,1.2l-1.2,1.4c-0.7-0.5-1.2-0.9-2.2-0.9
					c-1.4,0-2.4,1.2-2.4,2.7v0c0,1.6,1.1,2.7,2.6,2.7c0.7,0,1.3-0.2,1.8-0.5v-1.2h-1.9v-1.6h3.7v3.7c-0.9,0.7-2.1,1.3-3.6,1.3
					C147.9,66.8,146,64.9,146,62.4z"/>
				<path class="st0" d="M155.7,58.1h1.9v6.8h4.2v1.7h-6.1V58.1z"/>
				<path class="st0" d="M162.1,62.4L162.1,62.4c0-2.4,1.9-4.4,4.5-4.4c2.6,0,4.5,2,4.5,4.4v0c0,2.4-1.9,4.4-4.5,4.4
					C164,66.8,162.1,64.8,162.1,62.4z M169.2,62.4L169.2,62.4c0-1.5-1.1-2.7-2.6-2.7s-2.6,1.2-2.6,2.7v0c0,1.5,1.1,2.7,2.6,2.7
					C168.2,65.1,169.2,63.9,169.2,62.4z"/>
				<path class="st0" d="M172.6,58.1h3.9c1,0,1.7,0.3,2.2,0.8c0.4,0.4,0.6,0.9,0.6,1.5v0c0,1-0.5,1.5-1.1,1.8c1,0.4,1.6,1,1.6,2.1v0
					c0,1.6-1.3,2.3-3.2,2.3h-4.1L172.6,58.1L172.6,58.1z M177.5,60.7c0-0.6-0.4-0.9-1.2-0.9h-1.9v1.8h1.7
					C177,61.6,177.5,61.3,177.5,60.7L177.5,60.7z M176.6,63.1h-2.2V65h2.2c0.8,0,1.3-0.3,1.3-0.9v0C178,63.5,177.6,63.1,176.6,63.1z
					"/>
				<path class="st0" d="M184.1,58.1h1.7l3.6,8.6h-2l-0.8-1.9h-3.6l-0.8,1.9h-1.9L184.1,58.1z M186.1,63.1l-1.1-2.8l-1.1,2.8H186.1z
					"/>
				<path class="st0" d="M190.5,58.1h1.9v6.8h4.2v1.7h-6.1V58.1z"/>
			</g>
		</g>
		<g>
			<g>
				<path class="st0" d="M132.8,38.1h3l3.3,5.3l3.3-5.3h3v12.7h-2.8v-8.3l-3.6,5.4h-0.1l-3.5-5.3v8.2h-2.7V38.1z"/>
				<path class="st0" d="M152.5,38h2.6l5.4,12.8h-2.9l-1.2-2.8h-5.4l-1.2,2.8h-2.8L152.5,38z M155.4,45.5l-1.7-4.1l-1.7,4.1H155.4z"
					/>
				<path class="st0" d="M162.1,38.1h2.6l5.9,7.8v-7.8h2.8v12.7H171l-6.1-8v8h-2.8V38.1z"/>
				<path class="st0" d="M175.5,44.5L175.5,44.5c0-3.6,2.7-6.6,6.6-6.6c2.4,0,3.8,0.8,5,2l-1.8,2c-1-0.9-2-1.4-3.2-1.4
					c-2.1,0-3.7,1.8-3.7,3.9v0c0,2.2,1.5,4,3.7,4c1.4,0,2.3-0.6,3.3-1.5l1.8,1.8c-1.3,1.4-2.8,2.3-5.2,2.3
					C178.2,51,175.5,48.1,175.5,44.5z"/>
				<path class="st0" d="M189,38.1h2.8v5h5.1v-5h2.8v12.7h-2.8v-5.1h-5.1v5.1H189V38.1z"/>
				<path class="st0" d="M202.4,38.1h9.6v2.5h-6.8v2.6h6v2.5h-6v2.7h6.9v2.5h-9.6V38.1z"/>
				<path class="st0" d="M213.3,48.9l1.6-2c1.1,0.9,2.3,1.5,3.8,1.5c1.1,0,1.8-0.5,1.8-1.2v0c0-0.7-0.4-1.1-2.6-1.6
					c-2.6-0.7-4.2-1.4-4.2-3.9v0c0-2.3,1.8-3.8,4.4-3.8c1.8,0,3.4,0.6,4.7,1.6l-1.4,2.1c-1.1-0.8-2.2-1.2-3.3-1.2s-1.6,0.5-1.6,1.1
					v0c0,0.8,0.5,1.1,2.7,1.7c2.6,0.7,4,1.6,4,3.8v0c0,2.5-1.9,3.9-4.6,3.9C216.7,51,214.8,50.3,213.3,48.9z"/>
				<path class="st0" d="M228.1,40.7h-3.9v-2.6h10.5v2.6h-3.9v10.1h-2.8V40.7z"/>
				<path class="st0" d="M236.5,38.1h9.6v2.5h-6.8v2.6h6v2.5h-6v2.7h6.9v2.5h-9.6V38.1z"/>
				<path class="st0" d="M248.2,38.1h5.8c1.6,0,2.9,0.5,3.7,1.3c0.7,0.7,1.1,1.7,1.1,2.9v0c0,2-1.1,3.3-2.7,3.9l3.1,4.5h-3.3l-2.7-4
					H251v4h-2.8V38.1z M253.8,44.3c1.4,0,2.1-0.7,2.1-1.8v0c0-1.2-0.8-1.8-2.2-1.8H251v3.6C251,44.3,253.8,44.3,253.8,44.3z"/>
			</g>
		</g>
	</g>
</g>
</svg>
