<?xml version="1.0" encoding="utf-8"?>
<!-- Generator: Adobe Illustrator 27.6.1, SVG Export Plug-In . SVG Version: 6.00 Build 0)  -->
<svg version="1.1" id="Layer_1" xmlns="http://www.w3.org/2000/svg" xmlns:xlink="http://www.w3.org/1999/xlink" x="0px" y="0px"
	 viewBox="0 0 135 88" style="enable-background:new 0 0 135 88;" xml:space="preserve">
<style type="text/css">
	.st0{fill:#FFFFFF;}
	.st1{fill:#1C3564;}
	.st2{fill:#A87D4B;}
	.st3{fill:none;}
	.st4{fill-rule:evenodd;clip-rule:evenodd;fill:#FFFFFF;}
</style>
<g>
	<rect x="-190.55" y="51.37" class="st0" width="135" height="127.26"/>
	<g>
		<path class="st1" d="M43.25,35.09h2.12l2.34,3.77l2.34-3.77h2.12v8.92h-1.95v-5.82L47.71,42h-0.05l-2.48-3.77v5.79h-1.92V35.09z"
			/>
		<path class="st1" d="M57.11,35.03h1.81l3.82,8.98H60.7l-0.82-2h-3.77l-0.82,2h-2L57.11,35.03z M59.18,40.28l-1.19-2.89l-1.19,2.89
			H59.18z"/>
		<path class="st1" d="M63.87,35.09h1.81l4.18,5.49v-5.49h1.94v8.92h-1.67l-4.32-5.67v5.67h-1.94V35.09z"/>
		<path class="st1" d="M73.28,39.58v-0.03c0-2.54,1.91-4.61,4.65-4.61c1.68,0,2.69,0.56,3.52,1.38l-1.25,1.44
			c-0.69-0.62-1.39-1.01-2.28-1.01c-1.5,0-2.59,1.25-2.59,2.78v0.03c0,1.53,1.06,2.8,2.59,2.8c1.02,0,1.64-0.41,2.34-1.05l1.25,1.26
			c-0.92,0.98-1.94,1.59-3.66,1.59C75.23,44.17,73.28,42.14,73.28,39.58z"/>
		<path class="st1" d="M82.83,35.09h1.96v3.53h3.62v-3.53h1.96v8.92h-1.96v-3.58h-3.62v3.58h-1.96V35.09z"/>
		<path class="st1" d="M92.26,35.09h6.73v1.75h-4.78v1.81h4.21v1.75h-4.21v1.87h4.84v1.75h-6.79V35.09z"/>
		<path class="st1" d="M99.93,42.71l1.16-1.39c0.8,0.66,1.64,1.08,2.66,1.08c0.8,0,1.29-0.32,1.29-0.84v-0.03
			c0-0.5-0.31-0.75-1.8-1.13c-1.8-0.46-2.96-0.96-2.96-2.73v-0.03c0-1.62,1.3-2.69,3.12-2.69c1.3,0,2.41,0.41,3.31,1.13l-1.02,1.48
			c-0.79-0.55-1.57-0.88-2.32-0.88c-0.75,0-1.15,0.34-1.15,0.78v0.03c0,0.59,0.38,0.78,1.92,1.17c1.81,0.47,2.83,1.12,2.83,2.68
			v0.03c0,1.77-1.35,2.77-3.27,2.77C102.36,44.14,101,43.67,99.93,42.71z"/>
		<path class="st1" d="M110.33,36.9h-2.71v-1.81H115v1.81h-2.71v7.11h-1.96V36.9z"/>
		<path class="st1" d="M116.25,35.09h6.73v1.75h-4.78v1.81h4.21v1.75h-4.21v1.87h4.84v1.75h-6.79V35.09z"/>
		<path class="st1" d="M124.53,35.09h4.08c1.13,0,2.01,0.32,2.6,0.9c0.5,0.5,0.76,1.2,0.76,2.04v0.03c0,1.44-0.78,2.34-1.91,2.77
			l2.18,3.19h-2.29l-1.91-2.85h-1.54v2.85h-1.96V35.09z M128.49,39.43c0.96,0,1.5-0.51,1.5-1.26v-0.03c0-0.84-0.59-1.27-1.54-1.27
			h-1.95v2.56H128.49z"/>
		<path class="st1" d="M50.31,50.54v-0.02c0-1.69,1.31-3.07,3.11-3.07c1.07,0,1.71,0.29,2.33,0.81l-0.82,0.99
			c-0.46-0.38-0.86-0.6-1.55-0.6c-0.95,0-1.7,0.84-1.7,1.85v0.02c0,1.09,0.75,1.88,1.8,1.88c0.47,0,0.9-0.12,1.23-0.36V51.2h-1.31
			v-1.13h2.58v2.58c-0.61,0.52-1.45,0.94-2.54,0.94C51.59,53.59,50.31,52.29,50.31,50.54z"/>
		<path class="st1" d="M57.05,47.55h1.31v4.75h2.96v1.19h-4.27V47.55z"/>
		<path class="st1" d="M61.53,50.54v-0.02c0-1.69,1.33-3.07,3.16-3.07c1.83,0,3.15,1.37,3.15,3.05v0.02c0,1.69-1.33,3.07-3.16,3.07
			C62.85,53.59,61.53,52.23,61.53,50.54z M66.47,50.54v-0.02c0-1.02-0.75-1.87-1.8-1.87c-1.05,0-1.78,0.83-1.78,1.85v0.02
			c0,1.02,0.75,1.87,1.8,1.87C65.75,52.39,66.47,51.56,66.47,50.54z"/>
		<path class="st1" d="M68.83,47.55h2.76c0.68,0,1.21,0.19,1.55,0.53c0.27,0.27,0.41,0.6,0.41,1.01v0.02c0,0.67-0.36,1.04-0.78,1.28
			c0.69,0.26,1.11,0.66,1.11,1.46v0.02c0,1.09-0.88,1.63-2.22,1.63h-2.82V47.55z M72.25,49.31c0-0.39-0.31-0.61-0.86-0.61H70.1v1.26
			h1.2c0.58,0,0.94-0.19,0.94-0.63V49.31z M71.61,51.04H70.1v1.31h1.55c0.58,0,0.92-0.2,0.92-0.64v-0.02
			C72.58,51.29,72.28,51.04,71.61,51.04z"/>
		<path class="st1" d="M76.82,47.51h1.2l2.54,5.98H79.2l-0.54-1.33h-2.51l-0.54,1.33h-1.33L76.82,47.51z M78.19,51.01l-0.79-1.92
			l-0.79,1.92H78.19z"/>
		<path class="st1" d="M81.31,47.55h1.31v4.75h2.96v1.19h-4.27V47.55z"/>
		<path class="st1" d="M88.36,52.63l0.77-0.92c0.53,0.44,1.09,0.72,1.77,0.72c0.53,0,0.86-0.21,0.86-0.56v-0.02
			c0-0.33-0.2-0.5-1.2-0.75c-1.2-0.31-1.97-0.64-1.97-1.81v-0.02c0-1.08,0.86-1.79,2.08-1.79c0.86,0,1.6,0.27,2.2,0.75l-0.68,0.98
			c-0.53-0.36-1.04-0.59-1.54-0.59c-0.5,0-0.76,0.23-0.76,0.52v0.02c0,0.39,0.25,0.52,1.28,0.78c1.2,0.31,1.88,0.75,1.88,1.78v0.02
			c0,1.18-0.9,1.84-2.18,1.84C89.98,53.57,89.07,53.26,88.36,52.63z"/>
		<path class="st1" d="M93.76,50.54v-0.02c0-1.69,1.27-3.07,3.1-3.07c1.12,0,1.79,0.37,2.34,0.92l-0.83,0.96
			c-0.46-0.42-0.92-0.67-1.52-0.67c-1,0-1.72,0.83-1.72,1.85v0.02c0,1.02,0.7,1.87,1.72,1.87c0.68,0,1.09-0.27,1.56-0.7l0.83,0.84
			c-0.61,0.65-1.29,1.06-2.43,1.06C95.06,53.59,93.76,52.24,93.76,50.54z"/>
		<path class="st1" d="M100.11,47.55h1.31v2.35h2.41v-2.35h1.31v5.94h-1.31v-2.38h-2.41v2.38h-1.31V47.55z"/>
		<path class="st1" d="M106.12,50.54v-0.02c0-1.69,1.33-3.07,3.16-3.07c1.83,0,3.15,1.37,3.15,3.05v0.02c0,1.69-1.33,3.07-3.16,3.07
			C107.43,53.59,106.12,52.23,106.12,50.54z M111.06,50.54v-0.02c0-1.02-0.75-1.87-1.8-1.87c-1.05,0-1.78,0.83-1.78,1.85v0.02
			c0,1.02,0.75,1.87,1.8,1.87C110.33,52.39,111.06,51.56,111.06,50.54z"/>
		<path class="st1" d="M113.16,50.54v-0.02c0-1.69,1.33-3.07,3.16-3.07c1.83,0,3.15,1.37,3.15,3.05v0.02c0,1.69-1.33,3.07-3.16,3.07
			C114.47,53.59,113.16,52.23,113.16,50.54z M118.1,50.54v-0.02c0-1.02-0.75-1.87-1.8-1.87c-1.05,0-1.78,0.83-1.78,1.85v0.02
			c0,1.02,0.75,1.87,1.8,1.87C117.37,52.39,118.1,51.56,118.1,50.54z"/>
		<path class="st1" d="M120.46,47.55h1.31v4.75h2.96v1.19h-4.27V47.55z"/>
	</g>
	<g>
		<g>
			<path class="st1" d="M31.96,27.47H13.68c0,1.48-1.2,2.67-2.67,2.67v13.87c0,3.52,1.93,6.76,5.04,8.44l6.78,3.5l0,0l0,0l6.78-3.5
				c3.1-1.67,5.04-4.91,5.04-8.44V30.14C33.16,30.14,31.96,28.94,31.96,27.47z"/>
		</g>
		<g>
			<g>
				<g>
					<path class="st1" d="M8.08,55.36c0,0,0.24-0.58,1.53-0.08c0.87,0.4,1.67,1.64,2.77,2.39l-0.69,0.94
						c-0.39,0.54-1.08,0.81-1.75,0.67c-0.28-0.06-0.6-0.18-0.95-0.39c-1.36-0.84-4.62-2.94-4.62-2.94s-1.58-1.3-2.77-0.37
						c0.75-0.29,1.21-0.14,1.21-0.14l-0.96,2.48c0,0-1.79-1.11-0.86-2.5C1.88,54.56,3.65,52.89,4.6,52c0.5-0.47,1.19-0.7,1.89-0.61
						c0.81,0.1,1.94,0.43,3.18,1.37l-0.5,0.57l-2-1.12l1.84,1.24l-0.45,0.52l-1.86-1.15l1.73,1.32l-0.49,0.59l-1.97-1.23l1.84,1.47
						c0,0-0.29,0.53-0.02,0.96l-2.41-1.54l5.1,4.08l-5.66-3.36c0,0,4.54,3.2,5.08,3.48c0.54,0.28,0.9,0.13,1.05-0.15L8.3,56.25
						C8.3,56.25,7.87,55.8,8.08,55.36z"/>
				</g>
			</g>
			<g>
				<g>
					<g>
						<path class="st1" d="M37.56,55.36c0,0-0.24-0.58-1.53-0.08c-0.87,0.4-1.67,1.64-2.77,2.39l0.69,0.94
							c0.39,0.54,1.08,0.81,1.75,0.67c0.28-0.06,0.6-0.18,0.95-0.39c1.36-0.84,4.62-2.94,4.62-2.94s1.58-1.3,2.77-0.37
							c-0.66-0.36-1.36-0.11-1.36-0.11l1.1,2.45c0,0,1.79-1.11,0.86-2.5c-0.89-0.88-2.66-2.54-3.61-3.43
							c-0.5-0.47-1.19-0.7-1.89-0.61c-0.81,0.1-1.94,0.43-3.18,1.37l0.5,0.57l2-1.12l-1.84,1.24l0.45,0.52l1.86-1.15l-1.73,1.32
							l0.49,0.59l1.97-1.23l-1.84,1.47c0,0,0.29,0.53,0.02,0.96l2.41-1.54l-5.1,4.08l5.66-3.36c0,0-4.54,3.2-5.08,3.48
							c-0.54,0.28-0.9,0.13-1.05-0.15l2.66-2.19C37.33,56.25,37.77,55.8,37.56,55.36z"/>
					</g>
				</g>
				<g>
					<path class="st1" d="M34.42,51.51c-0.21-0.13-1.12-0.23-2.14,0.53c-4.3,3.91-7.82,4.97-9.46,5.16
						c-0.11-0.01-0.23-0.03-0.36-0.05c-1.77-0.29-5.1-1.46-9.11-5.11c-1.02-0.77-1.93-0.67-2.14-0.53
						c-0.21,0.13-2.99,3.38-2.99,3.38s1-0.57,2.31,0.57c1.09,0.95,4.91,5.32,11.9,5.75c0.13,0.01,0.61,0.01,0.72,0
						c6.71-0.43,10.83-4.81,11.93-5.75c1.31-1.14,2.31-0.57,2.31-0.57S34.63,51.64,34.42,51.51z"/>
				</g>
			</g>
		</g>
		<g>
			<g>
				<g>
					<path class="st2" d="M10.57,50.42c0,0,0.28-0.79,0.27-1.43c-0.01-0.84-0.44-1.5-0.44-1.5s-0.57,0.76-0.48,1.46
						C10,49.64,10.57,50.42,10.57,50.42z"/>
				</g>
				<g>
					<path class="st2" d="M7.43,48.95c0,0,0.92-0.05,1.63,0.26c0.85,0.37,1.29,1.35,1.29,1.35s-1.22-0.05-1.85-0.42
						C7.89,49.79,7.43,48.95,7.43,48.95z"/>
				</g>
			</g>
			<g>
				<g>
					<path class="st2" d="M9.44,48.57c0,0,0.31-0.63,0.52-1.02c0.38-0.68,0.05-1.97,0.05-1.97s-0.89,0.72-0.95,1.45
						C9,47.73,9.44,48.57,9.44,48.57z"/>
				</g>
				<g>
					<path class="st2" d="M6.56,46.5c0,0,0.69,0,1.29,0.33c0.94,0.52,1.29,1.81,1.29,1.81s-1.17-0.21-1.74-0.72
						C6.86,47.44,6.56,46.5,6.56,46.5z"/>
				</g>
			</g>
			<g>
				<g>
					<path class="st2" d="M8.74,46.6c0,0,0.49-0.57,0.78-0.9c0.51-0.58,0.3-1.89,0.3-1.89s-0.9,0.51-1.11,1.2
						C8.51,45.68,8.74,46.6,8.74,46.6z"/>
				</g>
				<g>
					<path class="st2" d="M6.32,44.02c0,0,0.94,0.28,1.42,0.82c0.61,0.68,0.7,1.72,0.7,1.72s-1.15-0.38-1.6-0.99
						C6.41,44.99,6.32,44.02,6.32,44.02z"/>
				</g>
			</g>
			<g>
				<g>
					<path class="st2" d="M8.43,44.38c0,0,0.71-0.41,1-0.7c0.52-0.52,0.39-1.74,0.39-1.74S8.87,42.37,8.63,43
						C8.4,43.61,8.43,44.38,8.43,44.38z"/>
				</g>
				<g>
					<path class="st2" d="M6.55,41.82c0,0,0.81,0.45,1.09,0.8c0.6,0.73,0.5,1.8,0.5,1.8s-1-0.48-1.33-1.1
						C6.49,42.72,6.55,41.82,6.55,41.82z"/>
				</g>
			</g>
			<g>
				<path class="st2" d="M8.46,42.48c0,0,0.73-0.5,1.05-0.89c0.53-0.65,0.25-1.55,0.25-1.55s-0.8,0.31-1.06,1.05
					C8.5,41.65,8.46,42.48,8.46,42.48z"/>
			</g>
			<g>
				<path class="st2" d="M6.98,39.79c0,0,0.54,0.36,0.81,0.87c0.42,0.8,0.3,1.95,0.3,1.95S7.3,41.9,7.05,41.27
					C6.81,40.66,6.98,39.79,6.98,39.79z"/>
			</g>
			<g>
				<g>
					<path class="st2" d="M8.66,38.12c0,0,0.23,0.67,0.28,1.21c0.09,1.02-0.6,1.54-0.6,1.54s-0.52-0.73-0.32-1.58
						C8.15,38.75,8.66,38.12,8.66,38.12z"/>
				</g>
			</g>
		</g>
		<g>
			<g>
				<g>
					<path class="st2" d="M35.09,50.42c0,0-0.28-0.79-0.27-1.43c0.01-0.84,0.44-1.5,0.44-1.5s0.57,0.76,0.48,1.46
						C35.66,49.64,35.09,50.42,35.09,50.42z"/>
				</g>
				<g>
					<path class="st2" d="M38.23,48.95c0,0-0.92-0.05-1.63,0.26c-0.85,0.37-1.29,1.35-1.29,1.35s1.22-0.05,1.85-0.42
						C37.77,49.79,38.23,48.95,38.23,48.95z"/>
				</g>
			</g>
			<g>
				<g>
					<path class="st2" d="M36.22,48.57c0,0-0.31-0.63-0.52-1.02c-0.38-0.68-0.05-1.97-0.05-1.97s0.89,0.72,0.95,1.45
						C36.66,47.73,36.22,48.57,36.22,48.57z"/>
				</g>
				<g>
					<path class="st2" d="M39.1,46.5c0,0-0.69,0-1.29,0.33c-0.94,0.52-1.29,1.81-1.29,1.81s1.17-0.21,1.74-0.72
						C38.8,47.44,39.1,46.5,39.1,46.5z"/>
				</g>
			</g>
			<g>
				<g>
					<path class="st2" d="M36.92,46.6c0,0-0.49-0.57-0.78-0.9c-0.51-0.58-0.3-1.89-0.3-1.89s0.9,0.51,1.11,1.2
						C37.15,45.68,36.92,46.6,36.92,46.6z"/>
				</g>
				<g>
					<path class="st2" d="M39.34,44.02c0,0-0.94,0.28-1.42,0.82c-0.61,0.68-0.7,1.72-0.7,1.72s1.15-0.38,1.6-0.99
						C39.24,44.99,39.34,44.02,39.34,44.02z"/>
				</g>
			</g>
			<g>
				<g>
					<path class="st2" d="M37.23,44.38c0,0-0.71-0.41-1-0.7c-0.52-0.52-0.39-1.74-0.39-1.74s0.94,0.43,1.18,1.06
						C37.26,43.61,37.23,44.38,37.23,44.38z"/>
				</g>
				<g>
					<path class="st2" d="M39.11,41.82c0,0-0.81,0.45-1.09,0.8c-0.6,0.73-0.5,1.8-0.5,1.8s1-0.48,1.33-1.1
						C39.17,42.72,39.11,41.82,39.11,41.82z"/>
				</g>
			</g>
			<g>
				<path class="st2" d="M37.19,42.48c0,0-0.73-0.5-1.05-0.89c-0.53-0.65-0.25-1.55-0.25-1.55s0.8,0.31,1.06,1.05
					C37.16,41.65,37.19,42.48,37.19,42.48z"/>
			</g>
			<g>
				<path class="st2" d="M38.68,39.79c0,0-0.54,0.36-0.81,0.87c-0.42,0.8-0.3,1.95-0.3,1.95s0.79-0.72,1.04-1.35
					C38.85,40.66,38.68,39.79,38.68,39.79z"/>
			</g>
			<g>
				<g>
					<path class="st2" d="M37,38.12c0,0-0.23,0.67-0.28,1.21c-0.09,1.02,0.6,1.54,0.6,1.54s0.52-0.73,0.32-1.58
						C37.51,38.75,37,38.12,37,38.12z"/>
				</g>
			</g>
		</g>
		<g>
			<path class="st0" d="M32.24,34.4c-0.01,0.2-0.22,0.4-0.57,0.4c-0.06,0-0.12,0-0.18,0c-0.01,0.26-0.03,0.32-0.13,0.56
				c-0.11,0.27-0.16,0.37-0.29,0.63c-0.08,0.16-0.11,0.48-0.13,0.66c-0.02,0.16-0.01,0.33,0,0.49c0,0.09,0.02,0.17,0.03,0.26
				c0.01,0.09,0.01,0.1-0.07,0.13c-0.22,0.1-0.45,0.11-0.69,0.1c-0.02,0-0.04-0.01-0.06-0.01c-0.07-0.02-0.09-0.06-0.06-0.13
				c0.09-0.24,0.12-0.49,0.12-0.75c0-0.11,0-0.17-0.01-0.28c-0.02-0.08-0.19-0.1-0.23-0.02c-0.01,0.04-0.03,0.09-0.04,0.13
				c-0.02,0.2-0.03,0.39-0.05,0.59c-0.01,0.09-0.03,0.17-0.06,0.26c-0.02,0.07-0.08,0.1-0.15,0.11c-0.19,0.02-0.37,0.01-0.55-0.03
				c-0.09-0.02-0.11-0.06-0.08-0.15c0.05-0.13,0.07-0.26,0.08-0.4c0.01-0.28,0.03-0.57,0.04-0.86c0.18-0.03,0.41-0.03,0.59,0.06
				c-0.05-0.07-0.15-0.15-0.26-0.16c-0.11-0.02-0.21-0.02-0.32-0.01c-0.1,0.01-0.2,0.05-0.31,0.08c0.04-0.15,0.05-0.29,0-0.44
				c-0.09,0.2-0.12,0.39-0.14,0.59c-0.02,0.27,0.03,0.53,0.06,0.8c0.02,0.15,0.03,0.3,0.04,0.44c0.01,0.1-0.02,0.13-0.12,0.13
				c-0.2,0-0.39,0-0.59,0c-0.14,0-0.15-0.02-0.15-0.15c-0.01-0.41-0.1-0.8-0.24-1.19c-0.04-0.11-0.15-0.24-0.24-0.18
				c-0.14,0.1-0.22,0.23-0.16,0.39c0.03,0.08,0.13,0.28,0.16,0.35c0.04,0.09,0.02,0.15-0.07,0.2c-0.21,0.14-0.37,0.17-0.61,0.19
				c-0.04,0-0.06-0.01-0.08-0.05c-0.04-0.11-0.09-0.21-0.13-0.31c-0.06-0.13-0.12-0.26-0.17-0.39c-0.07-0.17-0.05-0.34,0.06-0.49
				c0.15-0.2,0.31-0.4,0.46-0.6c0.02-0.02,0.04-0.05,0.07-0.08c0.16,0.11,0.32,0.22,0.47,0.32c0,0,0.01,0,0.01-0.01
				c-0.01-0.02-0.02-0.05-0.04-0.07c-0.1-0.1-0.19-0.21-0.3-0.28c-0.2-0.14-0.35-0.31-0.44-0.54c-0.19-0.46-0.59-0.19-1.06-0.5
				c-0.47-0.3-0.39-0.58-0.79-0.72c0.06-0.04,0.1-0.07,0.14-0.11c0.02-0.02,0.04-0.03,0.06-0.05c0.06-0.06,0.06-0.09-0.02-0.14
				c-0.39-0.26-0.6-0.61-0.57-1.08c0.02-0.34,0.16-0.62,0.41-0.85c0.07-0.07,0.15-0.13,0.23-0.19c0.07-0.06,0.11-0.13,0.12-0.17
				c0.01-0.07,0-0.1-0.06-0.14c-0.06-0.04-0.13-0.01-0.2-0.01c-0.04,0-0.1-0.01-0.13-0.04c-0.03-0.04,0-0.09,0.03-0.13
				c0.16-0.18,0.56-0.13,0.65,0.01c0.25,0.37-0.27,0.86-0.38,1.18c-0.07,0.19,0.01,0.39,0.17,0.4c0.19,0.02,0.37-0.01,0.54-0.07
				c0.21-0.07,0.41-0.12,0.63-0.11c0.34,0.02,0.62,0.16,0.81,0.45c0.04,0.05,0.07,0.11,0.1,0.16c0.03,0.06,0.08,0.07,0.14,0.05
				c0.16-0.05,0.31-0.1,0.47-0.12c0.12-0.02,0.25,0,0.38,0.02c0.11,0.02,0.2,0.09,0.26,0.18c0.03,0.04,0.06,0.07,0.08,0.11
				c-0.04,0.03-0.09,0.07-0.13,0.1c-0.12,0.11-0.18,0.24-0.16,0.4c0.03,0.23-0.06,0.4-0.23,0.55c-0.17,0.14-0.37,0.23-0.57,0.32
				c-0.02,0.01-0.04,0.02-0.06,0.03c0,0.01,0,0.01,0,0.02c0.19-0.06,0.38-0.1,0.56-0.17c0.33-0.14,0.46-0.39,0.42-0.74
				c-0.01-0.1,0.01-0.2,0.08-0.27c0.12-0.13,0.26-0.22,0.45-0.21c0.28,0.01,0.57,0.01,0.85,0.1c0.47,0.15,0.85,0.42,1.14,0.82
				c0.12,0.18,0.24,0.36,0.36,0.54c0.04,0.06,0.07,0.07,0.13,0.12c0.08,0.05,0.34,0.07,0.42-0.01c0.08-0.08,0.09-0.23-0.01-0.24
				c-0.06-0.01-0.07,0.08-0.16,0.05c-0.02-0.01-0.03-0.05-0.03-0.07c0.01-0.06,0.07-0.1,0.13-0.11
				C32.11,34.02,32.25,34.2,32.24,34.4z"/>
		</g>
		<g>
			<path class="st0" d="M12.38,54.59l1.03-0.8l0.31,0.22l-1.43,1.02L12,54.83l0.49-1.69l0.31,0.22L12.38,54.59z"/>
			<path class="st0" d="M13.16,55.76l-0.26-0.21l0.77-0.96l0.26,0.21L13.16,55.76z M13.86,54.33c0.03-0.04,0.07-0.06,0.12-0.06
				c0.05,0,0.09,0.01,0.14,0.05c0.04,0.04,0.07,0.08,0.08,0.12c0.01,0.05-0.01,0.09-0.04,0.13c-0.03,0.04-0.07,0.06-0.12,0.06
				c-0.05,0-0.09-0.01-0.13-0.05c-0.04-0.03-0.07-0.08-0.07-0.12C13.82,54.41,13.83,54.37,13.86,54.33z"/>
			<path class="st0" d="M13.8,55.47c0.12-0.15,0.24-0.25,0.38-0.29c0.14-0.04,0.27-0.01,0.39,0.07c0.1,0.07,0.15,0.17,0.16,0.29
				l0.38-0.51l0.27,0.2l-1.05,1.41l-0.24-0.18l0.07-0.11c-0.13,0.03-0.24,0.01-0.35-0.07c-0.12-0.09-0.18-0.2-0.18-0.35
				C13.62,55.79,13.68,55.64,13.8,55.47z M14.05,55.69c-0.07,0.09-0.11,0.18-0.11,0.25c0,0.07,0.02,0.13,0.09,0.18
				c0.08,0.06,0.17,0.07,0.25,0.03l0.29-0.39c0.02-0.09-0.01-0.17-0.09-0.23C14.35,55.43,14.21,55.48,14.05,55.69z"/>
			<path class="st0" d="M15.28,56.74l0.62-0.51l0.29,0.2l-1.21,0.91l-0.06,0.04c-0.15,0.09-0.3,0.09-0.44,0
				c-0.04-0.03-0.08-0.06-0.11-0.1l0.14-0.21l0.04,0.03c0.05,0.03,0.1,0.05,0.13,0.05c0.04,0,0.07-0.01,0.11-0.04l0.09-0.06
				l0.33-1.27l0.29,0.2L15.28,56.74z"/>
			<path class="st0" d="M16.32,57.96c0-0.03,0.01-0.07,0.03-0.11c-0.11,0.03-0.23,0.02-0.34-0.05c-0.1-0.06-0.17-0.14-0.2-0.25
				c-0.03-0.1-0.02-0.2,0.03-0.29c0.07-0.11,0.16-0.17,0.28-0.18c0.12-0.01,0.26,0.03,0.42,0.13l0.13,0.08l0.04-0.06
				c0.03-0.05,0.04-0.1,0.03-0.14c-0.01-0.04-0.04-0.08-0.09-0.12c-0.05-0.03-0.09-0.04-0.13-0.03c-0.04,0.01-0.07,0.03-0.1,0.07
				l-0.28-0.17c0.04-0.06,0.09-0.11,0.16-0.14c0.07-0.03,0.15-0.04,0.23-0.03c0.09,0.01,0.17,0.04,0.26,0.1
				c0.13,0.08,0.21,0.17,0.25,0.29c0.04,0.11,0.02,0.23-0.05,0.35l-0.28,0.46c-0.06,0.1-0.09,0.19-0.1,0.25l-0.01,0.02L16.32,57.96z
				 M16.21,57.62c0.04,0.03,0.09,0.04,0.13,0.04c0.05,0,0.09-0.01,0.12-0.03l0.11-0.18l-0.11-0.06c-0.14-0.09-0.25-0.08-0.31,0.01
				l-0.01,0.02c-0.02,0.04-0.03,0.07-0.02,0.11S16.17,57.59,16.21,57.62z M17.26,56.8l-0.71-0.43l0.1-0.16l0.71,0.43L17.26,56.8z"/>
			<path class="st0" d="M18.87,57.42l0.31,0.14l-0.48,1.05c-0.04,0.1-0.1,0.17-0.18,0.23c-0.08,0.05-0.16,0.08-0.26,0.09
				c-0.1,0-0.19-0.02-0.29-0.06c-0.16-0.07-0.27-0.17-0.32-0.29c-0.05-0.12-0.04-0.26,0.02-0.41L18,58.31
				c-0.03,0.07-0.04,0.14-0.03,0.19c0.02,0.05,0.06,0.09,0.12,0.12c0.06,0.03,0.12,0.03,0.17,0c0.05-0.02,0.1-0.07,0.13-0.15
				L18.87,57.42z"/>
			<path class="st0" d="M19.6,58.16l-0.03,0.14c0.12-0.08,0.25-0.1,0.39-0.06c0.13,0.04,0.21,0.1,0.25,0.19
				c0.04,0.09,0.04,0.21,0,0.36l-0.23,0.77l-0.32-0.09l0.23-0.76c0.02-0.07,0.02-0.12,0-0.16c-0.02-0.04-0.06-0.07-0.13-0.09
				c-0.09-0.03-0.17-0.01-0.23,0.05l-0.25,0.84l-0.32-0.09l0.35-1.18L19.6,58.16z M20.38,57.86c-0.02,0.08-0.07,0.14-0.13,0.19
				c-0.06,0.04-0.13,0.05-0.2,0.03c-0.03-0.01-0.05-0.02-0.07-0.03c-0.02-0.01-0.05-0.03-0.08-0.07c-0.03-0.03-0.06-0.05-0.07-0.06
				c-0.02-0.01-0.03-0.02-0.05-0.02c-0.03-0.01-0.05,0-0.07,0.01c-0.02,0.01-0.04,0.04-0.05,0.07l-0.18-0.07
				c0.02-0.08,0.07-0.14,0.13-0.19c0.06-0.04,0.13-0.05,0.2-0.03c0.02,0.01,0.04,0.02,0.06,0.03c0.02,0.01,0.05,0.03,0.08,0.07
				c0.04,0.03,0.06,0.06,0.08,0.07c0.02,0.01,0.03,0.02,0.05,0.02c0.03,0.01,0.05,0.01,0.07-0.01c0.02-0.01,0.04-0.04,0.05-0.07
				L20.38,57.86z"/>
			<path class="st0" d="M21.15,59.77c-0.01-0.03-0.02-0.07-0.02-0.11c-0.09,0.08-0.2,0.1-0.33,0.08c-0.12-0.02-0.21-0.07-0.28-0.15
				c-0.07-0.08-0.09-0.18-0.08-0.28c0.02-0.13,0.08-0.22,0.19-0.28c0.11-0.05,0.25-0.07,0.43-0.04l0.15,0.02l0.01-0.07
				c0.01-0.06,0-0.1-0.02-0.14c-0.02-0.04-0.07-0.06-0.13-0.07c-0.05-0.01-0.1,0-0.14,0.02c-0.04,0.02-0.06,0.06-0.06,0.1
				l-0.33-0.05c0.01-0.07,0.04-0.13,0.1-0.19c0.05-0.05,0.12-0.09,0.21-0.11c0.09-0.02,0.18-0.02,0.28-0.01
				c0.15,0.02,0.26,0.08,0.34,0.17c0.08,0.09,0.1,0.2,0.08,0.34l-0.08,0.53c-0.02,0.12-0.02,0.21,0.01,0.27l0,0.02L21.15,59.77z
				 M21.58,58.35l-0.82-0.13l0.03-0.19l0.82,0.13L21.58,58.35z M20.91,59.5c0.05,0.01,0.09,0,0.14-0.01
				c0.04-0.02,0.08-0.04,0.1-0.07l0.03-0.21l-0.12-0.02c-0.16-0.03-0.26,0.02-0.29,0.13l0,0.02c-0.01,0.04,0,0.08,0.03,0.11
				C20.83,59.48,20.86,59.5,20.91,59.5z"/>
			<path class="st0" d="M22.23,58.63l0.01,0.14c0.09-0.11,0.21-0.16,0.36-0.16c0.13,0,0.23,0.04,0.29,0.12
				c0.06,0.08,0.09,0.19,0.09,0.35l-0.02,0.8l-0.33-0.01l0.02-0.79c0-0.07-0.01-0.12-0.04-0.15c-0.03-0.03-0.08-0.05-0.15-0.05
				c-0.09,0-0.16,0.04-0.21,0.11l-0.02,0.87l-0.33-0.01l0.03-1.24L22.23,58.63z"/>
			<path class="st0" d="M24.14,59.79c-0.02-0.03-0.03-0.06-0.04-0.11c-0.07,0.1-0.17,0.15-0.3,0.17c-0.12,0.01-0.22-0.01-0.31-0.07
				c-0.09-0.06-0.14-0.14-0.15-0.25c-0.01-0.13,0.02-0.24,0.11-0.32c0.09-0.08,0.22-0.13,0.41-0.15l0.15-0.02l-0.01-0.07
				c-0.01-0.06-0.03-0.1-0.06-0.13c-0.03-0.03-0.08-0.04-0.14-0.04c-0.06,0.01-0.1,0.02-0.13,0.05c-0.03,0.03-0.04,0.07-0.04,0.11
				l-0.33,0.04c-0.01-0.07,0.01-0.14,0.04-0.2c0.04-0.07,0.09-0.12,0.17-0.16c0.08-0.04,0.16-0.07,0.26-0.08
				c0.15-0.02,0.28,0.01,0.37,0.07s0.15,0.17,0.17,0.31l0.06,0.53c0.01,0.12,0.04,0.2,0.08,0.26l0,0.02L24.14,59.79z M23.85,59.59
				c0.05-0.01,0.09-0.02,0.13-0.05c0.04-0.03,0.07-0.06,0.08-0.1l-0.02-0.21l-0.12,0.01c-0.16,0.02-0.25,0.08-0.24,0.2l0,0.02
				c0,0.04,0.02,0.07,0.05,0.1C23.76,59.59,23.8,59.59,23.85,59.59z"/>
			<path class="st0" d="M24.89,58.42l0.05,0.13c0.05-0.13,0.15-0.21,0.3-0.25c0.15-0.04,0.28-0.01,0.37,0.09
				c0.05-0.14,0.15-0.24,0.31-0.28c0.13-0.04,0.24-0.03,0.32,0.03c0.08,0.06,0.15,0.16,0.19,0.31l0.22,0.76l-0.32,0.09l-0.22-0.76
				c-0.02-0.07-0.05-0.11-0.08-0.14c-0.04-0.02-0.09-0.03-0.15-0.01c-0.1,0.03-0.15,0.09-0.16,0.19l0.23,0.82l-0.32,0.09l-0.22-0.76
				c-0.02-0.07-0.05-0.12-0.08-0.14c-0.04-0.02-0.09-0.03-0.15-0.01c-0.09,0.03-0.14,0.08-0.16,0.17l0.24,0.84l-0.32,0.09L24.6,58.5
				L24.89,58.42z"/>
			<path class="st0" d="M27.8,58l0.28,0.51l-0.3,0.16l-0.8-1.46l0.57-0.31c0.11-0.06,0.22-0.09,0.32-0.1
				c0.11-0.01,0.2,0.02,0.29,0.07c0.09,0.05,0.15,0.12,0.2,0.22c0.08,0.14,0.09,0.28,0.04,0.42c-0.05,0.14-0.17,0.25-0.34,0.35
				L27.8,58z M27.67,57.75l0.27-0.15c0.08-0.04,0.13-0.1,0.15-0.16c0.02-0.06,0.01-0.13-0.02-0.19c-0.04-0.07-0.09-0.12-0.16-0.14
				c-0.07-0.02-0.14-0.01-0.21,0.03l-0.28,0.15L27.67,57.75z"/>
			<path class="st0" d="M29.31,56.73c-0.04,0.02-0.08,0.04-0.11,0.05c-0.11,0.07-0.15,0.14-0.14,0.24l0.42,0.69l-0.28,0.17
				l-0.65-1.05l0.27-0.16l0.09,0.12c0-0.13,0.05-0.23,0.14-0.29c0.03-0.02,0.06-0.03,0.1-0.04L29.31,56.73z"/>
			<path class="st0" d="M30.6,56.98c-0.03-0.02-0.06-0.04-0.09-0.07c-0.02,0.12-0.08,0.21-0.18,0.29c-0.1,0.07-0.2,0.1-0.31,0.08
				c-0.11-0.01-0.19-0.06-0.25-0.15c-0.07-0.11-0.09-0.22-0.05-0.33s0.14-0.22,0.29-0.32l0.13-0.09l-0.04-0.06
				c-0.03-0.05-0.07-0.08-0.11-0.09c-0.04-0.01-0.09,0-0.14,0.04c-0.05,0.03-0.07,0.07-0.09,0.11c-0.01,0.04,0,0.08,0.02,0.12
				l-0.27,0.19c-0.04-0.06-0.06-0.13-0.06-0.2c0-0.08,0.03-0.15,0.07-0.22c0.05-0.07,0.11-0.14,0.2-0.2
				c0.13-0.09,0.25-0.12,0.36-0.11c0.12,0.01,0.21,0.08,0.29,0.19l0.3,0.44c0.07,0.1,0.13,0.16,0.19,0.19l0.01,0.02L30.6,56.98z
				 M30.24,56.94c0.04-0.03,0.07-0.06,0.09-0.1c0.02-0.04,0.03-0.08,0.03-0.12l-0.12-0.18l-0.1,0.07C30,56.7,29.96,56.8,30.02,56.9
				l0.01,0.02c0.02,0.03,0.05,0.05,0.09,0.06C30.16,56.98,30.2,56.97,30.24,56.94z"/>
			<path class="st0" d="M30.21,55.35c-0.03-0.04-0.04-0.08-0.03-0.13c0.01-0.05,0.03-0.08,0.08-0.12c0.05-0.03,0.09-0.05,0.14-0.04
				c0.05,0.01,0.08,0.03,0.11,0.07c0.03,0.04,0.04,0.08,0.03,0.13c-0.01,0.05-0.04,0.09-0.08,0.12c-0.04,0.03-0.09,0.05-0.14,0.04
				C30.28,55.41,30.24,55.39,30.21,55.35z M30.69,55.4l0.77,1.05c0.08,0.11,0.11,0.22,0.1,0.32c-0.01,0.1-0.08,0.2-0.19,0.28
				c-0.05,0.03-0.09,0.06-0.14,0.08l-0.15-0.21c0.04-0.02,0.07-0.04,0.09-0.05c0.08-0.06,0.09-0.13,0.03-0.22l-0.77-1.05L30.69,55.4
				z"/>
			<path class="st0" d="M31.4,54.21c0.05,0.07,0.08,0.14,0.07,0.22c0,0.08-0.03,0.14-0.09,0.18c-0.02,0.02-0.04,0.03-0.07,0.04
				c-0.02,0.01-0.05,0.02-0.1,0.02c-0.04,0.01-0.07,0.02-0.09,0.02c-0.02,0.01-0.03,0.02-0.05,0.03c-0.02,0.02-0.03,0.04-0.04,0.06
				s0.01,0.05,0.03,0.08l-0.16,0.11c-0.05-0.07-0.08-0.14-0.07-0.22c0-0.08,0.03-0.14,0.09-0.18c0.02-0.01,0.04-0.03,0.06-0.03
				c0.02-0.01,0.05-0.02,0.1-0.03c0.05-0.01,0.08-0.02,0.1-0.03c0.02-0.01,0.03-0.02,0.05-0.03c0.02-0.02,0.03-0.04,0.04-0.06
				c0-0.03-0.01-0.05-0.03-0.08L31.4,54.21z M31.2,55.01l0.1,0.11c0-0.14,0.06-0.26,0.18-0.35c0.1-0.08,0.2-0.11,0.3-0.09
				c0.1,0.02,0.19,0.09,0.29,0.21l0.49,0.63l-0.26,0.2l-0.49-0.62c-0.04-0.06-0.09-0.09-0.13-0.09c-0.04-0.01-0.09,0.01-0.15,0.06
				c-0.07,0.06-0.1,0.13-0.09,0.22l0.54,0.69l-0.26,0.2l-0.76-0.97L31.2,55.01z"/>
			<path class="st0" d="M33.39,54.83c-0.03-0.02-0.06-0.04-0.09-0.07c-0.01,0.12-0.07,0.22-0.18,0.29c-0.1,0.07-0.2,0.1-0.31,0.09
				c-0.11-0.01-0.19-0.06-0.25-0.15c-0.08-0.11-0.09-0.22-0.06-0.33c0.04-0.11,0.13-0.22,0.28-0.33l0.12-0.09l-0.04-0.06
				c-0.03-0.05-0.07-0.08-0.12-0.09c-0.04-0.01-0.09,0-0.14,0.04c-0.05,0.03-0.07,0.07-0.08,0.11c-0.01,0.04,0,0.08,0.02,0.12
				l-0.27,0.19c-0.04-0.06-0.06-0.13-0.06-0.2c0-0.08,0.02-0.15,0.07-0.23c0.05-0.07,0.11-0.14,0.19-0.2
				c0.12-0.09,0.24-0.13,0.36-0.12c0.12,0.01,0.22,0.07,0.3,0.19l0.31,0.44c0.07,0.1,0.13,0.16,0.19,0.19l0.01,0.02L33.39,54.83z
				 M33.04,54.8c0.04-0.03,0.07-0.06,0.09-0.1c0.02-0.04,0.03-0.08,0.02-0.12l-0.12-0.17l-0.1,0.07c-0.13,0.1-0.17,0.19-0.12,0.29
				l0.01,0.02c0.02,0.03,0.06,0.05,0.09,0.06C32.95,54.85,32.99,54.83,33.04,54.8z"/>
		</g>
		<path class="st0" d="M19.25,47.64c-0.17,0.11-0.91,0.64-1.93,0.5c-1.03-0.14-1.62-0.7-2.03-1.31c-0.02-0.04-0.03-0.06-0.03-0.07
			c0.5,0.22,0.86-0.09,1.33-0.43c-0.54-0.1-0.68-0.63-0.68-0.63c0.69,0.28,1.26-0.15,1.26-0.15c-1.99,0.29-1.9-1.12-1.9-1.12
			c0.67,0.73,1.45,0.51,1.45,0.51c-2.23-0.57-1.68-2.37-1.68-2.37c0.1,1.06,1.5,1.45,1.5,1.45c-2.5-1.85-0.74-3.58-0.74-3.58
			c-0.67,2.05,1.99,3.47,2.71,4.01c0.87,0.65,0.88,1.34,0.92,1.35c0.25,0.07,0.59-0.45,0.22-0.9c0,0,0,0,0,0c0,0,0,0,0,0
			c-0.06-0.09-0.13-0.17-0.22-0.24c-0.24-0.19-0.49-0.37-0.74-0.55c-0.26-0.18-0.53-0.36-0.76-0.59c-0.19-0.2-0.34-0.42-0.38-0.7
			c-0.07-0.45,0.14-0.88,0.55-1.08c0.41-0.2,0.8-0.14,1.17,0.12c0.23,0.16,0.4,0.38,0.45,0.66c0.02,0.13,0.02,0.27-0.06,0.38
			c-0.04,0.05-0.1,0.1-0.16,0.13c-0.05,0.03-0.08,0.06-0.08,0.12c0.02,0.15,0.04,0.31,0.07,0.46c0,0.02,0.01,0.03,0.01,0.05
			c-0.08,0.02-0.14-0.03-0.19-0.08c-0.09-0.1-0.12-0.22-0.15-0.34c-0.01-0.05-0.02-0.11-0.03-0.16c0-0.02-0.01-0.04-0.02-0.06
			c-0.11-0.13-0.13-0.28-0.12-0.44c0.01-0.2-0.06-0.36-0.23-0.48c-0.27-0.18-0.65-0.03-0.76,0.29c-0.08,0.25-0.04,0.49,0.12,0.71
			c0.16,0.21,0.39,0.36,0.61,0.5c0.28,0.19,0.57,0.37,0.85,0.56c0.2,0.14,0.38,0.31,0.53,0.51c0.22,0.31,0.3,0.66,0.26,1.03
			C20.3,46.53,19.79,47.29,19.25,47.64z"/>
		<g>
			<path class="st2" d="M22.68,23.86c0.1,0,0.21,0.01,0.31,0.02l-0.31-2.56l-0.31,2.56C22.47,23.87,22.58,23.86,22.68,23.86z"/>
			<path class="st2" d="M22.03,23.95c0.07-0.02,0.15-0.04,0.22-0.05l-0.56-1.22l0.13,1.34C21.88,23.99,21.96,23.97,22.03,23.95z"/>
			<path class="st2" d="M21.42,24.2c0.09-0.05,0.18-0.1,0.28-0.14L20.15,22l1.01,2.37C21.25,24.31,21.33,24.25,21.42,24.2z"/>
			<path class="st2" d="M20.9,24.6c0.05-0.05,0.11-0.1,0.17-0.15l-1.09-0.78l0.78,1.09C20.8,24.71,20.85,24.65,20.9,24.6z"/>
			<path class="st2" d="M20.5,25.12c0.05-0.09,0.11-0.18,0.17-0.26l-2.37-1.01l2.06,1.54C20.4,25.3,20.45,25.21,20.5,25.12z"/>
			<path class="st2" d="M20.25,25.73c0.02-0.07,0.04-0.14,0.07-0.21l-1.34-0.13l1.22,0.56C20.21,25.87,20.23,25.8,20.25,25.73z"/>
			<path class="st2" d="M25.11,25.73c0.02,0.07,0.04,0.15,0.05,0.22l1.22-0.56l-1.34,0.13C25.07,25.58,25.09,25.65,25.11,25.73z"/>
			<path class="st2" d="M24.86,25.12c0.05,0.09,0.1,0.18,0.14,0.28l2.06-1.54l-2.37,1.01C24.75,24.94,24.81,25.03,24.86,25.12z"/>
			<path class="st2" d="M24.46,24.6c0.05,0.05,0.1,0.11,0.15,0.17l0.78-1.09l-1.09,0.78C24.35,24.49,24.41,24.54,24.46,24.6z"/>
			<path class="st2" d="M23.94,24.2c0.09,0.05,0.18,0.11,0.26,0.17L25.21,22l-1.54,2.06C23.76,24.1,23.85,24.15,23.94,24.2z"/>
			<path class="st2" d="M23.33,23.95c0.07,0.02,0.14,0.04,0.21,0.07l0.13-1.34l-0.56,1.22C23.19,23.91,23.26,23.93,23.33,23.95z"/>
		</g>
		<path class="st2" d="M25.19,26.1c0.01,0.09,0.02,0.19,0.02,0.28c0,0.1-0.01,0.19-0.02,0.28h6.78V26.1H25.19z"/>
		<path class="st2" d="M20.15,26.38c0-0.1,0.01-0.19,0.02-0.28h-6.5v0.56h6.5C20.16,26.57,20.15,26.47,20.15,26.38z"/>
		<path class="st3" d="M28.78,50.11c-0.3,0.17-0.62,0.35-1.24,0.35c-0.62,0-0.93-0.18-1.24-0.35c-0.29-0.16-0.56-0.32-1.11-0.32
			c-0.55,0-0.82,0.15-1.11,0.32c-0.3,0.17-0.62,0.35-1.24,0.35c-0.62,0-0.93-0.18-1.24-0.35c-0.29-0.16-0.56-0.32-1.11-0.32
			c-0.55,0-0.82,0.15-1.11,0.32c-0.3,0.17-0.62,0.35-1.24,0.35c-0.62,0-0.93-0.18-1.24-0.35c-0.29-0.16-0.56-0.32-1.11-0.32
			c-0.33,0-0.56,0.06-0.73,0.13c0.4,0.34,0.84,0.64,1.32,0.9l1.32,0.71c0.13,0.03,0.27,0.04,0.43,0.04c0.55,0,0.82-0.15,1.11-0.32
			c0.3-0.17,0.62-0.35,1.24-0.35c0.62,0,0.93,0.18,1.24,0.35c0.29,0.16,0.56,0.32,1.11,0.32c0.55,0,0.82-0.15,1.11-0.32
			c0.3-0.17,0.62-0.35,1.24-0.35c0.62,0,0.93,0.18,1.24,0.35c0.29,0.16,0.56,0.32,1.11,0.32c0.12,0,0.23-0.01,0.34-0.03l1.36-0.73
			c0.48-0.26,0.93-0.57,1.34-0.92c-0.17-0.06-0.38-0.11-0.69-0.11C29.33,49.8,29.06,49.95,28.78,50.11z"/>
		<path class="st3" d="M25.19,51.17c-0.55,0-0.82,0.15-1.11,0.32c-0.3,0.17-0.62,0.35-1.24,0.35c-0.62,0-0.93-0.18-1.24-0.35
			c-0.29-0.16-0.56-0.32-1.11-0.32c-0.55,0-0.82,0.15-1.11,0.32c-0.28,0.16-0.57,0.32-1.11,0.35l1.28,0.69
			c0.23-0.11,0.51-0.19,0.94-0.19c0.62,0,0.93,0.18,1.24,0.35c0.29,0.16,0.56,0.32,1.11,0.32c0.55,0,0.82-0.15,1.11-0.32
			c0.3-0.17,0.62-0.35,1.24-0.35c0.41,0,0.68,0.08,0.9,0.18l1.25-0.67c-0.5-0.03-0.78-0.19-1.05-0.35
			C26.01,51.33,25.74,51.17,25.19,51.17z"/>
		<path class="st3" d="M24.09,52.92c-0.3,0.17-0.62,0.35-1.24,0.35c-0.62,0-0.93-0.18-1.24-0.35c-0.29-0.16-0.56-0.32-1.11-0.32
			c-0.27,0-0.47,0.04-0.64,0.09l2.94,1.59l2.97-1.6c-0.16-0.05-0.35-0.08-0.59-0.08C24.65,52.6,24.38,52.75,24.09,52.92z"/>
		<path class="st3" d="M30.73,28.82h-7.92h-0.01V39.5H12.35v4.54c0,2.2,0.94,4.26,2.52,5.7c0.23-0.11,0.52-0.2,0.95-0.2
			c0.62,0,0.93,0.18,1.24,0.35c0.29,0.16,0.56,0.32,1.11,0.32c0.55,0,0.82-0.15,1.11-0.32c0.3-0.17,0.62-0.35,1.24-0.35
			c0.62,0,0.93,0.18,1.24,0.35c0.29,0.16,0.56,0.32,1.11,0.32c0.55,0,0.82-0.15,1.11-0.32c0.3-0.17,0.62-0.35,1.24-0.35
			c0.62,0,0.93,0.18,1.24,0.35c0.29,0.16,0.56,0.32,1.11,0.32c0.55,0,0.82-0.15,1.11-0.32c0.3-0.17,0.62-0.35,1.24-0.35
			c0.42,0,0.69,0.08,0.9,0.18c1.57-1.44,2.5-3.49,2.5-5.68V31.37C32.09,30.96,31.15,30.01,30.73,28.82z"/>
		<path class="st2" d="M22.81,28.82h-7.9c-0.41,1.19-1.36,2.13-2.55,2.54v8.13h10.45V28.82z"/>
		<path class="st3" d="M24.09,52.92c-0.3,0.17-0.62,0.35-1.24,0.35c-0.62,0-0.93-0.18-1.24-0.35c-0.29-0.16-0.56-0.32-1.11-0.32
			c-0.27,0-0.47,0.04-0.64,0.09l2.94,1.59l2.97-1.6c-0.16-0.05-0.35-0.08-0.59-0.08C24.65,52.6,24.38,52.75,24.09,52.92z"/>
		<path class="st3" d="M25.19,51.17c-0.55,0-0.82,0.15-1.11,0.32c-0.3,0.17-0.62,0.35-1.24,0.35c-0.62,0-0.93-0.18-1.24-0.35
			c-0.29-0.16-0.56-0.32-1.11-0.32c-0.55,0-0.82,0.15-1.11,0.32c-0.28,0.16-0.57,0.32-1.11,0.35l1.28,0.69
			c0.23-0.11,0.51-0.19,0.94-0.19c0.62,0,0.93,0.18,1.24,0.35c0.29,0.16,0.56,0.32,1.11,0.32c0.55,0,0.82-0.15,1.11-0.32
			c0.3-0.17,0.62-0.35,1.24-0.35c0.41,0,0.68,0.08,0.9,0.18l1.25-0.67c-0.5-0.03-0.78-0.19-1.05-0.35
			C26.01,51.33,25.74,51.17,25.19,51.17z"/>
		<path class="st3" d="M33.28,39.5v-8.13c-1.19-0.41-2.13-1.36-2.55-2.54h-7.92h-0.01h-7.9c-0.41,1.19-1.36,2.13-2.55,2.54v8.13
			v4.54c0,2.2,0.94,4.26,2.52,5.7c0.23-0.11,0.52-0.2,0.95-0.2c0.62,0,0.93,0.18,1.24,0.35c0.29,0.16,0.56,0.32,1.11,0.32
			c0.55,0,0.82-0.15,1.11-0.32c0.3-0.17,0.62-0.35,1.24-0.35c0.62,0,0.93,0.18,1.24,0.35c0.28,0.16,0.54,0.31,1.06,0.32V39.5H33.28z
			"/>
		<path class="st3" d="M17.73,51.54c0.13,0.03,0.27,0.04,0.43,0.04c0.55,0,0.82-0.15,1.11-0.32c0.3-0.17,0.62-0.35,1.24-0.35
			c0.62,0,0.93,0.18,1.24,0.35c0.29,0.16,0.56,0.32,1.11,0.32c0.55,0,0.82-0.15,1.11-0.32c0.3-0.17,0.62-0.35,1.24-0.35
			c0.62,0,0.93,0.18,1.24,0.35c0.29,0.16,0.56,0.32,1.11,0.32c0.12,0,0.23-0.01,0.34-0.03l1.36-0.73c0.48-0.26,0.93-0.57,1.34-0.92
			c-0.17-0.06-0.38-0.11-0.69-0.11c-0.55,0-0.82,0.15-1.11,0.32c-0.3,0.17-0.62,0.35-1.24,0.35c-0.62,0-0.93-0.18-1.24-0.35
			c-0.29-0.16-0.56-0.32-1.11-0.32c-0.55,0-0.82,0.15-1.11,0.32c-0.3,0.17-0.62,0.35-1.24,0.35c-0.62,0-0.93-0.18-1.24-0.35
			c-0.29-0.16-0.56-0.32-1.11-0.32c-0.55,0-0.82,0.15-1.11,0.32c-0.3,0.17-0.62,0.35-1.24,0.35c-0.62,0-0.93-0.18-1.24-0.35
			c-0.29-0.16-0.56-0.32-1.11-0.32c-0.33,0-0.56,0.06-0.73,0.13c0.4,0.34,0.84,0.64,1.32,0.9L17.73,51.54z"/>
		<path class="st2" d="M23.96,49.89c0.3-0.17,0.62-0.35,1.24-0.35c0.62,0,0.93,0.18,1.24,0.35c0.29,0.16,0.56,0.32,1.11,0.32
			c0.55,0,0.82-0.15,1.11-0.32c0.3-0.17,0.62-0.35,1.24-0.35c0.42,0,0.69,0.08,0.9,0.18c1.57-1.44,2.5-3.49,2.5-5.68V39.5H22.81
			v10.7c0.02,0,0.03,0,0.05,0C23.4,50.2,23.67,50.05,23.96,49.89z"/>
		<path class="st2" d="M31.48,49.82c-0.01,0.01-0.01,0.01-0.02,0.02C31.47,49.83,31.47,49.83,31.48,49.82z"/>
		<path class="st0" d="M31.16,28.26h-8.34h-8.34c-0.3,1.33-1.35,2.38-2.69,2.68v13.09c0,3.04,1.67,5.84,4.35,7.29l6.68,3.6l6.68-3.6
			c0.61-0.33,1.17-0.74,1.66-1.19l0,0c0.1-0.09,0.2-0.19,0.3-0.29c0.01-0.01,0.01-0.01,0.02-0.02c0.38-0.39,0.72-0.82,1.02-1.27
			c0.02-0.03,0.04-0.06,0.06-0.09c0.06-0.1,0.12-0.2,0.18-0.3c0.02-0.03,0.04-0.07,0.05-0.1c0.1-0.18,0.2-0.37,0.29-0.56
			c0.02-0.04,0.04-0.09,0.06-0.13c0.04-0.08,0.07-0.17,0.1-0.25c0.03-0.07,0.06-0.14,0.08-0.22c0.03-0.08,0.06-0.16,0.08-0.23
			c0.03-0.09,0.06-0.18,0.08-0.27c0.02-0.07,0.04-0.13,0.06-0.2c0.04-0.15,0.08-0.31,0.11-0.46c0.01-0.05,0.02-0.1,0.03-0.14
			c0.02-0.12,0.04-0.24,0.06-0.36c0.01-0.06,0.02-0.12,0.02-0.18c0.01-0.12,0.03-0.24,0.04-0.35c0-0.05,0.01-0.11,0.01-0.16
			c0.01-0.17,0.02-0.34,0.02-0.51V39.5v-8.55C32.51,30.64,31.46,29.59,31.16,28.26z M22.82,54.28l-2.94-1.59
			c0.17-0.06,0.37-0.09,0.64-0.09c0.55,0,0.82,0.15,1.11,0.32c0.3,0.17,0.62,0.35,1.24,0.35c0.62,0,0.93-0.18,1.24-0.35
			c0.29-0.16,0.56-0.32,1.11-0.32c0.24,0,0.43,0.03,0.59,0.08L22.82,54.28z M26.1,52.51c-0.22-0.1-0.49-0.18-0.9-0.18
			c-0.62,0-0.93,0.18-1.24,0.35c-0.29,0.16-0.56,0.32-1.11,0.32c-0.55,0-0.82-0.15-1.11-0.32c-0.3-0.17-0.62-0.35-1.24-0.35
			c-0.43,0-0.71,0.09-0.94,0.19l-1.28-0.69c0.54-0.02,0.83-0.19,1.11-0.35c0.29-0.16,0.56-0.32,1.11-0.32
			c0.55,0,0.82,0.15,1.11,0.32c0.3,0.17,0.62,0.35,1.24,0.35c0.62,0,0.93-0.18,1.24-0.35c0.29-0.16,0.56-0.32,1.11-0.32
			c0.55,0,0.82,0.15,1.11,0.32c0.27,0.15,0.55,0.31,1.05,0.35L26.1,52.51z M29.23,50.82l-1.36,0.73c-0.1,0.02-0.21,0.03-0.34,0.03
			c-0.55,0-0.82-0.15-1.11-0.32c-0.3-0.17-0.62-0.35-1.24-0.35c-0.62,0-0.93,0.18-1.24,0.35c-0.29,0.16-0.56,0.32-1.11,0.32
			c-0.55,0-0.82-0.15-1.11-0.32c-0.3-0.17-0.62-0.35-1.24-0.35c-0.62,0-0.93,0.18-1.24,0.35c-0.29,0.16-0.56,0.32-1.11,0.32
			c-0.16,0-0.3-0.02-0.43-0.04l-1.32-0.71c-0.48-0.26-0.92-0.56-1.32-0.9c0.18-0.07,0.41-0.13,0.73-0.13c0.55,0,0.82,0.15,1.11,0.32
			c0.3,0.17,0.62,0.35,1.24,0.35c0.62,0,0.93-0.18,1.24-0.35c0.29-0.16,0.56-0.32,1.11-0.32c0.55,0,0.82,0.15,1.11,0.32
			c0.3,0.17,0.62,0.35,1.24,0.35c0.62,0,0.93-0.18,1.24-0.35c0.29-0.16,0.56-0.32,1.11-0.32c0.55,0,0.82,0.15,1.11,0.32
			c0.3,0.17,0.62,0.35,1.24,0.35c0.62,0,0.93-0.18,1.24-0.35c0.29-0.16,0.56-0.32,1.11-0.32c0.3,0,0.52,0.05,0.69,0.11
			C30.16,50.25,29.71,50.56,29.23,50.82z M33.28,44.03c0,2.19-0.93,4.24-2.5,5.68c-0.21-0.09-0.49-0.18-0.9-0.18
			c-0.62,0-0.93,0.18-1.24,0.35c-0.29,0.16-0.56,0.32-1.11,0.32c-0.55,0-0.82-0.15-1.11-0.32c-0.3-0.17-0.62-0.35-1.24-0.35
			c-0.62,0-0.93,0.18-1.24,0.35c-0.29,0.16-0.56,0.32-1.11,0.32c-0.02,0-0.03,0-0.05,0c-0.52-0.01-0.78-0.16-1.06-0.32
			c-0.3-0.17-0.62-0.35-1.24-0.35c-0.62,0-0.93,0.18-1.24,0.35c-0.29,0.16-0.56,0.32-1.11,0.32c-0.55,0-0.82-0.15-1.11-0.32
			c-0.3-0.17-0.62-0.35-1.24-0.35c-0.43,0-0.72,0.09-0.95,0.2c-1.58-1.44-2.52-3.5-2.52-5.7V39.5v-8.13
			c1.19-0.41,2.13-1.36,2.55-2.54h7.9h0.01h7.92c0.41,1.19,1.36,2.13,2.55,2.54v8.13V44.03z"/>
		<path class="st2" d="M22.68,24.44c-1.07,0-1.93,0.87-1.93,1.93c0,0.1,0.01,0.2,0.02,0.3h3.82c0.01-0.1,0.02-0.19,0.02-0.3
			C24.61,25.3,23.75,24.44,22.68,24.44z"/>
		<g>
			<g>
				<path class="st0" d="M27.37,45.3c-0.5-0.39-0.57-0.94-0.56-1.42c0.01-0.51-0.11-0.69-0.53-0.88c-0.28-0.13-0.56-0.29-0.85-0.44
					c-0.17,0.52-0.24,1.05,0.07,1.57c0.17,0.28,0.39,0.49,0.62,0.64c0,0,0,0,0,0C26.65,45.16,27.37,45.3,27.37,45.3z"/>
			</g>
			<g>
				<g>
					<path class="st0" d="M25.95,44.99c-0.03-0.02-0.05-0.04-0.08-0.06c-0.25-0.18-0.51-0.23-0.79-0.14
						c-0.42,0.14-0.75,0.45-1.06,0.77c0.23,0.11,0.44,0.2,0.65,0.3c0.2,0.1,0.38,0.23,0.58,0.33c0.38,0.2,0.77,0.22,1.15-0.01
						c0.21-0.13,0.43-0.26,0.64-0.39c0,0,0,0,0,0c0.24-0.12,0.5-0.32,0.51-0.33c0,0-0.03,0.01-0.19,0.01
						C26.71,45.51,26.02,45.04,25.95,44.99z"/>
				</g>
				<g>
					<path class="st0" d="M27.66,45.48C27.66,45.48,27.66,45.48,27.66,45.48C27.66,45.48,27.66,45.48,27.66,45.48z"/>
				</g>
			</g>
			<g>
				<path class="st0" d="M28.65,45.3c0.5-0.39,0.57-0.94,0.56-1.42c-0.01-0.51,0.11-0.69,0.53-0.88c0.28-0.13,0.56-0.29,0.85-0.44
					c0.17,0.52,0.24,1.05-0.07,1.57c-0.17,0.28-0.39,0.49-0.62,0.64c0,0,0,0,0,0C29.37,45.16,28.65,45.3,28.65,45.3z"/>
			</g>
			<g>
				<g>
					<path class="st0" d="M30.07,44.99c0.03-0.02,0.05-0.04,0.08-0.06c0.25-0.18,0.51-0.23,0.79-0.14c0.42,0.14,0.75,0.45,1.06,0.77
						c-0.23,0.11-0.44,0.2-0.65,0.3c-0.2,0.1-0.38,0.23-0.58,0.33c-0.38,0.2-0.77,0.22-1.15-0.01c-0.21-0.13-0.43-0.26-0.64-0.39
						c0,0,0,0,0,0c-0.24-0.12-0.5-0.32-0.51-0.33c0,0,0.03,0.01,0.19,0.01C29.31,45.51,30,45.04,30.07,44.99z"/>
				</g>
				<g>
					<path class="st0" d="M28.36,45.48C28.36,45.48,28.36,45.48,28.36,45.48C28.36,45.48,28.36,45.48,28.36,45.48z"/>
				</g>
			</g>
			<g>
				<path class="st0" d="M28.6,43.08c-0.19-0.33-0.38-0.66-0.6-1.03v0c0,0,0,0,0,0c0,0,0,0,0,0v0c-0.21,0.37-0.4,0.7-0.6,1.03
					c-0.59,1-0.24,1.76,0.45,2.31v0l0.15,0.13v0l0,0l0,0v0l0.15-0.13v0C28.84,44.83,29.19,44.08,28.6,43.08z"/>
			</g>
			<g>
				<path class="st0" d="M28.66,46.09c-0.18-0.08-0.37-0.15-0.57-0.23l-0.08-0.04v0l0,0l0,0v0l-0.08,0.04
					c-0.2,0.08-0.39,0.14-0.57,0.23c-0.25,0.1-0.43,0.31-0.43,0.61c0,0.2,0.09,0.38,0.22,0.49c0.02,0.02,0.59,0.57,0.86,0.82
					c0,0,0,0,0,0c0,0,0,0,0,0c0.28-0.25,0.85-0.8,0.86-0.82c0.13-0.11,0.22-0.29,0.22-0.49C29.09,46.4,28.91,46.19,28.66,46.09z"/>
			</g>
		</g>
		<path class="st4" d="M20.92,34.36c0-0.01,0-0.01,0-0.02c0-0.01,0-0.02,0-0.03c-0.01-0.43-0.1-0.84-0.25-1.22
			c0-0.01,0-0.02-0.01-0.02c0,0,0-0.01-0.01-0.01c-0.18-0.45-0.45-0.85-0.79-1.18c0,0,0-0.01-0.01-0.01c0,0-0.01,0-0.01-0.01
			c-0.3-0.29-0.65-0.53-1.03-0.7c-0.01,0-0.01-0.01-0.02-0.01c0,0-0.01,0-0.01,0c-0.43-0.18-0.9-0.29-1.39-0.29c0,0-0.01,0-0.01,0
			c0,0-0.01,0-0.01,0c-0.45,0-0.89,0.09-1.28,0.25c-0.01,0-0.02,0-0.03,0.01c0,0-0.01,0-0.01,0.01c-0.45,0.18-0.85,0.45-1.18,0.79
			c0,0-0.01,0-0.01,0c0,0,0,0.01-0.01,0.01c-0.3,0.3-0.54,0.66-0.71,1.06c0,0,0,0,0,0.01c0,0,0,0,0,0c-0.18,0.43-0.29,0.9-0.29,1.39
			c0,0.01,0,0.02,0,0.03c0,0.01,0,0.01,0,0.02c0,0.01,0,0.02,0,0.03c0.01,0.43,0.1,0.84,0.25,1.22c0,0.01,0,0.01,0.01,0.02
			c0,0,0,0.01,0.01,0.01c0.18,0.45,0.46,0.85,0.8,1.19c0,0,0,0,0,0.01c0,0,0.01,0,0.01,0.01c0.3,0.29,0.65,0.53,1.04,0.7
			c0,0,0.01,0,0.01,0.01c0,0,0,0,0.01,0c0.43,0.19,0.9,0.29,1.4,0.29c0.46,0,0.9-0.09,1.3-0.25c0.01,0,0.01,0,0.02-0.01
			c0,0,0.01,0,0.01-0.01c0.45-0.18,0.85-0.45,1.19-0.8c0,0,0,0,0.01,0c0,0,0-0.01,0.01-0.01c0.3-0.31,0.54-0.66,0.71-1.06
			c0,0,0,0,0,0c0,0,0,0,0,0c0.18-0.43,0.29-0.9,0.29-1.39C20.92,34.38,20.92,34.37,20.92,34.36z M20.48,33.45
			c0.06,0.2,0.1,0.41,0.12,0.62c-0.14,0.02-0.25,0.14-0.25,0.28l-1.37-0.13L18,34.31c0,0,0-0.01,0-0.01l-0.03,0
			c0-0.02-0.01-0.04-0.01-0.06l0.97-0.29l1.23-0.63C20.23,33.43,20.35,33.48,20.48,33.45z M19.83,32.29
			c0.17,0.19,0.31,0.41,0.43,0.64c-0.12,0.06-0.17,0.2-0.13,0.32l-1.32,0.39l-0.88,0.44c0,0,0-0.01-0.01-0.01l-0.02,0.01
			c-0.01-0.02-0.03-0.04-0.04-0.06l0.77-0.65l0.88-1.07C19.6,32.37,19.74,32.37,19.83,32.29z M18.93,31.56
			c0.18,0.1,0.35,0.21,0.5,0.34c-0.08,0.1-0.08,0.25,0,0.35l-1.06,0.89l-0.62,0.76c0,0-0.01,0-0.01-0.01l-0.02,0.02
			c-0.02-0.02-0.05-0.03-0.07-0.04l0.01,0l0.02,0.01l0.48-0.89l0.42-1.31C18.73,31.73,18.87,31.67,18.93,31.56z M17.68,31.18
			c0.26,0.02,0.5,0.08,0.74,0.15c-0.04,0.12,0.01,0.24,0.11,0.31l-0.66,1.22l-0.31,0.96l0.02,0.01l0.02,0.01
			c-0.04-0.01-0.08-0.02-0.12-0.03l0.09-1.01l-0.13-1.38C17.56,31.41,17.66,31.31,17.68,31.18z M16.46,31.3
			c0.21-0.06,0.43-0.11,0.66-0.13c0.01,0.13,0.12,0.23,0.24,0.24l-0.13,1.38l0.09,0.98c0,0-0.01,0-0.01,0l0,0.03
			c-0.03,0-0.06,0.01-0.09,0.02l0.01,0l0.02-0.01l-0.29-0.97l-0.63-1.23C16.44,31.55,16.49,31.43,16.46,31.3z M15.94,31.52
			c0.06,0.11,0.2,0.17,0.32,0.13l0.39,1.33l0.45,0.9l0.02-0.01v0l0.02-0.01c-0.05,0.02-0.09,0.05-0.13,0.09l0,0l0,0l0.02-0.02
			l-0.66-0.77l-1.07-0.87c0.07-0.1,0.07-0.24-0.01-0.34C15.49,31.78,15.71,31.64,15.94,31.52z M14.91,32.34
			c0.1,0.08,0.25,0.08,0.35,0l0.89,1.06l0.78,0.64l0.02-0.02l0,0L16.96,34c-0.03,0.04-0.06,0.08-0.08,0.12l0-0.01l0.01-0.02
			L16,33.61l-1.31-0.42c0.04-0.13-0.02-0.26-0.13-0.32C14.66,32.68,14.78,32.5,14.91,32.34z M14.34,33.38
			c0.12,0.04,0.25-0.02,0.32-0.12l1.22,0.66l0.96,0.31l0.01-0.02l0.01-0.02c-0.02,0.05-0.03,0.1-0.03,0.16l0-0.01l0-0.03l-1.01-0.09
			l-1.38,0.13c-0.03-0.11-0.12-0.19-0.24-0.2C14.21,33.88,14.26,33.62,14.34,33.38z M14.31,35.33c-0.06-0.2-0.1-0.41-0.12-0.62
			c0.14-0.02,0.25-0.14,0.25-0.28l1.37,0.13l1-0.09l0-0.03l0-0.02c0,0.05,0.01,0.1,0.03,0.15l0-0.01l0,0l-0.01-0.02l-0.97,0.29
			l-1.23,0.63C14.56,35.35,14.44,35.29,14.31,35.33z M14.96,36.48c-0.17-0.19-0.31-0.41-0.43-0.64c0.11-0.06,0.17-0.2,0.13-0.32
			l1.32-0.39l0.9-0.45l-0.01-0.02l-0.01-0.02c0.02,0.05,0.05,0.09,0.09,0.14l0,0l0,0l-0.02-0.02l-0.77,0.66l-0.87,1.07
			C15.19,36.4,15.05,36.41,14.96,36.48z M15.86,37.22c-0.18-0.1-0.35-0.21-0.5-0.34c0.08-0.1,0.08-0.25,0-0.35l1.06-0.89l0.64-0.78
			l-0.02-0.02l0,0L17,34.82c0.03,0.03,0.06,0.05,0.09,0.07l-0.48,0.89l-0.42,1.31C16.07,37.05,15.92,37.1,15.86,37.22z M17.11,37.59
			c-0.26-0.02-0.5-0.08-0.74-0.15c0.04-0.12-0.01-0.24-0.11-0.31l0.66-1.22l0.3-0.93l0.01,0l0.01-0.02
			c0.03,0.01,0.07,0.01,0.11,0.02l-0.01,0v0l-0.03,0l-0.09,1.01l0.13,1.37C17.23,37.37,17.13,37.47,17.11,37.59z M18.33,37.47
			c-0.21,0.06-0.43,0.11-0.66,0.13c-0.01-0.13-0.12-0.23-0.24-0.25l0.13-1.38l-0.09-1l-0.03,0l-0.03,0c0.04,0,0.08-0.01,0.12-0.02
			l0.29,0.97l0.63,1.23C18.35,37.22,18.3,37.34,18.33,37.47z M18.86,37.25c-0.06-0.11-0.2-0.17-0.32-0.13l-0.39-1.32l-0.44-0.88
			c0,0,0,0,0,0l0.01,0l-0.01-0.02c0.02-0.01,0.04-0.03,0.06-0.04l0.65,0.77l1.07,0.87c-0.07,0.1-0.07,0.24,0.01,0.34
			C19.3,36.99,19.09,37.14,18.86,37.25z M19.88,36.43c-0.1-0.08-0.25-0.08-0.35,0l-0.89-1.06l-0.76-0.62c0,0,0,0,0,0l0.01-0.01
			l-0.02-0.02c0.01-0.01,0.02-0.03,0.03-0.04l0.89,0.48l1.32,0.42c-0.04,0.13,0.02,0.26,0.13,0.32
			C20.13,36.1,20.02,36.27,19.88,36.43z M20.45,35.39c-0.12-0.04-0.25,0.02-0.32,0.12l-1.22-0.66l-0.93-0.3c0,0,0-0.01,0-0.01
			l-0.02-0.01c0.01-0.02,0.01-0.05,0.01-0.07l1,0.09l0,0l1.38-0.13c0.03,0.11,0.12,0.19,0.24,0.2
			C20.59,34.89,20.53,35.15,20.45,35.39z"/>
	</g>
</g>
</svg>
