<?xml version="1.0" encoding="utf-8"?>
<!-- Generator: Adobe Illustrator 27.6.1, SVG Export Plug-In . SVG Version: 6.00 Build 0)  -->
<svg version="1.1" id="Layer_1" xmlns="http://www.w3.org/2000/svg" xmlns:xlink="http://www.w3.org/1999/xlink" x="0px" y="0px"
	 viewBox="0 0 300 100" style="enable-background:new 0 0 300 100;" xml:space="preserve">
<style type="text/css">
	.st0{fill:#1C3564;}
	.st1{fill:#A87D4B;}
	.st2{fill:#FFFFFF;}
	.st3{fill:none;}
	.st4{fill-rule:evenodd;clip-rule:evenodd;fill:#FFFFFF;}
</style>
<g>
	<g>
		<g>
			<path class="st0" d="M73.3,18.9H32c0,3.3-2.7,6-6,6v31.3c0,7.9,4.4,15.3,11.4,19l15.3,7.9l0,0l0,0l15.3-7.9
				c7-3.8,11.4-11.1,11.4-19V24.9C76,24.9,73.3,22.2,73.3,18.9z"/>
		</g>
		<g>
			<g>
				<g>
					<path class="st0" d="M19.4,81.8c0,0,0.5-1.3,3.4-0.2c2,0.9,3.8,3.7,6.2,5.4l-1.5,2.1c-0.9,1.2-2.4,1.8-4,1.5
						c-0.6-0.1-1.4-0.4-2.1-0.9C18.4,87.9,11,83.2,11,83.2s-3.6-2.9-6.3-0.8C6.5,81.7,7.5,82,7.5,82l-2.2,5.6c0,0-4-2.5-1.9-5.6
						c2-2,6-5.7,8.1-7.7c1.1-1.1,2.7-1.6,4.3-1.4c1.8,0.2,4.4,1,7.2,3.1l-1.1,1.3l-4.5-2.5l4.2,2.8l-1,1.2l-4.2-2.6l3.9,3l-1.1,1.3
						l-4.4-2.8l4.1,3.3c0,0-0.7,1.2,0,2.2l-5.4-3.5l11.5,9.2l-12.8-7.6c0,0,10.2,7.2,11.5,7.8c1.2,0.6,2,0.3,2.4-0.3l-6-4.9
						C19.9,83.8,18.9,82.8,19.4,81.8z"/>
				</g>
			</g>
			<g>
				<g>
					<g>
						<path class="st0" d="M85.9,81.8c0,0-0.6-1.3-3.4-0.2c-2,0.9-3.8,3.7-6.2,5.4l1.6,2.1c0.9,1.2,2.4,1.8,3.9,1.5
							c0.6-0.1,1.4-0.4,2.1-0.9c3.1-1.9,10.4-6.6,10.4-6.6s3.6-2.9,6.3-0.8c-1.5-0.8-3.1-0.2-3.1-0.2l2.5,5.5c0,0,4.1-2.5,1.9-5.6
							c-2-2-6-5.7-8.1-7.7c-1.1-1.1-2.7-1.6-4.3-1.4c-1.8,0.2-4.4,1-7.2,3.1l1.1,1.3l4.5-2.5l-4.2,2.8l1,1.2l4.2-2.6l-3.9,3l1.1,1.3
							l4.4-2.8l-4.1,3.3c0,0,0.7,1.2,0.1,2.2l5.4-3.5l-11.5,9.2l12.8-7.6c0,0-10.2,7.2-11.5,7.8c-1.2,0.6-2,0.3-2.4-0.3l6-4.9
							C85.4,83.8,86.4,82.8,85.9,81.8z"/>
					</g>
				</g>
				<g>
					<path class="st0" d="M78.8,73.1c-0.5-0.3-2.5-0.5-4.8,1.2c-9.7,8.8-17.6,11.2-21.4,11.7c-0.2,0-0.5-0.1-0.8-0.1
						c-4-0.7-11.5-3.3-20.5-11.5c-2.3-1.7-4.3-1.5-4.8-1.2c-0.5,0.3-6.7,7.6-6.7,7.6s2.3-1.3,5.2,1.3c2.5,2.1,11.1,12,26.9,13
						c0.3,0,1.4,0,1.6,0c15.1-1,24.4-10.8,26.9-13c3-2.6,5.2-1.3,5.2-1.3S79.3,73.4,78.8,73.1z"/>
				</g>
			</g>
		</g>
		<g>
			<g>
				<g>
					<path class="st1" d="M25,70.7c0,0,0.6-1.8,0.6-3.2c0-1.9-1-3.4-1-3.4s-1.3,1.7-1.1,3.3C23.7,68.9,25,70.7,25,70.7z"/>
				</g>
				<g>
					<path class="st1" d="M17.9,67.3c0,0,2.1-0.1,3.7,0.6c1.9,0.8,2.9,3.1,2.9,3.1s-2.8-0.1-4.2-0.9C19,69.2,17.9,67.3,17.9,67.3z"
						/>
				</g>
			</g>
			<g>
				<g>
					<path class="st1" d="M22.5,66.5c0,0,0.7-1.4,1.2-2.3c0.8-1.5,0.1-4.5,0.1-4.5s-2,1.6-2.2,3.3C21.5,64.6,22.5,66.5,22.5,66.5z"
						/>
				</g>
				<g>
					<path class="st1" d="M16,61.8c0,0,1.5,0,2.9,0.8c2.1,1.2,2.9,4.1,2.9,4.1s-2.6-0.5-3.9-1.6C16.6,63.9,16,61.8,16,61.8z"/>
				</g>
			</g>
			<g>
				<g>
					<path class="st1" d="M20.9,62c0,0,1.1-1.3,1.8-2c1.2-1.3,0.7-4.3,0.7-4.3s-2,1.2-2.5,2.7C20.4,60,20.9,62,20.9,62z"/>
				</g>
				<g>
					<path class="st1" d="M15.4,56.2c0,0,2.1,0.6,3.2,1.8c1.4,1.5,1.6,3.9,1.6,3.9s-2.6-0.9-3.6-2.2C15.6,58.4,15.4,56.2,15.4,56.2z
						"/>
				</g>
			</g>
			<g>
				<g>
					<path class="st1" d="M20.2,57c0,0,1.6-0.9,2.3-1.6c1.2-1.2,0.9-3.9,0.9-3.9s-2.1,1-2.7,2.4C20.1,55.3,20.2,57,20.2,57z"/>
				</g>
				<g>
					<path class="st1" d="M15.9,51.2c0,0,1.8,1,2.5,1.8c1.3,1.6,1.1,4.1,1.1,4.1s-2.2-1.1-3-2.5C15.8,53.3,15.9,51.2,15.9,51.2z"/>
				</g>
			</g>
			<g>
				<path class="st1" d="M20.3,52.7c0,0,1.7-1.1,2.4-2c1.2-1.5,0.6-3.5,0.6-3.5s-1.8,0.7-2.4,2.4C20.3,50.9,20.3,52.7,20.3,52.7z"/>
			</g>
			<g>
				<path class="st1" d="M16.9,46.7c0,0,1.2,0.8,1.8,2c1,1.8,0.7,4.4,0.7,4.4s-1.8-1.6-2.3-3C16.5,48.6,16.9,46.7,16.9,46.7z"/>
			</g>
			<g>
				<g>
					<path class="st1" d="M20.7,42.9c0,0,0.5,1.5,0.6,2.7c0.2,2.3-1.4,3.5-1.4,3.5s-1.2-1.7-0.7-3.6C19.6,44.3,20.7,42.9,20.7,42.9z
						"/>
				</g>
			</g>
		</g>
		<g>
			<g>
				<g>
					<path class="st1" d="M80.3,70.7c0,0-0.6-1.8-0.6-3.2c0-1.9,1-3.4,1-3.4s1.3,1.7,1.1,3.3C81.6,68.9,80.3,70.7,80.3,70.7z"/>
				</g>
				<g>
					<path class="st1" d="M87.4,67.3c0,0-2.1-0.1-3.7,0.6c-1.9,0.8-2.9,3.1-2.9,3.1s2.8-0.1,4.2-0.9C86.4,69.2,87.4,67.3,87.4,67.3z
						"/>
				</g>
			</g>
			<g>
				<g>
					<path class="st1" d="M82.9,66.5c0,0-0.7-1.4-1.2-2.3c-0.8-1.5-0.1-4.5-0.1-4.5s2,1.6,2.2,3.3C83.9,64.6,82.9,66.5,82.9,66.5z"
						/>
				</g>
				<g>
					<path class="st1" d="M89.4,61.8c0,0-1.6,0-2.9,0.8c-2.1,1.2-2.9,4.1-2.9,4.1s2.6-0.5,3.9-1.6C88.7,63.9,89.4,61.8,89.4,61.8z"
						/>
				</g>
			</g>
			<g>
				<g>
					<path class="st1" d="M84.5,62c0,0-1.1-1.3-1.8-2c-1.2-1.3-0.7-4.3-0.7-4.3s2,1.2,2.5,2.7C85,60,84.5,62,84.5,62z"/>
				</g>
				<g>
					<path class="st1" d="M89.9,56.2c0,0-2.1,0.6-3.2,1.8c-1.4,1.5-1.6,3.9-1.6,3.9s2.6-0.9,3.6-2.2C89.7,58.4,89.9,56.2,89.9,56.2z
						"/>
				</g>
			</g>
			<g>
				<g>
					<path class="st1" d="M85.2,57c0,0-1.6-0.9-2.3-1.6c-1.2-1.2-0.9-3.9-0.9-3.9s2.1,1,2.7,2.4C85.2,55.3,85.2,57,85.2,57z"/>
				</g>
				<g>
					<path class="st1" d="M89.4,51.2c0,0-1.8,1-2.5,1.8c-1.3,1.6-1.1,4.1-1.1,4.1s2.2-1.1,3-2.5C89.5,53.3,89.4,51.2,89.4,51.2z"/>
				</g>
			</g>
			<g>
				<path class="st1" d="M85.1,52.7c0,0-1.7-1.1-2.4-2c-1.2-1.5-0.6-3.5-0.6-3.5s1.8,0.7,2.4,2.4C85,50.9,85.1,52.7,85.1,52.7z"/>
			</g>
			<g>
				<path class="st1" d="M88.4,46.7c0,0-1.2,0.8-1.8,2c-1,1.8-0.7,4.4-0.7,4.4s1.8-1.6,2.3-3C88.8,48.6,88.4,46.7,88.4,46.7z"/>
			</g>
			<g>
				<g>
					<path class="st1" d="M84.6,42.9c0,0-0.5,1.5-0.6,2.7c-0.2,2.3,1.4,3.5,1.4,3.5s1.2-1.7,0.7-3.6C85.8,44.3,84.6,42.9,84.6,42.9z
						"/>
				</g>
			</g>
		</g>
		<g>
			<path class="st2" d="M73.9,34.5c0,0.5-0.5,0.9-1.3,0.9c-0.1,0-0.3,0-0.4,0c0,0.6-0.1,0.7-0.3,1.3c-0.2,0.6-0.4,0.8-0.7,1.4
				c-0.2,0.4-0.3,1.1-0.3,1.5c0,0.4,0,0.7,0,1.1c0,0.2,0,0.4,0.1,0.6c0,0.2,0,0.2-0.2,0.3c-0.5,0.2-1,0.2-1.6,0.2
				c-0.1,0-0.1,0-0.1,0c-0.2,0-0.2-0.1-0.2-0.3c0.2-0.5,0.3-1.1,0.3-1.7c0-0.2,0-0.4,0-0.6c0-0.2-0.4-0.2-0.5,0
				c0,0.1-0.1,0.2-0.1,0.3c0,0.4-0.1,0.9-0.1,1.3c0,0.2-0.1,0.4-0.1,0.6c-0.1,0.2-0.2,0.2-0.3,0.2c-0.4,0-0.8,0-1.2-0.1
				c-0.2,0-0.3-0.1-0.2-0.3c0.1-0.3,0.2-0.6,0.2-0.9c0-0.6,0.1-1.3,0.1-1.9c0.4-0.1,0.9-0.1,1.3,0.1c-0.1-0.2-0.3-0.3-0.6-0.4
				c-0.2,0-0.5,0-0.7,0s-0.4,0.1-0.7,0.2c0.1-0.3,0.1-0.7,0-1c-0.2,0.4-0.3,0.9-0.3,1.3c0,0.6,0.1,1.2,0.1,1.8c0,0.3,0.1,0.7,0.1,1
				c0,0.2-0.1,0.3-0.3,0.3c-0.4,0-0.9,0-1.3,0c-0.3,0-0.3,0-0.3-0.3c0-0.9-0.2-1.8-0.5-2.7c-0.1-0.2-0.3-0.5-0.5-0.4
				c-0.3,0.2-0.5,0.5-0.4,0.9c0.1,0.2,0.3,0.6,0.3,0.8c0.1,0.2,0,0.3-0.2,0.5c-0.5,0.3-0.8,0.4-1.4,0.4c-0.1,0-0.1,0-0.2-0.1
				c-0.1-0.2-0.2-0.5-0.3-0.7c-0.1-0.3-0.3-0.6-0.4-0.9c-0.2-0.4-0.1-0.8,0.2-1.1c0.3-0.5,0.7-0.9,1-1.4c0,0,0.1-0.1,0.2-0.2
				c0.4,0.2,0.7,0.5,1.1,0.7c0,0,0,0,0,0c0,0-0.1-0.1-0.1-0.2c-0.2-0.2-0.4-0.5-0.7-0.6c-0.4-0.3-0.8-0.7-1-1.2
				C61,34.1,60,34.7,59,34c-1.1-0.7-0.9-1.3-1.8-1.6c0.1-0.1,0.2-0.2,0.3-0.2c0.1,0,0.1-0.1,0.1-0.1c0.1-0.1,0.1-0.2,0-0.3
				c-0.9-0.6-1.3-1.4-1.3-2.4c0-0.8,0.4-1.4,0.9-1.9c0.2-0.1,0.3-0.3,0.5-0.4c0.2-0.1,0.2-0.3,0.3-0.4c0-0.2,0-0.2-0.1-0.3
				c-0.1-0.1-0.3,0-0.5,0c-0.1,0-0.2,0-0.3-0.1c-0.1-0.1,0-0.2,0.1-0.3c0.4-0.4,1.3-0.3,1.5,0c0.6,0.8-0.6,1.9-0.9,2.7
				c-0.2,0.4,0,0.9,0.4,0.9c0.4,0,0.8,0,1.2-0.2c0.5-0.2,0.9-0.3,1.4-0.2c0.8,0,1.4,0.4,1.8,1c0.1,0.1,0.2,0.2,0.2,0.4
				c0.1,0.1,0.2,0.1,0.3,0.1c0.3-0.1,0.7-0.2,1.1-0.3c0.3,0,0.6,0,0.8,0c0.2,0,0.4,0.2,0.6,0.4c0.1,0.1,0.1,0.2,0.2,0.2
				c-0.1,0.1-0.2,0.1-0.3,0.2c-0.3,0.2-0.4,0.5-0.4,0.9c0.1,0.5-0.1,0.9-0.5,1.2c-0.4,0.3-0.8,0.5-1.3,0.7c-0.1,0-0.1,0-0.2,0.1
				c0,0,0,0,0,0c0.4-0.1,0.8-0.2,1.3-0.4c0.7-0.3,1.1-0.9,0.9-1.7c0-0.2,0-0.4,0.2-0.6c0.3-0.3,0.6-0.5,1-0.5c0.6,0,1.3,0,1.9,0.2
				c1.1,0.3,1.9,0.9,2.6,1.9c0.3,0.4,0.5,0.8,0.8,1.2c0.1,0.1,0.2,0.2,0.3,0.3c0.2,0.1,0.8,0.2,0.9,0c0.2-0.2,0.2-0.5,0-0.5
				c-0.1,0-0.2,0.2-0.3,0.1c-0.1,0-0.1-0.1-0.1-0.2c0-0.1,0.2-0.2,0.3-0.2C73.6,33.7,73.9,34,73.9,34.5z"/>
		</g>
		<g>
			<path class="st2" d="M29.1,80.1l2.3-1.8l0.7,0.5l-3.2,2.3l-0.7-0.5l1.1-3.8l0.7,0.5L29.1,80.1z"/>
			<path class="st2" d="M30.9,82.7l-0.6-0.5l1.8-2.2l0.6,0.5L30.9,82.7z M32.4,79.5c0.1-0.1,0.2-0.1,0.3-0.1c0.1,0,0.2,0,0.3,0.1
				c0.1,0.1,0.2,0.2,0.2,0.3s0,0.2-0.1,0.3c-0.1,0.1-0.2,0.1-0.3,0.1c-0.1,0-0.2,0-0.3-0.1c-0.1-0.1-0.2-0.2-0.2-0.3
				C32.3,79.7,32.4,79.6,32.4,79.5z"/>
			<path class="st2" d="M32.3,82.1c0.3-0.3,0.5-0.6,0.9-0.7c0.3-0.1,0.6,0,0.9,0.2c0.2,0.2,0.3,0.4,0.4,0.7l0.8-1.1l0.6,0.4
				l-2.4,3.2l-0.5-0.4l0.2-0.3c-0.3,0.1-0.5,0-0.8-0.2c-0.3-0.2-0.4-0.5-0.4-0.8C31.9,82.8,32,82.4,32.3,82.1z M32.9,82.5
				c-0.2,0.2-0.2,0.4-0.2,0.6s0,0.3,0.2,0.4c0.2,0.1,0.4,0.2,0.6,0.1l0.7-0.9c0-0.2,0-0.4-0.2-0.5C33.5,81.9,33.2,82.1,32.9,82.5z"
				/>
			<path class="st2" d="M35.6,84.9l1.4-1.2l0.7,0.4l-2.7,2l-0.1,0.1c-0.3,0.2-0.7,0.2-1,0c-0.1-0.1-0.2-0.1-0.2-0.2l0.3-0.5l0.1,0.1
				c0.1,0.1,0.2,0.1,0.3,0.1s0.2,0,0.3-0.1l0.2-0.1l0.8-2.9l0.7,0.4L35.6,84.9z"/>
			<path class="st2" d="M38,87.7c0-0.1,0-0.2,0.1-0.2c-0.3,0.1-0.5,0-0.8-0.1c-0.2-0.1-0.4-0.3-0.5-0.6c-0.1-0.2-0.1-0.4,0.1-0.7
				c0.2-0.2,0.4-0.4,0.6-0.4c0.3,0,0.6,0.1,0.9,0.3l0.3,0.2l0.1-0.1c0.1-0.1,0.1-0.2,0.1-0.3c0-0.1-0.1-0.2-0.2-0.3
				c-0.1-0.1-0.2-0.1-0.3-0.1c-0.1,0-0.2,0.1-0.2,0.2l-0.6-0.4c0.1-0.1,0.2-0.2,0.4-0.3s0.3-0.1,0.5-0.1s0.4,0.1,0.6,0.2
				c0.3,0.2,0.5,0.4,0.6,0.6c0.1,0.2,0,0.5-0.1,0.8l-0.6,1c-0.1,0.2-0.2,0.4-0.2,0.6l0,0L38,87.7z M37.7,86.9
				c0.1,0.1,0.2,0.1,0.3,0.1c0.1,0,0.2,0,0.3-0.1l0.2-0.4l-0.2-0.1c-0.3-0.2-0.6-0.2-0.7,0l0,0c-0.1,0.1-0.1,0.2,0,0.2
				S37.6,86.8,37.7,86.9z M40.1,85.1l-1.6-1l0.2-0.4l1.6,1L40.1,85.1z"/>
			<path class="st2" d="M43.8,86.4l0.7,0.3l-1.1,2.4c-0.1,0.2-0.2,0.4-0.4,0.5c-0.2,0.1-0.4,0.2-0.6,0.2c-0.2,0-0.4,0-0.7-0.1
				c-0.4-0.2-0.6-0.4-0.7-0.7c-0.1-0.3-0.1-0.6,0.1-0.9l0.7,0.3c-0.1,0.2-0.1,0.3-0.1,0.4c0,0.1,0.1,0.2,0.3,0.3
				c0.1,0.1,0.3,0.1,0.4,0c0.1-0.1,0.2-0.2,0.3-0.3L43.8,86.4z"/>
			<path class="st2" d="M45.4,88.1l-0.1,0.3c0.3-0.2,0.6-0.2,0.9-0.1c0.3,0.1,0.5,0.2,0.6,0.4s0.1,0.5,0,0.8l-0.5,1.7l-0.7-0.2
				l0.5-1.7c0.1-0.2,0.1-0.3,0-0.4c-0.1-0.1-0.1-0.2-0.3-0.2c-0.2-0.1-0.4,0-0.5,0.1l-0.6,1.9l-0.7-0.2l0.8-2.7L45.4,88.1z
				 M47.1,87.4c-0.1,0.2-0.2,0.3-0.3,0.4c-0.2,0.1-0.3,0.1-0.4,0.1c-0.1,0-0.1,0-0.2-0.1s-0.1-0.1-0.2-0.2s-0.1-0.1-0.2-0.1
				c0,0-0.1,0-0.1-0.1c-0.1,0-0.1,0-0.2,0s-0.1,0.1-0.1,0.2l-0.4-0.2c0.1-0.2,0.2-0.3,0.3-0.4s0.3-0.1,0.4-0.1c0.1,0,0.1,0,0.1,0.1
				s0.1,0.1,0.2,0.2c0.1,0.1,0.1,0.1,0.2,0.2c0,0,0.1,0,0.1,0.1c0.1,0,0.1,0,0.2,0c0.1,0,0.1-0.1,0.1-0.2L47.1,87.4z"/>
			<path class="st2" d="M48.9,91.8c0-0.1,0-0.2,0-0.3c-0.2,0.2-0.5,0.2-0.7,0.2c-0.3,0-0.5-0.2-0.6-0.3c-0.2-0.2-0.2-0.4-0.2-0.6
				c0.1-0.3,0.2-0.5,0.4-0.6s0.6-0.2,1-0.1l0.3,0.1l0-0.2c0-0.1,0-0.2-0.1-0.3s-0.2-0.1-0.3-0.2c-0.1,0-0.2,0-0.3,0
				c-0.1,0.1-0.1,0.1-0.1,0.2l-0.7-0.1c0-0.2,0.1-0.3,0.2-0.4c0.1-0.1,0.3-0.2,0.5-0.2s0.4-0.1,0.6,0c0.3,0.1,0.6,0.2,0.8,0.4
				s0.2,0.5,0.2,0.8l-0.2,1.2c0,0.3,0,0.5,0,0.6l0,0L48.9,91.8z M49.9,88.5L48,88.2l0.1-0.4l1.9,0.3L49.9,88.5z M48.4,91.2
				c0.1,0,0.2,0,0.3,0s0.2-0.1,0.2-0.2l0.1-0.5l-0.3,0c-0.4-0.1-0.6,0-0.7,0.3l0,0c0,0.1,0,0.2,0.1,0.2
				C48.2,91.1,48.2,91.1,48.4,91.2z"/>
			<path class="st2" d="M51.3,89.2l0,0.3c0.2-0.2,0.5-0.4,0.8-0.3c0.3,0,0.5,0.1,0.7,0.3s0.2,0.4,0.2,0.8l0,1.8l-0.7,0l0-1.8
				c0-0.2,0-0.3-0.1-0.3c-0.1-0.1-0.2-0.1-0.3-0.1c-0.2,0-0.4,0.1-0.5,0.3l-0.1,2l-0.7,0l0.1-2.8L51.3,89.2z"/>
			<path class="st2" d="M55.6,91.8c0-0.1-0.1-0.1-0.1-0.2c-0.2,0.2-0.4,0.3-0.7,0.4c-0.3,0-0.5,0-0.7-0.2c-0.2-0.1-0.3-0.3-0.3-0.6
				c0-0.3,0.1-0.5,0.2-0.7s0.5-0.3,0.9-0.3l0.3,0l0-0.2c0-0.1-0.1-0.2-0.1-0.3s-0.2-0.1-0.3-0.1c-0.1,0-0.2,0.1-0.3,0.1
				s-0.1,0.2-0.1,0.3L53.8,90c0-0.2,0-0.3,0.1-0.5s0.2-0.3,0.4-0.4c0.2-0.1,0.4-0.2,0.6-0.2c0.3,0,0.6,0,0.8,0.2
				c0.2,0.2,0.3,0.4,0.4,0.7l0.1,1.2c0,0.3,0.1,0.5,0.2,0.6v0L55.6,91.8z M55,91.3c0.1,0,0.2-0.1,0.3-0.1c0.1-0.1,0.2-0.1,0.2-0.2
				l-0.1-0.5l-0.3,0c-0.4,0-0.6,0.2-0.6,0.4v0c0,0.1,0.1,0.2,0.1,0.2C54.8,91.3,54.9,91.3,55,91.3z"/>
			<path class="st2" d="M57.3,88.7l0.1,0.3c0.1-0.3,0.3-0.5,0.7-0.6c0.3-0.1,0.6,0,0.8,0.2c0.1-0.3,0.3-0.5,0.7-0.6
				c0.3-0.1,0.5-0.1,0.7,0.1s0.3,0.4,0.4,0.7l0.5,1.7l-0.7,0.2l-0.5-1.7c0-0.2-0.1-0.3-0.2-0.3c-0.1-0.1-0.2-0.1-0.3,0
				c-0.2,0.1-0.3,0.2-0.4,0.4l0.5,1.8L59,91.1l-0.5-1.7c0-0.2-0.1-0.3-0.2-0.3c-0.1-0.1-0.2-0.1-0.3,0c-0.2,0.1-0.3,0.2-0.4,0.4
				l0.5,1.9l-0.7,0.2l-0.8-2.7L57.3,88.7z"/>
			<path class="st2" d="M63.9,87.8l0.6,1.2l-0.7,0.4L62,86l1.3-0.7c0.2-0.1,0.5-0.2,0.7-0.2c0.2,0,0.4,0,0.6,0.2s0.3,0.3,0.5,0.5
				c0.2,0.3,0.2,0.6,0.1,0.9c-0.1,0.3-0.4,0.6-0.8,0.8L63.9,87.8z M63.6,87.2l0.6-0.3c0.2-0.1,0.3-0.2,0.3-0.3
				c0.1-0.1,0-0.3-0.1-0.4s-0.2-0.3-0.4-0.3c-0.2-0.1-0.3,0-0.5,0.1L63,86.2L63.6,87.2z"/>
			<path class="st2" d="M67.3,84.9c-0.1,0-0.2,0.1-0.2,0.1c-0.2,0.2-0.3,0.3-0.3,0.5l1,1.6l-0.6,0.4l-1.5-2.4l0.6-0.4l0.2,0.3
				c0-0.3,0.1-0.5,0.3-0.7c0.1,0,0.1-0.1,0.2-0.1L67.3,84.9z"/>
			<path class="st2" d="M70.2,85.4c-0.1,0-0.1-0.1-0.2-0.2c0,0.3-0.2,0.5-0.4,0.6c-0.2,0.2-0.5,0.2-0.7,0.2s-0.4-0.1-0.6-0.3
				c-0.2-0.2-0.2-0.5-0.1-0.8c0.1-0.2,0.3-0.5,0.7-0.7l0.3-0.2L69.1,84c-0.1-0.1-0.2-0.2-0.3-0.2s-0.2,0-0.3,0.1
				c-0.1,0.1-0.2,0.2-0.2,0.2c0,0.1,0,0.2,0.1,0.3l-0.6,0.4c-0.1-0.1-0.1-0.3-0.1-0.4c0-0.2,0.1-0.3,0.2-0.5
				c0.1-0.2,0.2-0.3,0.4-0.4c0.3-0.2,0.6-0.3,0.8-0.2s0.5,0.2,0.7,0.4l0.7,1c0.2,0.2,0.3,0.4,0.4,0.4l0,0L70.2,85.4z M69.4,85.4
				c0.1-0.1,0.2-0.1,0.2-0.2c0.1-0.1,0.1-0.2,0.1-0.3l-0.3-0.4l-0.2,0.2c-0.3,0.2-0.4,0.4-0.3,0.7l0,0c0.1,0.1,0.1,0.1,0.2,0.1
				C69.2,85.5,69.3,85.4,69.4,85.4z"/>
			<path class="st2" d="M69.3,81.8c-0.1-0.1-0.1-0.2-0.1-0.3s0.1-0.2,0.2-0.3c0.1-0.1,0.2-0.1,0.3-0.1c0.1,0,0.2,0.1,0.2,0.2
				c0.1,0.1,0.1,0.2,0.1,0.3s-0.1,0.2-0.2,0.3c-0.1,0.1-0.2,0.1-0.3,0.1C69.5,81.9,69.4,81.9,69.3,81.8z M70.4,81.9l1.7,2.4
				c0.2,0.2,0.3,0.5,0.2,0.7s-0.2,0.4-0.4,0.6c-0.1,0.1-0.2,0.1-0.3,0.2l-0.3-0.5c0.1,0,0.2-0.1,0.2-0.1c0.2-0.1,0.2-0.3,0.1-0.5
				l-1.7-2.4L70.4,81.9z"/>
			<path class="st2" d="M72,79.2c0.1,0.2,0.2,0.3,0.2,0.5S72.1,80,72,80.1c-0.1,0-0.1,0.1-0.2,0.1s-0.1,0-0.2,0.1s-0.2,0-0.2,0.1
				c0,0-0.1,0-0.1,0.1c-0.1,0-0.1,0.1-0.1,0.2c0,0.1,0,0.1,0.1,0.2l-0.4,0.2c-0.1-0.2-0.2-0.3-0.2-0.5c0-0.2,0.1-0.3,0.2-0.4
				c0,0,0.1-0.1,0.1-0.1c0,0,0.1,0,0.2-0.1s0.2-0.1,0.2-0.1c0,0,0.1,0,0.1-0.1c0.1,0,0.1-0.1,0.1-0.2c0-0.1,0-0.1-0.1-0.2L72,79.2z
				 M71.6,81l0.2,0.2c0-0.3,0.1-0.6,0.4-0.8c0.2-0.2,0.5-0.2,0.7-0.2s0.4,0.2,0.7,0.5l1.1,1.4L74,82.6l-1.1-1.4
				c-0.1-0.1-0.2-0.2-0.3-0.2c-0.1,0-0.2,0-0.3,0.1c-0.2,0.1-0.2,0.3-0.2,0.5l1.2,1.6l-0.6,0.5L71,81.4L71.6,81z"/>
			<path class="st2" d="M76.5,80.6c-0.1,0-0.1-0.1-0.2-0.2c0,0.3-0.2,0.5-0.4,0.7c-0.2,0.2-0.4,0.2-0.7,0.2c-0.2,0-0.4-0.1-0.6-0.3
				c-0.2-0.2-0.2-0.5-0.1-0.7c0.1-0.3,0.3-0.5,0.6-0.8l0.3-0.2l-0.1-0.1c-0.1-0.1-0.2-0.2-0.3-0.2c-0.1,0-0.2,0-0.3,0.1
				c-0.1,0.1-0.2,0.2-0.2,0.2c0,0.1,0,0.2,0.1,0.3L74,80c-0.1-0.1-0.1-0.3-0.1-0.4s0.1-0.3,0.2-0.5c0.1-0.2,0.2-0.3,0.4-0.4
				c0.3-0.2,0.6-0.3,0.8-0.3c0.3,0,0.5,0.2,0.7,0.4l0.7,1c0.2,0.2,0.3,0.4,0.4,0.4l0,0L76.5,80.6z M75.7,80.5
				c0.1-0.1,0.2-0.1,0.2-0.2C76,80.2,76,80.1,76,80l-0.3-0.4l-0.2,0.2c-0.3,0.2-0.4,0.4-0.3,0.7l0,0c0.1,0.1,0.1,0.1,0.2,0.1
				C75.5,80.6,75.6,80.6,75.7,80.5z"/>
		</g>
		<path class="st2" d="M44.6,64.4c-0.4,0.2-2.1,1.4-4.3,1.1c-2.3-0.3-3.7-1.6-4.6-3c0-0.1-0.1-0.1-0.1-0.2c1.1,0.5,1.9-0.2,3-1
			c-1.2-0.2-1.5-1.4-1.5-1.4c1.6,0.6,2.8-0.3,2.8-0.3c-4.5,0.7-4.3-2.5-4.3-2.5c1.5,1.6,3.3,1.1,3.3,1.1c-5-1.3-3.8-5.3-3.8-5.3
			c0.2,2.4,3.4,3.3,3.4,3.3c-5.6-4.2-1.7-8.1-1.7-8.1c-1.5,4.6,4.5,7.8,6.1,9.1c2,1.5,2,3,2.1,3c0.6,0.2,1.3-1,0.5-2l0,0l0,0
			c-0.1-0.2-0.3-0.4-0.5-0.5c-0.5-0.4-1.1-0.8-1.7-1.2c-0.6-0.4-1.2-0.8-1.7-1.3c-0.4-0.4-0.8-1-0.9-1.6c-0.2-1,0.3-2,1.2-2.4
			c0.9-0.5,1.8-0.3,2.6,0.3c0.5,0.4,0.9,0.8,1,1.5c0.1,0.3,0,0.6-0.1,0.8c-0.1,0.1-0.2,0.2-0.4,0.3C45,54.1,45,54.2,45,54.3
			c0,0.3,0.1,0.7,0.2,1c0,0,0,0.1,0,0.1c-0.2,0-0.3-0.1-0.4-0.2c-0.2-0.2-0.3-0.5-0.3-0.8c0-0.1,0-0.2-0.1-0.4c0,0,0-0.1-0.1-0.1
			C44,53.7,44,53.3,44,53c0-0.5-0.1-0.8-0.5-1.1c-0.6-0.4-1.5-0.1-1.7,0.7c-0.2,0.6-0.1,1.1,0.3,1.6c0.4,0.5,0.9,0.8,1.4,1.1
			c0.6,0.4,1.3,0.8,1.9,1.3c0.5,0.3,0.9,0.7,1.2,1.2c0.5,0.7,0.7,1.5,0.6,2.3C47,61.9,45.8,63.6,44.6,64.4z"/>
		<g>
			<path class="st1" d="M52.3,10.7c0.2,0,0.5,0,0.7,0L52.3,5l-0.7,5.8C51.9,10.7,52.1,10.7,52.3,10.7z"/>
			<path class="st1" d="M50.9,10.9c0.2,0,0.3-0.1,0.5-0.1l-1.3-2.8l0.3,3C50.5,11,50.7,11,50.9,10.9z"/>
			<path class="st1" d="M49.5,11.5c0.2-0.1,0.4-0.2,0.6-0.3l-3.5-4.7l2.3,5.3C49.1,11.7,49.3,11.6,49.5,11.5z"/>
			<path class="st1" d="M48.3,12.4c0.1-0.1,0.2-0.2,0.4-0.3l-2.5-1.8l1.8,2.5C48.1,12.6,48.2,12.5,48.3,12.4z"/>
			<path class="st1" d="M47.4,13.6c0.1-0.2,0.2-0.4,0.4-0.6l-5.3-2.3l4.7,3.5C47.2,14,47.3,13.8,47.4,13.6z"/>
			<path class="st1" d="M46.9,14.9c0-0.2,0.1-0.3,0.2-0.5l-3-0.3l2.8,1.3C46.8,15.3,46.8,15.1,46.9,14.9z"/>
			<path class="st1" d="M57.8,14.9c0,0.2,0.1,0.3,0.1,0.5l2.8-1.3l-3,0.3C57.7,14.6,57.8,14.8,57.8,14.9z"/>
			<path class="st1" d="M57.3,13.6c0.1,0.2,0.2,0.4,0.3,0.6l4.7-3.5L56.9,13C57,13.2,57.1,13.4,57.3,13.6z"/>
			<path class="st1" d="M56.4,12.4c0.1,0.1,0.2,0.2,0.3,0.4l1.8-2.5L56,12C56.1,12.1,56.2,12.3,56.4,12.4z"/>
			<path class="st1" d="M55.2,11.5c0.2,0.1,0.4,0.2,0.6,0.4L58,6.5l-3.5,4.7C54.8,11.3,55,11.4,55.2,11.5z"/>
			<path class="st1" d="M53.8,10.9c0.2,0,0.3,0.1,0.5,0.1l0.3-3l-1.3,2.8C53.5,10.8,53.6,10.9,53.8,10.9z"/>
		</g>
		<path class="st1" d="M58,15.8c0,0.2,0,0.4,0,0.6s0,0.4,0,0.6h15.3v-1.3L58,15.8L58,15.8z"/>
		<path class="st1" d="M46.6,16.4c0-0.2,0-0.4,0-0.6H32V17h14.7C46.7,16.8,46.6,16.6,46.6,16.4z"/>
		<path class="st3" d="M66.1,70c-0.7,0.4-1.4,0.8-2.8,0.8s-2.1-0.4-2.8-0.8c-0.6-0.4-1.2-0.7-2.5-0.7c-1.2,0-1.8,0.3-2.5,0.7
			c-0.7,0.4-1.4,0.8-2.8,0.8s-2.1-0.4-2.8-0.8c-0.6-0.4-1.2-0.7-2.5-0.7c-1.2,0-1.8,0.3-2.5,0.7c-0.7,0.4-1.4,0.8-2.8,0.8
			S40,70.4,39.4,70c-0.6-0.4-1.2-0.7-2.5-0.7c-0.7,0-1.2,0.1-1.7,0.3c0.9,0.8,1.9,1.4,3,2l3,1.6c0.3,0.1,0.6,0.1,1,0.1
			c1.2,0,1.8-0.3,2.5-0.7c0.7-0.4,1.4-0.8,2.8-0.8s2.1,0.4,2.8,0.8c0.6,0.4,1.2,0.7,2.5,0.7c1.2,0,1.8-0.3,2.5-0.7
			c0.7-0.4,1.4-0.8,2.8-0.8s2.1,0.4,2.8,0.8c0.6,0.4,1.2,0.7,2.5,0.7c0.3,0,0.5,0,0.8-0.1l3.1-1.7c1.1-0.6,2.1-1.3,3-2.1
			c-0.4-0.1-0.9-0.2-1.6-0.2C67.3,69.2,66.7,69.6,66.1,70z"/>
		<path class="st3" d="M58,72.3c-1.2,0-1.8,0.3-2.5,0.7c-0.7,0.4-1.4,0.8-2.8,0.8s-2.1-0.4-2.8-0.8c-0.6-0.4-1.2-0.7-2.5-0.7
			c-1.2,0-1.8,0.3-2.5,0.7c-0.6,0.4-1.3,0.7-2.5,0.8l2.9,1.6c0.5-0.2,1.2-0.4,2.1-0.4c1.4,0,2.1,0.4,2.8,0.8
			c0.6,0.4,1.2,0.7,2.5,0.7c1.2,0,1.8-0.3,2.5-0.7c0.7-0.4,1.4-0.8,2.8-0.8c0.9,0,1.5,0.2,2,0.4l2.8-1.5c-1.1-0.1-1.8-0.4-2.4-0.8
			C59.9,72.7,59.3,72.3,58,72.3z"/>
		<path class="st3" d="M55.5,76.3c-0.7,0.4-1.4,0.8-2.8,0.8s-2.1-0.4-2.8-0.8c-0.6-0.4-1.2-0.7-2.5-0.7c-0.6,0-1.1,0.1-1.4,0.2
			l6.6,3.6l6.7-3.6c-0.3-0.1-0.8-0.2-1.3-0.2C56.8,75.6,56.2,75.9,55.5,76.3z"/>
		<path class="st3" d="M70.5,21.9H52.6h0V46H29v10.2c0,5,2.1,9.6,5.7,12.9c0.5-0.2,1.2-0.4,2.1-0.4c1.4,0,2.1,0.4,2.8,0.8
			c0.6,0.4,1.2,0.7,2.5,0.7c1.2,0,1.8-0.3,2.5-0.7c0.7-0.4,1.4-0.8,2.8-0.8s2.1,0.4,2.8,0.8c0.6,0.4,1.2,0.7,2.5,0.7
			c1.2,0,1.8-0.3,2.5-0.7c0.7-0.4,1.4-0.8,2.8-0.8s2.1,0.4,2.8,0.8c0.6,0.4,1.2,0.7,2.5,0.7s1.8-0.3,2.5-0.7
			c0.7-0.4,1.4-0.8,2.8-0.8c0.9,0,1.6,0.2,2,0.4c3.5-3.2,5.6-7.9,5.6-12.8V27.7C73.6,26.7,71.4,24.6,70.5,21.9z"/>
		<path class="st1" d="M52.6,21.9H34.8c-0.9,2.7-3.1,4.8-5.8,5.7V46h23.6V21.9z"/>
		<path class="st3" d="M55.5,76.3c-0.7,0.4-1.4,0.8-2.8,0.8s-2.1-0.4-2.8-0.8c-0.6-0.4-1.2-0.7-2.5-0.7c-0.6,0-1.1,0.1-1.4,0.2
			l6.6,3.6l6.7-3.6c-0.3-0.1-0.8-0.2-1.3-0.2C56.8,75.6,56.2,75.9,55.5,76.3z"/>
		<path class="st3" d="M58,72.3c-1.2,0-1.8,0.3-2.5,0.7c-0.7,0.4-1.4,0.8-2.8,0.8s-2.1-0.4-2.8-0.8c-0.6-0.4-1.2-0.7-2.5-0.7
			c-1.2,0-1.8,0.3-2.5,0.7c-0.6,0.4-1.3,0.7-2.5,0.8l2.9,1.6c0.5-0.2,1.2-0.4,2.1-0.4c1.4,0,2.1,0.4,2.8,0.8
			c0.6,0.4,1.2,0.7,2.5,0.7c1.2,0,1.8-0.3,2.5-0.7c0.7-0.4,1.4-0.8,2.8-0.8c0.9,0,1.5,0.2,2,0.4l2.8-1.5c-1.1-0.1-1.8-0.4-2.4-0.8
			C59.9,72.7,59.3,72.3,58,72.3z"/>
		<path class="st3" d="M76.3,46V27.7c-2.7-0.9-4.8-3.1-5.8-5.7H52.6h0H34.8c-0.9,2.7-3.1,4.8-5.8,5.7V46v10.2c0,5,2.1,9.6,5.7,12.9
			c0.5-0.2,1.2-0.4,2.1-0.4c1.4,0,2.1,0.4,2.8,0.8c0.6,0.4,1.2,0.7,2.5,0.7c1.2,0,1.8-0.3,2.5-0.7c0.7-0.4,1.4-0.8,2.8-0.8
			s2.1,0.4,2.8,0.8c0.6,0.4,1.2,0.7,2.4,0.7V46H76.3z"/>
		<path class="st3" d="M41.2,73.2c0.3,0.1,0.6,0.1,1,0.1c1.2,0,1.8-0.3,2.5-0.7c0.7-0.4,1.4-0.8,2.8-0.8s2.1,0.4,2.8,0.8
			c0.6,0.4,1.2,0.7,2.5,0.7c1.2,0,1.8-0.3,2.5-0.7c0.7-0.4,1.4-0.8,2.8-0.8s2.1,0.4,2.8,0.8c0.6,0.4,1.2,0.7,2.5,0.7
			c0.3,0,0.5,0,0.8-0.1l3.1-1.7c1.1-0.6,2.1-1.3,3-2.1c-0.4-0.1-0.9-0.2-1.6-0.2c-1.2,0-1.8,0.3-2.5,0.7c-0.7,0.4-1.4,0.8-2.8,0.8
			s-2.1-0.4-2.8-0.8c-0.6-0.4-1.2-0.7-2.5-0.7c-1.2,0-1.8,0.3-2.5,0.7c-0.7,0.4-1.4,0.8-2.8,0.8s-2.1-0.4-2.8-0.8
			c-0.6-0.4-1.2-0.7-2.5-0.7c-1.2,0-1.8,0.3-2.5,0.7c-0.7,0.4-1.4,0.8-2.8,0.8S40,70.4,39.4,70c-0.6-0.4-1.2-0.7-2.5-0.7
			c-0.7,0-1.2,0.1-1.7,0.3c0.9,0.8,1.9,1.4,3,2L41.2,73.2z"/>
		<path class="st1" d="M55.2,69.4c0.7-0.4,1.4-0.8,2.8-0.8s2.1,0.4,2.8,0.8c0.6,0.4,1.2,0.7,2.5,0.7s1.8-0.3,2.5-0.7
			c0.7-0.4,1.4-0.8,2.8-0.8c0.9,0,1.6,0.2,2,0.4c3.5-3.2,5.6-7.9,5.6-12.8V46H52.6v24.1c0,0,0.1,0,0.1,0
			C54,70.2,54.6,69.8,55.2,69.4z"/>
		<path class="st1" d="M72.2,69.3C72.2,69.3,72.2,69.3,72.2,69.3C72.2,69.3,72.2,69.3,72.2,69.3z"/>
		<path class="st2" d="M71.5,20.6H52.6H33.8c-0.7,3-3,5.4-6.1,6.1v29.5c0,6.9,3.8,13.2,9.8,16.4l15.1,8.1l15.1-8.1
			c1.4-0.7,2.6-1.7,3.8-2.7l0,0c0.2-0.2,0.5-0.4,0.7-0.7c0,0,0,0,0,0c0.9-0.9,1.6-1.8,2.3-2.9c0-0.1,0.1-0.1,0.1-0.2
			c0.1-0.2,0.3-0.4,0.4-0.7c0-0.1,0.1-0.2,0.1-0.2c0.2-0.4,0.4-0.8,0.6-1.3c0.1-0.1,0.1-0.2,0.1-0.3c0.1-0.2,0.2-0.4,0.2-0.6
			c0.1-0.2,0.1-0.3,0.2-0.5c0.1-0.2,0.1-0.3,0.2-0.5c0.1-0.2,0.1-0.4,0.2-0.6c0.1-0.2,0.1-0.3,0.1-0.5c0.1-0.3,0.2-0.7,0.2-1
			c0-0.1,0-0.2,0.1-0.3c0.1-0.3,0.1-0.5,0.1-0.8c0-0.1,0-0.3,0.1-0.4c0-0.3,0.1-0.5,0.1-0.8c0-0.1,0-0.2,0-0.4c0-0.4,0-0.8,0-1.2V46
			V26.7C74.5,26,72.1,23.7,71.5,20.6z M52.6,79.3L46,75.8c0.4-0.1,0.8-0.2,1.4-0.2c1.2,0,1.8,0.3,2.5,0.7c0.7,0.4,1.4,0.8,2.8,0.8
			s2.1-0.4,2.8-0.8c0.6-0.4,1.2-0.7,2.5-0.7c0.6,0,1,0.1,1.3,0.2L52.6,79.3z M60,75.4c-0.5-0.2-1.1-0.4-2-0.4
			c-1.4,0-2.1,0.4-2.8,0.8c-0.6,0.4-1.2,0.7-2.5,0.7c-1.2,0-1.8-0.3-2.5-0.7c-0.7-0.4-1.4-0.8-2.8-0.8c-1,0-1.6,0.2-2.1,0.4
			l-2.9-1.6c1.2-0.1,1.9-0.4,2.5-0.8c0.6-0.4,1.2-0.7,2.5-0.7s1.8,0.3,2.5,0.7c0.7,0.4,1.4,0.8,2.8,0.8s2.1-0.4,2.8-0.8
			c0.6-0.4,1.2-0.7,2.5-0.7c1.2,0,1.8,0.3,2.5,0.7c0.6,0.3,1.2,0.7,2.4,0.8L60,75.4z M67.1,71.6l-3.1,1.7c-0.2,0-0.5,0.1-0.8,0.1
			c-1.2,0-1.8-0.3-2.5-0.7c-0.7-0.4-1.4-0.8-2.8-0.8s-2.1,0.4-2.8,0.8c-0.6,0.4-1.2,0.7-2.5,0.7c-1.2,0-1.8-0.3-2.5-0.7
			c-0.7-0.4-1.4-0.8-2.8-0.8s-2.1,0.4-2.8,0.8c-0.6,0.4-1.2,0.7-2.5,0.7c-0.4,0-0.7,0-1-0.1l-3-1.6c-1.1-0.6-2.1-1.3-3-2
			c0.4-0.2,0.9-0.3,1.7-0.3c1.2,0,1.8,0.3,2.5,0.7c0.7,0.4,1.4,0.8,2.8,0.8s2.1-0.4,2.8-0.8c0.6-0.4,1.2-0.7,2.5-0.7
			c1.2,0,1.8,0.3,2.5,0.7c0.7,0.4,1.4,0.8,2.8,0.8s2.1-0.4,2.8-0.8c0.6-0.4,1.2-0.7,2.5-0.7c1.2,0,1.8,0.3,2.5,0.7
			c0.7,0.4,1.4,0.8,2.8,0.8s2.1-0.4,2.8-0.8c0.6-0.4,1.2-0.7,2.5-0.7c0.7,0,1.2,0.1,1.6,0.2C69.2,70.3,68.2,71,67.1,71.6z
			 M76.3,56.2c0,4.9-2.1,9.6-5.6,12.8c-0.5-0.2-1.1-0.4-2-0.4c-1.4,0-2.1,0.4-2.8,0.8c-0.6,0.4-1.2,0.7-2.5,0.7s-1.8-0.3-2.5-0.7
			c-0.7-0.4-1.4-0.8-2.8-0.8s-2.1,0.4-2.8,0.8c-0.6,0.4-1.2,0.7-2.5,0.7c0,0-0.1,0-0.1,0c-1.2,0-1.8-0.4-2.4-0.7
			c-0.7-0.4-1.4-0.8-2.8-0.8s-2.1,0.4-2.8,0.8c-0.6,0.4-1.2,0.7-2.5,0.7c-1.2,0-1.8-0.3-2.5-0.7c-0.7-0.4-1.4-0.8-2.8-0.8
			c-1,0-1.6,0.2-2.1,0.4c-3.6-3.2-5.7-7.9-5.7-12.9V46V27.7c2.7-0.9,4.8-3.1,5.8-5.7h17.8h0h17.9c0.9,2.7,3.1,4.8,5.8,5.7V46
			L76.3,56.2L76.3,56.2z"/>
		<path class="st1" d="M52.3,12C49.9,12,48,14,48,16.4c0,0.2,0,0.5,0.1,0.7h8.6c0-0.2,0.1-0.4,0.1-0.7C56.7,14,54.7,12,52.3,12z"/>
		<g>
			<g>
				<path class="st2" d="M62.9,59.1c-1.1-0.9-1.3-2.1-1.3-3.2c0-1.2-0.3-1.5-1.2-2c-0.6-0.3-1.3-0.7-1.9-1c-0.4,1.2-0.6,2.4,0.2,3.5
					c0.4,0.6,0.9,1.1,1.4,1.5l0,0C61.3,58.8,62.9,59.1,62.9,59.1z"/>
			</g>
			<g>
				<g>
					<path class="st2" d="M59.7,58.4c-0.1,0-0.1-0.1-0.2-0.1c-0.6-0.4-1.1-0.5-1.8-0.3c-0.9,0.3-1.7,1-2.4,1.7
						c0.5,0.2,1,0.4,1.5,0.7c0.4,0.2,0.9,0.5,1.3,0.7c0.9,0.4,1.7,0.5,2.6,0c0.5-0.3,1-0.6,1.4-0.9l0,0c0.6-0.3,1.1-0.7,1.2-0.7
						c0,0-0.1,0-0.4,0C61.4,59.6,59.9,58.5,59.7,58.4z"/>
				</g>
				<g>
					<path class="st2" d="M63.6,59.5C63.6,59.5,63.6,59.5,63.6,59.5L63.6,59.5z"/>
				</g>
			</g>
			<g>
				<path class="st2" d="M65.8,59.1c1.1-0.9,1.3-2.1,1.3-3.2c0-1.2,0.3-1.5,1.2-2c0.6-0.3,1.3-0.7,1.9-1c0.4,1.2,0.6,2.4-0.2,3.5
					c-0.4,0.6-0.9,1.1-1.4,1.5l0,0C67.4,58.8,65.8,59.1,65.8,59.1z"/>
			</g>
			<g>
				<g>
					<path class="st2" d="M69,58.4c0.1,0,0.1-0.1,0.2-0.1c0.6-0.4,1.1-0.5,1.8-0.3c0.9,0.3,1.7,1,2.4,1.7c-0.5,0.2-1,0.4-1.5,0.7
						c-0.4,0.2-0.9,0.5-1.3,0.7c-0.9,0.4-1.7,0.5-2.6,0c-0.5-0.3-1-0.6-1.4-0.9l0,0c-0.6-0.3-1.1-0.7-1.2-0.7c0,0,0.1,0,0.4,0
						C67.3,59.6,68.9,58.5,69,58.4z"/>
				</g>
				<g>
					<path class="st2" d="M65.1,59.5L65.1,59.5L65.1,59.5z"/>
				</g>
			</g>
			<g>
				<path class="st2" d="M65.7,54.1c-0.4-0.8-0.9-1.5-1.3-2.3l0,0l0,0l0,0l0,0c-0.5,0.8-0.9,1.6-1.3,2.3c-1.3,2.3-0.5,4,1,5.2l0,0
					l0.3,0.3l0,0l0,0l0,0l0,0l0.3-0.3l0,0C66.2,58,67,56.3,65.7,54.1z"/>
			</g>
			<g>
				<path class="st2" d="M65.8,60.9c-0.4-0.2-0.8-0.3-1.3-0.5l-0.2-0.1l0,0l0,0l0,0l0,0l-0.2,0.1c-0.4,0.2-0.9,0.3-1.3,0.5
					c-0.6,0.2-1,0.7-1,1.4c0,0.5,0.2,0.9,0.5,1.1c0,0,1.3,1.3,1.9,1.8c0,0,0,0,0,0c0,0,0,0,0,0c0.6-0.6,1.9-1.8,1.9-1.8
					c0.3-0.3,0.5-0.7,0.5-1.1C66.8,61.6,66.4,61.1,65.8,60.9z"/>
			</g>
		</g>
		<path class="st4" d="M48.4,34.4C48.4,34.4,48.4,34.4,48.4,34.4c0-0.1,0-0.1,0-0.1c0-1-0.2-1.9-0.6-2.8c0,0,0,0,0,0c0,0,0,0,0,0
			c-0.4-1-1-1.9-1.8-2.7c0,0,0,0,0,0c0,0,0,0,0,0c-0.7-0.6-1.5-1.2-2.3-1.6c0,0,0,0,0,0c0,0,0,0,0,0c-1-0.4-2-0.6-3.1-0.6
			c0,0,0,0,0,0c0,0,0,0,0,0c-1,0-2,0.2-2.9,0.6c0,0,0,0-0.1,0c0,0,0,0,0,0c-1,0.4-1.9,1-2.7,1.8c0,0,0,0,0,0c0,0,0,0,0,0
			c-0.7,0.7-1.2,1.5-1.6,2.4l0,0c0,0,0,0,0,0c-0.4,1-0.6,2-0.6,3.1c0,0,0,0,0,0.1c0,0,0,0,0,0c0,0,0,0,0,0.1c0,1,0.2,1.9,0.5,2.8
			c0,0,0,0,0,0c0,0,0,0,0,0c0.4,1,1,1.9,1.8,2.7l0,0c0,0,0,0,0,0c0.7,0.7,1.5,1.2,2.3,1.6c0,0,0,0,0,0h0c1,0.4,2,0.7,3.2,0.7
			c1,0,2-0.2,2.9-0.6c0,0,0,0,0.1,0c0,0,0,0,0,0c1-0.4,1.9-1,2.7-1.8l0,0c0,0,0,0,0,0c0.7-0.7,1.2-1.5,1.6-2.4c0,0,0,0,0,0l0,0
			C48.1,36.6,48.3,35.5,48.4,34.4C48.4,34.5,48.4,34.4,48.4,34.4z M47.4,32.3c0.1,0.5,0.2,0.9,0.3,1.4c-0.3,0-0.6,0.3-0.6,0.6
			L44,34.1l-2.2,0.2c0,0,0,0,0,0l-0.1,0c0,0,0-0.1,0-0.1l2.2-0.7l2.8-1.4C46.8,32.3,47.1,32.4,47.4,32.3z M45.9,29.7
			c0.4,0.4,0.7,0.9,1,1.4c-0.3,0.1-0.4,0.5-0.3,0.7l-3,0.9l-2,1c0,0,0,0,0,0l-0.1,0c0,0-0.1-0.1-0.1-0.1l1.7-1.5l2-2.4
			C45.4,29.9,45.7,29.9,45.9,29.7z M43.9,28.1c0.4,0.2,0.8,0.5,1.1,0.8c-0.2,0.2-0.2,0.6,0,0.8l-2.4,2l-1.4,1.7c0,0,0,0,0,0l0,0
			c-0.1,0-0.1-0.1-0.2-0.1l0,0l0.1,0l1.1-2l0.9-3C43.4,28.5,43.7,28.4,43.9,28.1z M41.1,27.2c0.6,0,1.1,0.2,1.7,0.4
			c-0.1,0.3,0,0.5,0.2,0.7L41.5,31l-0.7,2.2l0.1,0l0.1,0c-0.1,0-0.2-0.1-0.3-0.1l0.2-2.3l-0.3-3.1C40.8,27.8,41,27.5,41.1,27.2z
			 M38.3,27.5c0.5-0.1,1-0.2,1.5-0.3c0,0.3,0.3,0.5,0.6,0.5L40,30.9l0.2,2.2c0,0,0,0,0,0l0,0.1c-0.1,0-0.1,0-0.2,0l0,0l0.1,0
			L39.4,31L38,28.2C38.3,28.1,38.4,27.8,38.3,27.5z M37.1,28c0.1,0.3,0.4,0.4,0.7,0.3l0.9,3l1,2l0.1,0l0,0l0,0
			c-0.1,0-0.2,0.1-0.3,0.2l0,0l0,0l0,0l-1.5-1.7l-2.4-2c0.2-0.2,0.2-0.5,0-0.8C36.1,28.6,36.6,28.3,37.1,28z M34.8,29.9
			c0.2,0.2,0.6,0.2,0.8,0l2,2.4l1.8,1.4l0,0l0,0l0,0c-0.1,0.1-0.1,0.2-0.2,0.3l0,0l0,0l-2-1.1l-3-1c0.1-0.3,0-0.6-0.3-0.7
			C34.2,30.6,34.5,30.2,34.8,29.9z M33.5,32.2c0.3,0.1,0.6,0,0.7-0.3l2.8,1.5l2.2,0.7l0-0.1l0,0c0,0.1-0.1,0.2-0.1,0.4v0l0-0.1
			l-2.3-0.2l-3.1,0.3c-0.1-0.2-0.3-0.4-0.5-0.5C33.2,33.3,33.3,32.8,33.5,32.2z M33.5,36.6c-0.1-0.5-0.2-0.9-0.3-1.4
			c0.3,0,0.6-0.3,0.6-0.6l3.1,0.3l2.3-0.2l0-0.1v-0.1c0,0.1,0,0.2,0.1,0.3l0,0l0,0l0,0l-2.2,0.7l-2.8,1.4
			C34,36.6,33.7,36.5,33.5,36.6z M34.9,39.2c-0.4-0.4-0.7-0.9-1-1.4c0.3-0.1,0.4-0.4,0.3-0.7l3-0.9l2-1l0,0l0,0
			c0.1,0.1,0.1,0.2,0.2,0.3l0,0l0,0l0,0l-1.7,1.5l-2,2.4C35.4,39,35.1,39,34.9,39.2z M36.9,40.9c-0.4-0.2-0.8-0.5-1.1-0.8
			c0.2-0.2,0.2-0.6,0-0.8l2.4-2l1.4-1.8l0,0l0,0l0,0c0.1,0.1,0.1,0.1,0.2,0.2l-1.1,2l-1,3C37.4,40.5,37.1,40.6,36.9,40.9z
			 M39.8,41.7c-0.6,0-1.1-0.2-1.7-0.3c0.1-0.3,0-0.5-0.2-0.7l1.5-2.8l0.7-2.1h0l0-0.1c0.1,0,0.2,0,0.2,0h0l0,0h-0.1L40,38l0.3,3.1
			C40,41.2,39.8,41.4,39.8,41.7z M42.5,41.4c-0.5,0.1-1,0.2-1.5,0.3c0-0.3-0.3-0.5-0.6-0.5l0.3-3.1l-0.2-2.3l-0.1,0h-0.1
			c0.1,0,0.2,0,0.3,0l0.7,2.2l1.4,2.8C42.6,40.9,42.5,41.2,42.5,41.4z M43.7,40.9c-0.1-0.3-0.4-0.4-0.7-0.3l-0.9-3l-1-2c0,0,0,0,0,0
			l0,0l0,0c0.1,0,0.1-0.1,0.1-0.1l1.5,1.7l2.4,2c-0.2,0.2-0.2,0.5,0,0.8C44.7,40.3,44.2,40.7,43.7,40.9z M46,39.1
			c-0.2-0.2-0.6-0.2-0.8,0l-2-2.4l-1.7-1.4l0,0l0,0l0,0c0,0,0-0.1,0.1-0.1l2,1.1l3,1c-0.1,0.3,0,0.6,0.3,0.7
			C46.6,38.3,46.3,38.7,46,39.1z M47.3,36.7c-0.3-0.1-0.6,0-0.7,0.3l-2.8-1.5l-2.1-0.7c0,0,0,0,0,0l-0.1,0c0,0,0-0.1,0-0.2l2.3,0.2
			h0l3.1-0.3c0.1,0.2,0.3,0.4,0.5,0.5C47.6,35.6,47.5,36.2,47.3,36.7z"/>
	</g>
	<g>
		<g>
			<g>
				<path class="st2" d="M170.7,65.4l1.1-1.3c0.8,0.6,1.6,1,2.5,1c0.8,0,1.2-0.3,1.2-0.8v0c0-0.5-0.3-0.7-1.7-1.1
					c-1.7-0.4-2.8-0.9-2.8-2.6v0c0-1.5,1.2-2.6,3-2.6c1.2,0,2.3,0.4,3.2,1.1l-1,1.4c-0.8-0.5-1.5-0.8-2.2-0.8
					c-0.7,0-1.1,0.3-1.1,0.7v0c0,0.6,0.4,0.7,1.8,1.1c1.7,0.5,2.7,1.1,2.7,2.6v0c0,1.7-1.3,2.6-3.1,2.6
					C173,66.8,171.7,66.3,170.7,65.4z"/>
				<path class="st2" d="M178.4,62.4L178.4,62.4c0-2.4,1.8-4.4,4.4-4.4c1.6,0,2.6,0.5,3.4,1.3l-1.2,1.4c-0.7-0.6-1.3-1-2.2-1
					c-1.4,0-2.5,1.2-2.5,2.7v0c0,1.5,1,2.7,2.5,2.7c1,0,1.6-0.4,2.2-1l1.2,1.2c-0.9,0.9-1.9,1.5-3.5,1.5
					C180.3,66.8,178.4,64.9,178.4,62.4z"/>
				<path class="st2" d="M187.5,58.1h1.9v3.4h3.5v-3.4h1.9v8.5h-1.9v-3.4h-3.5v3.4h-1.9V58.1z"/>
				<path class="st2" d="M196.2,62.4L196.2,62.4c0-2.4,1.9-4.4,4.5-4.4c2.6,0,4.5,2,4.5,4.4v0c0,2.4-1.9,4.4-4.5,4.4
					C198,66.8,196.2,64.8,196.2,62.4z M203.2,62.4L203.2,62.4c0-1.5-1.1-2.7-2.6-2.7s-2.6,1.2-2.6,2.7v0c0,1.5,1.1,2.7,2.6,2.7
					C202.2,65.1,203.2,63.9,203.2,62.4z"/>
				<path class="st2" d="M206.3,62.4L206.3,62.4c0-2.4,1.9-4.4,4.5-4.4c2.6,0,4.5,2,4.5,4.4v0c0,2.4-1.9,4.4-4.5,4.4
					C208.1,66.8,206.3,64.8,206.3,62.4z M213.3,62.4L213.3,62.4c0-1.5-1.1-2.7-2.6-2.7s-2.6,1.2-2.6,2.7v0c0,1.5,1.1,2.7,2.6,2.7
					C212.3,65.1,213.3,63.9,213.3,62.4z"/>
				<path class="st2" d="M216.7,58.1h1.9v6.8h4.2v1.7h-6.1V58.1z"/>
			</g>
			<g>
				<path class="st2" d="M115.5,62.4L115.5,62.4c0-2.4,1.9-4.4,4.5-4.4c1.5,0,2.5,0.4,3.4,1.2l-1.2,1.4c-0.7-0.5-1.2-0.9-2.2-0.9
					c-1.4,0-2.4,1.2-2.4,2.7v0c0,1.6,1.1,2.7,2.6,2.7c0.7,0,1.3-0.2,1.8-0.5v-1.2h-1.9v-1.6h3.7v3.7c-0.9,0.7-2.1,1.3-3.6,1.3
					C117.3,66.8,115.5,64.9,115.5,62.4z"/>
				<path class="st2" d="M125.1,58.1h1.9v6.8h4.2v1.7h-6.1V58.1z"/>
				<path class="st2" d="M131.6,62.4L131.6,62.4c0-2.4,1.9-4.4,4.5-4.4c2.6,0,4.5,2,4.5,4.4v0c0,2.4-1.9,4.4-4.5,4.4
					C133.5,66.8,131.6,64.8,131.6,62.4z M138.7,62.4L138.7,62.4c0-1.5-1.1-2.7-2.6-2.7s-2.6,1.2-2.6,2.7v0c0,1.5,1.1,2.7,2.6,2.7
					C137.6,65.1,138.7,63.9,138.7,62.4z"/>
				<path class="st2" d="M142,58.1h3.9c1,0,1.7,0.3,2.2,0.8c0.4,0.4,0.6,0.9,0.6,1.5v0c0,1-0.5,1.5-1.1,1.8c1,0.4,1.6,1,1.6,2.1v0
					c0,1.6-1.3,2.3-3.2,2.3H142L142,58.1L142,58.1z M146.9,60.7c0-0.6-0.4-0.9-1.2-0.9h-1.9v1.8h1.7
					C146.4,61.6,146.9,61.3,146.9,60.7L146.9,60.7z M146,63.1h-2.2V65h2.2c0.8,0,1.3-0.3,1.3-0.9v0C147.4,63.5,147,63.1,146,63.1z"
					/>
				<path class="st2" d="M153.5,58.1h1.7l3.6,8.6h-2l-0.8-1.9h-3.6l-0.8,1.9h-1.9L153.5,58.1z M155.5,63.1l-1.1-2.8l-1.1,2.8H155.5z
					"/>
				<path class="st2" d="M160,58.1h1.9v6.8h4.2v1.7H160V58.1z"/>
			</g>
		</g>
		<g>
			<g>
				<path class="st2" d="M102.3,38.1h3l3.3,5.3l3.3-5.3h3v12.7h-2.8v-8.3l-3.6,5.4h-0.1l-3.5-5.3v8.2h-2.7V38.1z"/>
				<path class="st2" d="M121.9,38h2.6l5.4,12.8H127l-1.2-2.8h-5.4l-1.2,2.8h-2.8L121.9,38z M124.9,45.5l-1.7-4.1l-1.7,4.1H124.9z"
					/>
				<path class="st2" d="M131.5,38.1h2.6l5.9,7.8v-7.8h2.8v12.7h-2.4l-6.1-8v8h-2.8V38.1z"/>
				<path class="st2" d="M144.9,44.5L144.9,44.5c0-3.6,2.7-6.6,6.6-6.6c2.4,0,3.8,0.8,5,2l-1.8,2c-1-0.9-2-1.4-3.2-1.4
					c-2.1,0-3.7,1.8-3.7,3.9v0c0,2.2,1.5,4,3.7,4c1.4,0,2.3-0.6,3.3-1.5l1.8,1.8c-1.3,1.4-2.8,2.3-5.2,2.3
					C147.7,51,144.9,48.1,144.9,44.5z"/>
				<path class="st2" d="M158.4,38.1h2.8v5h5.1v-5h2.8v12.7h-2.8v-5.1h-5.1v5.1h-2.8V38.1z"/>
				<path class="st2" d="M171.8,38.1h9.6v2.5h-6.8v2.6h6v2.5h-6v2.7h6.9v2.5h-9.6V38.1z"/>
				<path class="st2" d="M182.7,48.9l1.6-2c1.1,0.9,2.3,1.5,3.8,1.5c1.1,0,1.8-0.5,1.8-1.2v0c0-0.7-0.4-1.1-2.6-1.6
					c-2.6-0.7-4.2-1.4-4.2-3.9v0c0-2.3,1.8-3.8,4.4-3.8c1.8,0,3.4,0.6,4.7,1.6l-1.4,2.1c-1.1-0.8-2.2-1.2-3.3-1.2s-1.6,0.5-1.6,1.1
					v0c0,0.8,0.5,1.1,2.7,1.7c2.6,0.7,4,1.6,4,3.8v0c0,2.5-1.9,3.9-4.6,3.9C186.2,51,184.2,50.3,182.7,48.9z"/>
				<path class="st2" d="M197.5,40.7h-3.9v-2.6h10.5v2.6h-3.9v10.1h-2.8V40.7z"/>
				<path class="st2" d="M205.9,38.1h9.6v2.5h-6.8v2.6h6v2.5h-6v2.7h6.9v2.5h-9.6V38.1z"/>
				<path class="st2" d="M217.6,38.1h5.8c1.6,0,2.9,0.5,3.7,1.3c0.7,0.7,1.1,1.7,1.1,2.9v0c0,2-1.1,3.3-2.7,3.9l3.1,4.5h-3.3l-2.7-4
					h-2.2v4h-2.8V38.1z M223.2,44.3c1.4,0,2.1-0.7,2.1-1.8v0c0-1.2-0.8-1.8-2.2-1.8h-2.8v3.6C220.4,44.3,223.2,44.3,223.2,44.3z"/>
			</g>
		</g>
	</g>
</g>
</svg>
