<svg id="Capa_1" enable-background="new 0 0 512 512" height="512" viewBox="0 0 512 512" width="512" xmlns="http://www.w3.org/2000/svg"><g><path d="m468.153 106.266 42.884-74.81c2.733-4.456-.631-11.245-6.52-11.252h-78.314c-4.15 0-7.515 3.364-7.515 7.515 0 4.15 3.365 7.515 7.515 7.515h65.344l-38.576 67.296c-1.327 2.315-1.327 5.159 0 7.474l38.576 67.296h-196.265v-142.067h100.86c4.15 0 7.515-3.365 7.515-7.515s-3.365-7.515-7.515-7.515h-101.135c-1.752-11.424-11.652-20.203-23.566-20.203-13.146 0-23.841 10.689-23.841 23.827v182.527c0 4.15 3.365 7.515 7.515 7.515s7.515-3.365 7.515-7.515v-182.527c0-4.851 3.952-8.798 8.811-8.798 4.858 0 8.81 3.947 8.81 8.798v254.055c-5.324-.996-11.181-1.668-17.621-2.008v-39.462c0-4.15-3.365-7.515-7.515-7.515s-7.515 3.364-7.515 7.515v39.249c-18.727.35-41.384 2.838-68.579 7.452-30.689 5.207-57.28 24.681-70.399 35.826-3.832 3.254-8.732 5.047-13.799 5.047h-11.744v-.358c0-4.15-3.365-7.515-7.515-7.515h-68.049c-4.151 0-7.515 3.365-7.515 7.515v149.672c0 4.15 3.365 7.515 7.515 7.515h68.049c4.15 0 7.515-3.365 7.515-7.515v-.358h11.513c8.351 0 16.5 2.975 22.946 8.378 36.187 30.331 87.968 30.68 90.154 30.68h65.689c.14 0 .277-.013.415-.021.275.008.55.021.827.021h34.672c16.076 0 29.155-13.071 29.155-29.138 0-5.328-1.445-10.322-3.954-14.623 13.482-2.551 23.712-14.411 23.712-28.623 0-5.957-1.8-11.5-4.881-16.12 10.836-4.254 18.531-14.806 18.531-27.126 0-5.698-1.651-11.014-4.491-15.509 11.725-3.776 20.233-14.78 20.233-27.737 0-16.066-13.079-29.138-29.155-29.138h-36.148v-3.652c0-12.573-4.49-22.741-13.345-30.22-3.79-3.201-8.329-5.864-13.671-8.001v-89.785h209.234c5.225.155 9.443-6.14 6.52-11.252zm-158.857 390.705h-34.672c-7.789 0-14.125-6.329-14.125-14.109s6.337-14.108 14.125-14.108h.01 34.653.01c7.789 0 14.125 6.329 14.125 14.108s-6.338 14.109-14.126 14.109zm19.773-43.247h-64.242c-7.78 0-14.109-6.329-14.109-14.108s6.329-14.109 14.109-14.109h64.242c7.78 0 14.109 6.329 14.109 14.109.001 7.779-6.329 14.108-14.109 14.108zm-73.818-114.581 6.004 28.088h-4.197c-7.789 0-14.125-6.329-14.125-14.108 0-7.166 5.382-13.089 12.318-13.98zm-4.345 43.118h13.597c3.622 14.223 15.379 25.076 29.777 28.217h-43.373c-7.789 0-14.125-6.329-14.125-14.109s6.335-14.108 14.124-14.108zm91.798 28.217h-33.854c7.793-2.468 13.448-9.618 13.448-18.042v-10.176h20.406c7.789 0 14.125 6.329 14.125 14.109s-6.337 14.109-14.125 14.109zm15.741-71.463c7.789 0 14.125 6.329 14.125 14.109s-6.336 14.108-14.125 14.108h-36.148v-28.217zm-51.178-18.682v72.103c0 2.172-1.969 3.939-4.39 3.939-11.602 0-21.699-7.845-24.009-18.654l-10.583-49.507c-.867-4.058-4.857-6.642-8.92-5.778-.072.016-23.669 6.138-23.669 6.138-2.641.687-4.707 2.773-5.388 5.414-.113.437-11.826 43.968-58.214 62.946-8.855 4.017-3.75 17.309 5.691 13.91 26.859-10.988 43.508-28.802 53.507-44.11 1.009 1.9 2.223 3.673 3.611 5.295-7.915 5.216-13.152 14.175-13.152 24.339 0 12.408 7.803 23.022 18.761 27.217-3.044 4.602-4.823 10.111-4.823 16.03 0 11.183 6.337 20.909 15.605 25.792-3.656 4.869-5.825 10.913-5.825 17.455 0 5.116 1.33 9.925 3.657 14.108h-41.426c-.482-.001-48.579-.408-80.507-27.168-9.147-7.667-20.725-11.889-32.601-11.889h-11.513v-31.485c0-4.15-3.365-7.515-7.515-7.515s-7.515 3.365-7.515 7.515v39.358h-53.019v-134.644h53.019v65.228c0 4.15 3.365 7.515 7.515 7.515s7.515-3.365 7.515-7.515v-57.355h11.744c8.628 0 16.984-3.062 23.53-8.621 11.944-10.147 36.036-27.856 63.183-32.463 23.351-3.962 94.41-16.02 117.717 3.665 5.394 4.553 8.014 10.682 8.014 18.737z"/></g></svg>